<svg version="1" xmlns="http://www.w3.org/2000/svg" width="2730.667" height="2730.667" viewBox="0 0 2048.000000 2048.000000"><path d="M385.8 568.5c-.2.2-4.6.6-9.8.9-5.2.4-10.8.9-12.5 1.1-6.2.9-11.2 1.5-16.5 2.1-3 .3-5.9.8-6.4 1.1-.5.3-2.3.7-4 .9-3.4.3-7.9 1.1-11.1 1.8-4.2 1-16.1 3.7-18.5 4.2-1.4.2-3.6.8-5 1.3-4 1.4-13.5 4.1-14 4.1-.3-.1-4.5 1.3-9.5 3.1-4.9 1.7-9.4 3.2-10 3.4-.5.1-2.1.7-3.5 1.2-1.4.6-5.9 2.4-10 4.1-18.4 7.4-49.4 22.8-51.2 25.6-.4.6-.8.7-.8.3 0-.4-2 .6-4.4 2.3-2.5 1.6-4.9 3-5.5 3-.6 0-1.1.4-1.1 1 0 .5-.5 1-1 1-1.3 0-16.4 10-16.8 11.2-.2.4-.8.8-1.3.8-.8 0-12.5 8.4-13.9 10-.3.3-2.5 2.1-5 4s-5 3.9-5.6 4.5c-.6.5-4.8 4.1-9.3 7.9-4.4 3.8-8.1 7.3-8.1 7.8 0 .4-.4.8-.9.8-2.1 0-33.1 32.9-39.1 41.4-.8 1.2-2.5 3.2-3.7 4.6-1.3 1.4-2.6 3.3-2.9 4.2-.3 1-.9 1.8-1.4 1.8-.4 0-2.3 2.3-4.1 5.1-1.8 2.8-3.7 5.6-4.4 6.2-1.8 1.9-14.5 21.6-14.5 22.6 0 .5-.4 1.1-.8 1.3-1.7.6-19.8 35-24.9 47.3-1.4 3.3-3.1 7.3-3.8 9-1.1 2.7-2.5 6-3 7.5-.1.3-.5 1.2-.8 2-2.4 5.8-5.5 15-5 15 .3 0 0 .6-.6 1.3-.6.8-.8 1.7-.4 2 .3.4.2.7-.4.7-.5 0-1 .6-1 1.2 0 .7-1.3 5.3-2.8 10.3-2.3 7.9-3.7 12.9-5 18.5-1.3 5.3-4.7 22.1-5.1 25-.3 1.9-.8 4.4-1.1 5.5-.3 1.1-.7 3.6-.9 5.5-.2 1.9-.6 5.3-.9 7.5-3.6 26.6-4.1 71.6-1 97.6.9 8.2 1.5 12.5 2.1 15.4.3 1.6.7 4.3.9 6 .6 4.9 1.6 10.9 2.1 12.4.2.8.7 3 1 5 .3 2 .7 4.3 1 5.1.3.8.8 2.6 1 4 .3 1.4 1.8 7.5 3.5 13.6 1.7 6 3.1 11.7 3.3 12.5.1.7.8 2.4 1.4 3.6.7 1.3 1.1 2.3.8 2.3-.3 0 1.5 5.6 4.9 14.5.4 1.1 1.6 4.5 2.8 7.5 1.1 3 4.2 10.5 6.9 16.7 2.6 6.1 4.8 11.6 4.8 12.1s.7 1.5 1.5 2.2c.9.7 1.3 1.5 1.1 1.8-.3.3.4 1.8 1.5 3.3 1.1 1.6 1.7 2.9 1.2 2.9-.4 0-.3.4.2.8.6.4 1.8 2.3 2.7 4.2 3.1 6.3 10 18.4 13.9 24.3 2.2 3.2 3.9 6 3.9 6.2 0 .6 6.3 9.9 7.7 11.3.7.7 1.3 1.6 1.3 2 0 .4 1.1 2 2.5 3.6s2.5 3.2 2.5 3.6c0 .5 1.4 2.2 3 4 1.7 1.8 3 3.5 3 3.9 0 .4 1.2 2.1 2.8 3.8 1.5 1.7 4.3 5 6.2 7.4 1.9 2.3 4.7 5.5 6.3 7.1 1.5 1.6 2.7 3.1 2.7 3.4 0 .2 1.5 2 3.3 3.8 1.7 1.8 5.5 5.7 8.3 8.7 8.7 9.2 31.6 30.3 36.6 33.7 1.3.9 2.5 1.8 2.8 2.1.3.4 3.7 3 7.5 5.8 3.9 2.9 7.5 5.7 8 6.1 1.2 1 15.2 10.4 21 14.1 2.2 1.4 4.2 2.8 4.5 3.1.3.3 1.6 1.1 3 1.7 1.4.7 4.8 2.6 7.5 4.3 10.1 6 44.7 22.9 48.5 23.6.8.2 2.3.7 3.5 1.2 4.8 2.2 10.6 4.5 11.7 4.6.3.1 1 .4 1.4.8.4.5 1.3.8 2 .8s2.5.5 4.1 1.2c1.5.6 3 1.2 3.3 1.2 3.9.9 10.8 3.1 11.8 3.9.6.5 1.2.7 1.2.4 0-.4 1.8 0 4 .8s4 1.2 4 1c0-.3 1.2 0 2.8.6 1.5.6 3.8 1.3 5.1 1.5 1.3.3 5.1 1.2 8.5 2 3.4.9 7 1.7 8.1 1.9 1.1.2 3.4.6 5 1 1.7.4 4.6.8 6.5 1 1.9.2 3.5.4 3.5.5 0 .3 4 1 7.5 1.5 7 .8 12.6 1.5 16 2 10 1.3 23.7 1.9 44 1.9 25.1 0 38.7-.9 59-3.9 1.4-.2 4.8-.6 7.5-1 2.8-.3 5.7-.9 6.5-1.2.8-.3 2.9-.7 4.5-.9 3.7-.6 21.4-4.5 23.5-5.2.8-.3 2-.6 2.5-.7.6-.2 3-.8 5.5-1.5s5-1.3 5.5-1.4c2.1-.4 12.1-3.8 13.6-4.6.9-.5 3.3-1.2 5.3-1.5 2-.4 3.9-1.1 4.2-1.6.3-.5 1.2-.9 2.1-.9.8 0 3.1-.7 5.1-1.6 2.1-.9 5.2-2.2 7-3 1.8-.8 3.9-1.4 4.7-1.4.8 0 1.5-.5 1.5-1.2 0-.6.3-.8.6-.5.4.4 3.2-.6 6.3-2.1 3.1-1.6 9.7-4.8 14.6-7.1 9-4.4 30.6-16 31.5-17 .7-.8 4.1-3 6-3.8.8-.4 1.7-.9 2-1.3.3-.3 2.3-1.7 4.5-3 4.1-2.5 19.5-13.3 22.8-16 1-.8 2.7-2.2 3.7-3 1-.8 3.1-2.4 4.6-3.5 1.5-1.1 4.2-3.2 5.8-4.7 1.7-1.5 4.2-3.6 5.5-4.7 4.6-4 16.4-14.6 17.5-15.9.6-.7 2.9-3 5-5 2.2-2 4.6-4.5 5.5-5.5.9-1 3.4-3.7 5.6-6 2.2-2.4 6.3-6.9 9-10.1 2.8-3.2 5.8-6.8 6.9-8 5.4-6.2 25.5-34.1 30.1-41.8 7.8-13.1 11.5-19.5 14.6-25.6 2-4 4.3-7.9 4.9-8.7.7-.8.9-1.5.6-1.5-.4 0 .2-1.3 1.3-2.9 1.2-1.6 2.1-3.2 2.1-3.6 0-.3 1.2-3.2 2.6-6.3 1.4-3.1 3.7-8.6 5.1-12.2 1.3-3.6 2.9-7.4 3.5-8.5 2-3.6 11.8-33.7 11.3-34.5-.3-.5-.1-1.1.4-1.4.4-.3 1.2-2 1.6-3.8.4-1.8.9-3.8 1-4.3.4-1.2 2.4-9.4 3-11.8.2-1 .6-2.6.9-3.5.3-.9.8-3.5 1.1-5.7.3-2.2.9-5.6 1.3-7.5.5-1.9.9-3.8 1-4.3.1-.4.2-.8.3-1 .1-.3.6-4.4 1.3-9.7.3-2.5.8-5.6 1-7 3.6-21.4 4.2-78.3 1-99-.8-5.3-1.7-13.2-1.8-16.3 0-1.5-.3-2.7-.6-2.7s-.6-.8-.6-1.8c-.1-1.5-.7-5.3-1.9-12.2-.6-3.3-1.1-5.5-2.5-11.5-2.5-10.9-2.8-12-3-12-.1 0-.3-.9-.5-2-.8-4.5-7.9-27.8-10.2-33.5-.4-.8-.7-1.7-.8-2-1.9-8-19.4-45.9-28.8-62.5-5.6-10-19.7-31.9-20.9-32.3-.4-.2-.8-1-.8-1.8s-.4-1.4-.8-1.4-1.5-1.2-2.4-2.8c-1.8-3-4.5-6.6-6.8-9.1-.8-.9-2.6-3.2-4-5.1-1.3-1.9-2.7-3.7-3-4-.3-.3-2.8-3.2-5.5-6.5-8.9-10.7-25.9-28.1-37.6-38.5-3.4-3-7.1-6.4-8.3-7.5-1.2-1.1-5.1-4.2-8.6-7-3.6-2.7-6.7-5.2-7-5.5-.3-.3-3.4-2.7-7-5.3-3.6-2.6-7-5.1-7.6-5.6-3.1-2.6-27.1-17.7-35.4-22.3-5.5-3.1-22.6-11.6-30-15-3-1.4-7.6-3.5-10.1-4.6-2.5-1.2-5-2.2-5.4-2.2-.4 0-2.1-.6-3.8-1.4-6.7-2.9-17.2-6.8-18.9-6.9-1-.1-1.8-.5-1.8-.9s-.3-.7-.7-.6c-.8.1-11.2-2.7-14.3-3.9-.8-.3-2-.7-2.7-.9-.6-.1-2.7-.7-4.5-1.3-1.8-.6-4.4-1.3-5.8-1.5-2.1-.4-8.2-1.8-18.5-4.2-2.2-.5-5.1-1-10.5-1.9-1.9-.3-4.2-.8-5.1-1.1-.9-.2-3.6-.7-6-.9-7-.7-13.1-1.5-17.4-2.1-2.2-.3-6.7-.8-10-1-6.7-.6-55.2-1.3-55.7-.9zm51.2 80.9c8.1.8 21.4 2.6 24 3.1 1.4.3 4.3.8 6.5 1.1 2.2.3 6.7 1.2 10 2.1 3.3.8 6.9 1.6 8 1.7 1.1.2 4.7 1.1 8 2.1 3.3.9 6.5 1.8 7.2 1.9.7.1 1.6.5 1.9.9.4.4 1.7.7 2.9.7s2.5.3 2.9.7c.4.5 1.1.8 1.4.8 1.6.1 11.8 3.8 12.7 4.6.5.5 1.7.9 2.7.9 1.1 0 3.3.8 5.1 1.7 1.8.9 3.7 1.8 4.2 1.9 1.1.2 12 5 14.5 6.4.8.5 6.6 3.4 12.8 6.6 6.1 3.2 11.2 6.1 11.2 6.6 0 .4.6.8 1.3.8 3.1 0 35.6 23.2 49.3 35.2 11.3 9.9 31.9 31.5 39.6 41.3 1.2 1.7 3.1 3.9 4 4.9 1 1.1 3 3.8 4.5 6 1.5 2.3 3.7 5.3 4.8 6.7 5.3 6.9 25.7 41 26.1 43.9 0 .3 1.5 3.6 3.3 7.5 3.8 7.9 10.2 24 12.1 30 .7 2.2 1.7 4.9 2.1 6 1.1 2.5 6.6 22.4 7.3 26.2.2 1.5.7 3.9 1.1 5.3.8 3.3 3 15.4 4 21.5 1.6 10.3 2.5 19.9 2.9 32.2.1 4.5.5 8.5.9 8.9.3.4.4 1.1 0 1.7-.9 1.5-.9 6.8 0 7.4.4.2.4.9.1 1.5-.4.6-.8 5.5-1 10.9-.2 9-1 19.8-1.9 25.9-.2 1.4-.6 4.3-1 6.5-.3 2.2-1 6.5-1.5 9.5s-1.2 7-1.5 8.9c-.3 1.9-.8 3.8-1.1 4.3-.3.5-.7 1.9-.9 3.1-.7 4.9-1.7 10.2-2.1 10.9-.3.4-1.8 5.2-3.4 10.6-3.7 12.6-11.5 33.5-13.6 36.7-.9 1.4-1.4 2.5-1.1 2.5.7 0-11.2 24.1-12.2 25-.3.3-1.4 2.1-2.4 4-3.5 6.5-5.2 9.5-6.2 10.6-.5.6-1.9 2.7-3 4.7s-2.3 3.7-2.7 3.7c-.5 0-.8.5-.8 1.1 0 1.1-5 8.2-6.2 8.7-.5.2-.8.8-.8 1.4 0 .9-10.5 14.4-18.3 23.5-4.8 5.6-28.5 29.3-29.3 29.3-.4 0-1.4.8-2.3 1.8-2.8 3.2-13.8 11.9-24.3 19.4-5.7 4-10.6 7.6-10.9 8.1-.3.5-1.3.9-2.2 1.1-.9.1-2.4.9-3.4 1.7-4.3 3.7-26.6 15.8-41.3 22.4-3.6 1.6-6.7 3-7 3-.5.2-.9.3-10 4-7 2.9-22.2 7.7-32.5 10.3-17.1 4.4-24.2 5.9-37.8 7.7-2.3.3-5.8.8-7.8 1.1-10.6 1.6-50.8 2.3-64.4 1.1-9.6-.9-27.4-3.2-31.5-4.2-1.4-.3-4.1-.7-6-1-1.9-.2-3.6-.4-3.7-.4-.2-.1-.4-.1-.5 0-.2 0-1.6-.5-3.2-1.1-1.6-.6-4.3-1.3-6.1-1.6-1.8-.3-9.1-2.3-16.2-4.5-16.4-5.1-15.9-4.9-20.8-6.9-1.1-.4-5.8-2.3-10.5-4.1-4.7-1.8-8.7-3.6-8.8-4.1-.2-.4-1-.8-1.7-.8-1.4 0-20.9-9.8-27.5-13.8-1.9-1.2-5.1-3.1-7-4.2-1.9-1.1-4.8-2.9-6.5-4-1.6-1.1-3.7-2.3-4.5-2.7-.8-.4-2.1-1.2-3-1.9-.8-.7-6.5-5-12.6-9.6-22.3-16.6-42.8-36.6-60.9-59.3-2.2-2.8-4.3-5.2-4.7-5.3-.5-.2-.8-.9-.8-1.5 0-.7-1.4-2.7-3-4.6-1.7-1.8-3-3.7-3-4.2 0-.4-.6-1.4-1.3-2.1-2-2.1-10.7-15.7-10.7-16.7 0-.5-.3-1.1-.7-1.3-.5-.2-1.7-2.1-2.8-4.3-1.1-2.2-2.2-4.2-2.6-4.5-1.2-1-15.5-31.3-16.1-34-.2-.8-.6-1.7-.9-2-.7-.5-9.6-25.6-10.4-29.3-.2-1.2-1.6-6.5-3-11.7-1.5-5.2-2.8-10.6-3-12-.2-1.4-.4-2.5-.5-2.5-.3 0-.9-3.8-1.5-8.4-.4-2.5-.8-4.8-1-5.2-.3-.3-.7-3.1-1-6-.4-3-.8-6.8-1.1-8.4-2.5-17-2.5-64.4 0-78.5.3-1.4.7-4.8 1.1-7.5.3-2.8.8-5.9 1.1-7 .3-1.1.7-3.4.9-5 .2-1.7.4-3 .5-3 .1 0 .3-.9.4-2 .2-1.1 1.1-5.4 2-9.6 1-4.2 1.9-8.2 2-9 .2-.8.6-2.1.9-2.9.5-1.3 4.9-15.7 5.2-17 .8-4 9.4-25.7 13.3-33.8 1.7-3.4 2.9-6.2 2.6-6.2-.2 0 1-2.3 2.6-5 1.7-2.8 3-5.4 3-5.7 0-.7 5.4-10 11.4-19.8 1.7-2.8 3.4-5.2 3.8-5.3.5-.2.8-.8.8-1.4 0-1.5 14.1-20.7 23.4-31.8 8.6-10.3 27.9-29.9 36.5-37 3-2.5 6.2-5.2 7-6 .9-.8 3.2-2.6 5.1-3.9 1.9-1.3 4-2.9 4.5-3.5.6-.6 3-2.5 5.5-4.1 2.5-1.7 5.4-3.8 6.4-4.8 1.1-.9 2.5-1.7 3.2-1.7.7 0 1.4-.4 1.6-.9.9-2.6 34.7-21.1 51.9-28.4 10.1-4.3 26.6-10.5 29.9-11.2.8-.2 1.6-.4 1.8-.5.1-.2.7-.4 1.2-.5.6-.1 1.1-.3 1.3-.5.1-.1.9-.3 1.7-.5.8-.1 4.9-1.2 9-2.3 8.1-2.3 30.6-7 37.3-7.8 2.3-.3 5.8-.7 7.7-1 1.9-.3 6.9-.7 11-1 4.1-.3 7.6-.7 7.8-.8.4-.5 44.2.2 49.2.8zM1616.7 568.6c-.2.2-4.4.6-9.3.9-8.4.5-11.8.9-19 2-1.7.2-5.7.7-9 1.1-3.2.3-6.3.8-6.8 1.1-.5.3-2.3.7-4 .9-2.9.3-7.3 1-10.6 1.7-2.7.6-13.5 2.9-15 3.2-.8.2-1.5.4-1.5.5 0 .1-.7.3-1.5.5-.8.1-3.5.8-6 1.6-2.5.7-5.2 1.4-6 1.5-.8.2-5.1 1.5-9.5 2.9-4.4 1.5-8.7 2.8-9.5 3-2.8.6-27.5 10.3-35.5 14-14.3 6.5-15 6.9-15.6 7.8-.3.5-.9.8-1.3.8-.9-.2-12.3 5.7-19.4 10-3.5 2.2-6.6 3.9-6.9 3.9-.2 0-3.1 1.8-6.3 4-3.2 2.2-6.4 4-6.9 4-.6 0-1.1.4-1.1.9s-1 1.3-2.2 1.7c-1.2.3-2.6 1-3.2 1.5-.6.5-2.7 2.3-4.6 3.9-1.9 1.6-3.8 3-4.2 3-.3 0-3.1 2-6.1 4.5-3.1 2.5-6 4.5-6.6 4.5-.6 0-1.1.4-1.1.8 0 .5-1.8 2.1-4.1 3.8-2.2 1.6-5.5 4.2-7.3 5.9-1.7 1.6-5 4.5-7.1 6.4-13.3 11.3-36.8 35.9-47.7 50.1-2.4 3-5 6.3-5.9 7.3-.9 1-3.4 4.3-5.5 7.5-2.1 3.1-4.1 5.9-4.4 6.2-.4.3-1.6 2.2-2.9 4.2-1.2 2.1-2.7 3.8-3.2 3.8-.6 0-.7.4-.4 1 .3.5.1 1-.4 1-.6 0-1.1.5-1.1 1.1 0 .5-1.8 3.7-4 6.9s-4 6.1-4 6.5c0 .3-1.1 2.3-2.5 4.5-3.4 5.4-14.6 26.3-15 28-.1.3-1.8 4.1-3.9 8.5-4.6 9.9-12.1 28.8-14.9 37.5-1.1 3.6-2.3 6.7-2.6 7-.3.3-.6.9-.6 1.5 0 .5-1.5 6.2-3.2 12.5-1.8 6.3-3.4 12.6-3.7 14-.2 1.4-1.1 5.3-2 8.8-1.6 5.8-2.9 13.1-2.9 15.9 0 .7-.3 1.3-.7 1.3-.3 0-.6 1.5-.6 3.2-.1 1.8-.4 4.6-.7 6.3-.3 1.6-.8 4.8-1.1 7-.3 2.2-.8 5.8-1 8-1.2 8.5-2.9 39-2.8 47 .1.5.3 7.3.6 15 .6 13.4.8 16.2 2.2 28.5.3 3 .8 7.1.9 9 .2 1.9.4 3.5.5 3.5.1 0 .3 1.6.6 3.5.2 1.9.6 4.4.9 5.6.2 1.2.7 3.9 1 6 .4 2.1.8 5 1.1 6.4.3 1.4.8 3.8 1.1 5.5.3 1.6 1.6 7.3 3 12.5 1.3 5.2 2.6 10.8 2.8 12.3.3 1.6.8 3.4 1.2 4 .4.7.8 1.7.9 2.4.3 1.5 2.3 8.2 3.3 10.8.5 1.1 1.4 3.8 2.1 6 1.9 6.3 8.9 24.3 12.3 32 4.3 9.7 21.4 43.2 22.7 44.5.9.8 6 8.9 6 9.4 0 1.4 20.2 29.5 28.5 39.7 6.7 8.2 16.2 18.8 23.9 26.8 9.7 10.1 29.5 28.2 34.9 32 1.1.8 2.9 2.2 3.8 3 5.2 4.7 19.5 15.1 20.7 15.1.7 0 1.2.4 1.2.8 0 .5 2.4 2.3 5.3 4.2 2.8 1.8 7.1 4.5 9.4 6.1 2.3 1.6 4.6 2.9 5.2 2.9.6 0 1.1.4 1.1 1 0 .5.4 1 .9 1s4.2 1.9 8.3 4.3c9.1 5.4 24.9 13.4 34.8 17.7 4.1 1.8 7.8 3.8 8.2 4.4.4.6.8.8.8.4 0-.5 8.5 2.4 16.5 5.7 1.1.5 2.2.9 2.5 1 .3.1 1.2.4 2 .8 2.9 1.1 17.5 5.9 18.5 6.1.6.1 1.6.5 2.3.9.6.5 1.2.6 1.2.3 0-.2 3 .4 6.8 1.5 3.7 1.1 7.8 2.2 9.2 2.5 1.4.3 5.9 1.3 10 2.4 4.1 1 9.1 2.1 11 2.4 1.9.2 4.9.7 6.5 1 7.7 1.5 10.2 1.9 12.5 2.2 9.3 1.1 13.7 1.6 15.5 2 11.8 2.4 71.7 2.3 87.5-.1 1.4-.2 5-.6 8-1 3-.3 8.2-1.1 11.5-1.7 3.3-.5 6.9-1.2 8-1.3 1.1-.2 3.6-.7 5.5-1 1.9-.3 7.6-1.5 12.5-2.6 5-1.2 9.7-2.2 10.6-2.4 3.1-.6 16.4-4.6 28.9-8.7 11.7-3.8 14.6-4.8 22.8-8.4 1.8-.8 3.9-1.4 4.7-1.4.8 0 1.5-.4 1.5-.8 0-.5.6-.9 1.3-.9 2 0 32.1-14.9 43.6-21.5 12.9-7.5 43.1-27.8 43.1-28.9 0-.5.6-.9 1.4-.9.8 0 1.6-.4 1.8-.8.2-.5 2.6-2.6 5.3-4.7 2.8-2 5.7-4.5 6.6-5.4.9-.9 3.5-3.1 5.8-5 2.3-1.8 7.1-6.1 10.7-9.5 3.5-3.3 7.9-7.5 9.6-9.2 4.8-4.5 19.8-20.8 26.6-29.1 10.2-12.2 26.9-35.2 30.1-41.6.8-1.5 1.8-2.7 2.3-2.7.4 0 .8-.4.8-.9 0-.7 4.7-9.1 9-16.1.5-.8 2.8-5.1 5-9.4 2.2-4.4 4.5-8.5 5-9.1.6-.7.7-1.5.3-1.8-.3-.4-.1-.7.5-.7.7 0 1.2-.5 1.2-1.1 0-.5 1-3.1 2.2-5.7 1.2-2.6 2.3-4.9 2.3-5.2.1-.3 1.3-3 2.7-6.2 2.2-4.7 3.7-8.6 4.3-10.8.2-.5 1-2.6 3.2-8 1.6-3.7 5.3-14.5 5.9-17 .2-.8 1.7-6 3.3-11.6 1.7-5.5 3.3-11.1 3.5-12.5.3-1.3.5-2.5.7-2.7.2-.2.3-.6 1.2-5.4.5-2.1.7-3.9.7-4-.1-.2.3-1.5.9-3 .6-1.5 1.3-4.9 1.7-7.5.3-2.7 1-6.8 1.6-9.3.6-2.5 1.2-6.3 1.4-8.5.5-5.9 1.4-12.7 1.9-15.1 2.6-11.7 2.5-73.5-.1-90-.5-3.2-.8-5.8-1.9-15.8-.3-3.3-.9-6.4-1.1-6.8-.3-.5-.8-2.5-1-4.6-.2-2-.6-4.8-.9-6.2-.3-1.4-.7-3.4-.9-4.5-.3-1.1-1.2-4.9-2.1-8.5-.9-3.6-1.8-8.1-2.1-10-.2-1.9-.8-3.7-1.2-4-.4-.3-.7-1-.7-1.5 0-1.7-4.5-17.3-6.1-21-.8-1.9-1.1-3.5-.8-3.5.4 0 .2-.6-.3-1.3-.6-.6-1.6-3-2.3-5.2-3.3-10.3-12.1-30.8-20.3-47-2.8-5.5-5.6-11-6.1-12.2-.6-1.3-1.4-2.3-1.8-2.3-.5 0-.8-.5-.8-1.1 0-2-19.5-33-21.2-33.7-.4-.2-.8-1-.8-1.8s-.4-1.4-.8-1.4-1.5-1.2-2.4-2.8c-.9-1.5-2.6-3.8-3.7-5.2-3-3.6-3.3-4.1-6.6-8.5-1.7-2.2-3.4-4.5-4-5.1-.5-.6-3-3.5-5.5-6.4-9.5-11.2-23.2-25.3-38.1-39.1-6.3-5.8-24.4-20.4-30.9-24.9-1.9-1.3-4-2.9-4.6-3.5-2.6-2.3-30.9-20.5-32-20.5-.2 0-2.2-1.1-4.3-2.4-4.1-2.6-27-14.2-33.6-17.1-2.2-.9-5.8-2.5-8.1-3.6-2.3-1-4.5-1.9-4.9-1.9-.4 0-2.1-.6-3.8-1.4-5.7-2.5-16.5-6.5-18.9-7-1.3-.3-4.8-1.4-7.8-2.5-8.2-2.9-17.4-5.6-18.4-5.3-.4.2-1.4-.2-2-.8-.7-.5-1.6-.7-1.9-.3-.4.3-1.3 0-2.2-.7-.8-.7-1.5-1-1.5-.7 0 .3-1.7.1-3.7-.4-2.1-.5-4.7-1.2-5.8-1.4-2.8-.7-7.7-1.7-9.5-2-.8-.1-2.8-.4-4.5-.8-1.6-.4-4.8-.9-7-1.2-2.3-.3-5.2-.8-6.5-1.1-1.4-.2-4.5-.7-7-.9-2.5-.2-4.5-.4-4.5-.5 0-.1-1.8-.3-4-.5s-6.9-.7-10.5-1c-6.8-.8-56.7-1.5-57.3-.9zm51.8 80.7c2.2.3 6.9.9 10.5 1.3 3.6.4 7.6.8 9 1 1.4.1 5 .7 8 1.3 3 .7 6.9 1.4 8.5 1.7 1.7.3 4.8 1 7 1.6 2.2.5 4.9 1.1 6 1.3 1.1.1 4.7 1 8 2 3.3.9 6.5 1.8 7.2 1.9.7.1 1.6.5 1.9.9.4.4 1.7.7 2.9.7s2.5.3 2.9.7c.3.4 1.2.8 1.9.9 2.5.4 25 9 28.2 10.7 1.1.6 2.2 1.2 2.5 1.2.3 0 1.5.6 2.8 1.3 1.2.7 2.2 1 2.2.6 0-.3.6-.2 1.3.4.6.5 5.9 3.4 11.7 6.4 11.9 6.2 18.5 10.1 27.2 15.8 3.2 2.2 6.2 4 6.4 4 .3 0 1.1.6 1.9 1.2.7.7 4.9 4 9.4 7.2 4.5 3.3 8.1 6.3 8.1 6.8 0 .4.5.8 1.1.8 2.3 0 32.5 28.4 40.9 38.5 1.4 1.7 4.8 5.8 7.7 9.2 2.9 3.4 5.3 6.4 5.3 6.7 0 .2 1.3 1.9 2.9 3.6 1.6 1.8 3.5 4.4 4.2 5.8.8 1.5 2.2 3.4 3.1 4.3 1 .9 1.8 1.9 1.8 2.2 0 .3 1.8 3.2 3.9 6.4 9.1 13.7 28 49.7 28.1 53.5 0 .7.7 2.2 1.5 3.2.8 1.1 1.5 2.9 1.5 4.1 0 1.2.4 2.5.9 3.1 2.7 2.9 15.8 49.4 14.5 51.5-.2.4 0 1 .5 1.4.5.3.8 1.4.6 2.5-.2 1.1 0 2.2.5 2.5.5.3.7 1.2.4 1.9-.3.8 0 1.7.5 2.1.6.3.9 1 .6 1.5-.3.5-.1 4 .5 7.9 1.6 11.5 3.3 34.8 3.1 43.6-.2 11.5-1.7 34.6-2.5 39-.3 1.6-.8 5.2-1.1 8-1.1 8.3-1.3 10-1.5 10-.2 0-.9 3.4-1.4 7.7-.3 2-.9 4.6-1.5 5.6-.6 1.1-.8 2.1-.6 2.4.3.3-.2 2.7-1 5.4s-1.5 5.1-1.5 5.4c0 .3-.5 2.3-1.1 4.5-.6 2.2-1.3 4.7-1.4 5.5-.2.8-.4 1.6-.5 1.7-.2.2-.4.7-.5 1.3-.1.5-.4 1.2-.5 1.5-.1.3-.3.8-.4 1.2-.1.5-1.3 3.9-2.6 7.8-1.3 3.8-2.5 7.2-2.5 7.5-.1.3-.5 1.2-.8 2-1 2.3-2.4 6.4-2.6 7.2-.1.4-1.3 2.8-2.6 5.3-1.4 2.5-2.3 4.5-2.1 4.5.3 0-1.7 4.4-4.4 9.7-2.8 5.4-5 10.3-5 11 0 .6-.4 1.3-.8 1.5-.4.1-2.3 3-4.1 6.3-3.2 5.8-14.5 23.6-16.6 26.3-.5.7-1.6 1.9-2.3 2.7-.7.8-1.1 1.5-.7 1.5.4 0 0 .6-.7 1.4-2.9 3-4.8 5.7-4.8 6.6 0 .6-.3 1-.8 1-.4 0-2.7 2.6-5.2 5.7-10.5 13.5-38.5 41.4-48.3 48.2-1.2.8-2.7 2-3.3 2.6-.6.5-2.4 2-4 3.2-1.6 1.2-5 3.7-7.6 5.7-2.7 2-4.8 3.4-4.8 3.1 0-.4-.9.2-6.2 4.7-1.1 1-2.4 1.5-2.9 1.3-.4-.3-1.1-.1-1.4.5-1.7 2.8-38.7 23-42.1 23-.8 0-1.4.4-1.4 1 0 .5-.6 1-1.2 1-.7 0-6.1 2-12 4.4-6 2.4-10.8 4.2-10.8 3.9 0-.3-.7 0-1.5.7s-1.5.9-1.5.5-.7-.2-1.5.5-1.5 1-1.5.7c0-.3-1.6.1-3.5.9s-3.5 1.2-3.5.9c0-.3-1.2.1-2.7.8-2.4 1.2-8.5 3-14.4 4.1-7.7 1.5-9.5 1.9-10.3 2.4-.6.3-2.4.7-4 .8-1.7.2-4.2.6-5.6.9-2.5.6-4.7.9-12.3 2-2.3.3-6.2.8-8.7 1.2-2.5.3-7 .7-10 .9-3 .1-5.5.3-5.5.4 0 .5-42 .6-42.9.2-.5-.3-3.7-.7-7-.8-7.7-.4-24.5-2.7-30.6-4.1-.8-.2-3.1-.5-5-.8-1.9-.2-3.5-.4-3.5-.5 0-.1-1.1-.3-2.5-.6-1.4-.2-3.2-.7-4-1.1-.8-.3-2.2-.7-3-.8-3.1-.3-23.8-6.3-25.5-7.3-.5-.4-1.9-.8-2.9-.9-3.1-.5-28.1-10.5-28.4-11.5-.2-.4-1-.8-1.7-.8-2.5 0-38.3-19.3-43-23.3-.9-.7-3.6-2.5-9-5.9-1.1-.7-2.2-1.5-2.5-1.8-.3-.3-4.3-3.4-9-6.9-12.4-9.5-20.1-16.2-32.5-28.6-11.5-11.6-18.3-19.2-28.8-32.5-4.1-5.1-13.7-19.2-13.7-20 0-.6-.4-1-.8-1-.5 0-1.4-1-2-2.3-.6-1.2-2.5-4.5-4.2-7.2-1.7-2.8-3.3-5.7-3.7-6.5-.4-.8-.9-1.7-1.3-2-.7-.6-16-31.4-16-32.3 0-.3-.5-1.8-1.2-3.4-.6-1.5-1.2-3-1.3-3.3-.1-.3-.7-1.9-1.4-3.5-3.4-7.8-12.2-36.3-13.6-43.7-.3-1.3-.9-4.6-1.5-7.3-1.1-5.6-1.4-7-2.5-13.5-1.1-6-1.2-6.6-1.9-13.5-.4-3.3-.9-7.6-1.1-9.5-.3-1.9-.7-8.7-.9-15.2-.2-6.4-.7-12.1-1-12.7-.4-.6-.3-1.1.1-1.1.5 0 .8-1.5.6-3.3-.7-5.9.6-28.1 2.2-38.2.3-1.7.7-4.8 1-7 .3-2.2 1.3-8.1 2.2-13 .9-5 1.6-9.8 1.7-10.8 0-.9.3-1.7.6-1.7.4 0 .7-.6.7-1.3.3-7.9 12.4-44.1 20.6-61.7 1.2-2.5 2.1-4.7 2.2-5 .2-1 4.9-9.9 10.9-20.3 3.3-5.9 6.7-12 7.5-13.5.8-1.5 1.7-2.9 2.1-3.2.4-.3 1.9-2.5 3.5-4.9 1.5-2.5 3.2-4.9 3.7-5.5.5-.6 2.7-3.6 4.9-6.6 6.6-9.1 8.2-11.2 12.3-15.9 2.2-2.5 4.7-5.5 5.5-6.5 2.5-3.1 26.2-26.7 30.6-30.5 9.8-8.4 27.7-22.1 33.4-25.6.9-.5 3-2 4.8-3.2 1.7-1.3 3.6-2.3 4.2-2.3.6 0 1.1-.5 1.1-1.1 0-.5.4-.8.9-.5.5.4 1.1.3 1.3-.2.6-1.4 15.9-9.9 29.2-16.2 13.1-6.2 35.9-15.2 41.9-16.6.4-.1.9-.3 1.2-.4.3-.1 1-.4 1.5-.5.6-.1 1.1-.3 1.3-.5.1-.1.9-.3 1.7-.5.8-.2 4.9-1.2 9-2.4 4.1-1.1 8.6-2.3 10-2.6 18-3.8 31.7-5.9 46-7.1 4.7-.3 8.6-.7 8.8-.9.5-.4 43.8.3 47.7.8zM779.4 1371.2c-9 3.1-15.2 7.9-20.9 16.5-1.9 2.8-3.6 5.9-3.8 7-.1 1-.6 2.4-1.1 3.1-1.5 2.4-1.5 15.1 0 20.8.7 3 2.3 7.3 3.5 9.5 3.3 6.6 43.3 46.9 46.5 46.9.4 0 1.5.6 2.3 1.4.9.8 2.7 1.7 4.1 1.9 1.4.3 3.8 1 5.3 1.6 2 .8 65.8 1.1 216.6 1.1 195.3 0 214.2-.2 218.7-1.6 2.7-.9 5.5-2.1 6.2-2.7.6-.5 1.2-.6 1.2-.3 0 2.2 20.8-17 39.5-36.4 10.9-11.4 14.4-19.2 14-32.3-.2-7.1-.7-9.6-3.3-15.1-4.8-10.3-15.8-19.9-25.4-22.3-4.4-1-16.7-1.2-20.5-.2-9.4 2.6-12.2 4.5-28.5 20.5l-10.6 10.4H840.7l-9.8-9.8c-11.5-11.5-13.6-13.4-18.7-16.6-8.9-5.6-22.2-7-32.8-3.4z"/></svg>