<?xml version="1.0" encoding="utf-8"?>
<!-- Generator: Adobe Illustrator 16.0.0, SVG Export Plug-In . SVG Version: 6.00 Build 0)  -->
<svg version="1.2" baseProfile="tiny" id="Layer_1" xmlns="http://www.w3.org/2000/svg" xmlns:xlink="http://www.w3.org/1999/xlink"
	 x="0px" y="0px" width="284.801px" height="252.01px" viewBox="0 0 284.801 252.01" xml:space="preserve">
<g>
	<path fill="#695434" d="M46.875,179.885c0,1.251-0.625,1.877-1.875,1.877s-1.875-0.625-1.875-1.877v-13.14
		c0-2.069-0.733-3.837-2.2-5.306s-3.233-2.203-5.3-2.203s-3.834,0.734-5.3,2.203c-1.467,1.468-2.2,3.237-2.2,5.306v13.14
		c0,1.251-0.625,1.877-1.875,1.877s-1.875-0.625-1.875-1.876v-33.773c0-1.25,0.625-1.876,1.875-1.876s1.875,0.625,1.875,1.875v12.25
		c2.133-1.917,4.633-2.875,7.5-2.875c3.1,0,5.75,1.101,7.95,3.303s3.3,4.854,3.3,7.958V179.885z"/>
	<path fill="#695434" d="M78.75,174.217c0,0.318-0.1,0.66-0.3,1.028c-1.149,2.005-2.875,3.601-5.175,4.788
		c-2.184,1.153-4.475,1.729-6.875,1.729c-3.75,0-6.984-1.243-9.7-3.729c-2.817-2.569-4.226-5.705-4.226-9.409
		c0-3.721,1.408-6.857,4.226-9.409c2.716-2.485,5.95-3.729,9.7-3.729c1.366,0,2.791,0.242,4.275,0.725
		c1.666,0.55,3.324,1.425,4.975,2.625c2.05,1.5,3.074,2.925,3.074,4.275c0,0.667-0.324,1.175-0.975,1.525l-18.949,10.175
		c2.049,2.133,4.582,3.2,7.6,3.2c3.217,0,5.824-1.122,7.824-3.365c0.234-0.301,0.584-0.761,1.051-1.381s0.975-0.929,1.525-0.929
		c0.5,0,0.949,0.188,1.35,0.564S78.75,173.716,78.75,174.217z M74.043,162.399c-2.033-2.108-4.582-3.162-7.646-3.162
		c-2.699,0-5.049,0.874-7.047,2.622c-2.084,1.831-3.125,4.078-3.125,6.742c0,1.065,0.182,2.081,0.543,3.046L74.043,162.399z"/>
	<path fill="#695434" d="M108.05,179.886c0,1.25-0.625,1.876-1.875,1.876c-0.917,0-1.491-0.403-1.726-1.208
		c-0.1-0.353-0.149-1.141-0.149-2.366c-2.267,2.383-4.976,3.575-8.125,3.575c-3.417,0-6.274-1.351-8.575-4.054
		c-2.199-2.585-3.3-5.613-3.3-9.083c0-3.453,1.101-6.481,3.3-9.084c2.301-2.702,5.158-4.054,8.575-4.054
		c3.149,0,5.858,1.184,8.125,3.55v-12.925c0-1.25,0.625-1.875,1.875-1.875s1.875,0.625,1.875,1.876V179.886z M104.3,168.625
		c0.017-2.437-0.708-4.564-2.175-6.384c-1.584-2.002-3.566-3.004-5.95-3.004c-2.366,0-4.342,1.001-5.925,3.004
		c-1.467,1.836-2.2,3.964-2.2,6.384c0,2.437,0.733,4.564,2.2,6.383c1.583,2.003,3.559,3.004,5.925,3.004s4.351-1.001,5.95-3.004
		C103.592,173.189,104.316,171.062,104.3,168.625z"/>
	<path fill="#695434" d="M139.925,157.362c0,1.017-0.534,1.625-1.601,1.825c-0.266,0.066-1.199,0.083-2.799,0.05
		c1.433,1.634,2.149,3.509,2.149,5.625c0,3-1.342,5.425-4.024,7.275c4.183,2.184,6.274,5.384,6.274,9.6c0,3.3-1.399,6.042-4.2,8.225
		c-2.566,2.016-5.541,3.025-8.925,3.025c-3.399,0-6.375-1.009-8.925-3.025c-2.801-2.184-4.2-4.925-4.2-8.225
		c0-1.25,0.625-1.875,1.875-1.875s1.875,0.625,1.875,1.875c0,2.25,1.033,4.091,3.101,5.525c1.85,1.316,3.941,1.975,6.274,1.975
		c2.316,0,4.408-0.659,6.274-1.975c2.066-1.45,3.101-3.292,3.101-5.525c0-2.25-1.034-4.091-3.101-5.525
		c-1.85-1.316-3.941-1.975-6.274-1.975c-2.817,0-5.284-0.841-7.399-2.525c-2.301-1.816-3.459-4.1-3.476-6.85
		c0-2.75,1.158-5.033,3.476-6.85c2.133-1.683,4.6-2.525,7.399-2.525h11.25C139.3,155.487,139.925,156.112,139.925,157.362z
		 M133.925,164.862c0-1.683-0.792-3.083-2.375-4.2c-1.399-0.95-2.983-1.425-4.75-1.425c-1.75,0-3.333,0.475-4.75,1.425
		c-1.583,1.1-2.375,2.5-2.375,4.2c0,1.684,0.792,3.083,2.375,4.2c1.399,0.95,2.983,1.425,4.75,1.425c1.75,0,3.333-0.475,4.75-1.425
		C133.133,167.946,133.925,166.546,133.925,164.862z"/>
	<path fill="#695434" d="M170.55,174.217c0,0.318-0.101,0.66-0.3,1.028c-1.15,2.005-2.875,3.601-5.176,4.788
		c-2.184,1.153-4.475,1.729-6.875,1.729c-3.75,0-6.982-1.243-9.699-3.729c-2.816-2.569-4.225-5.705-4.225-9.409
		c0-3.721,1.408-6.857,4.225-9.409c2.717-2.485,5.949-3.729,9.699-3.729c1.367,0,2.792,0.242,4.275,0.725
		c1.666,0.55,3.325,1.425,4.975,2.625c2.051,1.5,3.076,2.925,3.076,4.275c0,0.667-0.326,1.175-0.976,1.525l-18.95,10.175
		c2.051,2.133,4.584,3.2,7.6,3.2c3.217,0,5.826-1.122,7.826-3.365c0.232-0.301,0.582-0.761,1.049-1.381s0.976-0.929,1.525-0.929
		c0.5,0,0.95,0.188,1.35,0.564C170.35,173.277,170.55,173.716,170.55,174.217z M165.843,162.399
		c-2.032-2.108-4.581-3.162-7.647-3.162c-2.699,0-5.047,0.874-7.047,2.622c-2.082,1.831-3.123,4.078-3.123,6.742
		c0,1.065,0.18,2.081,0.541,3.046L165.843,162.399z"/>
	<path fill="#695434" d="M199.875,179.885c0,1.251-0.625,1.877-1.875,1.877s-1.875-0.625-1.875-1.877v-13.14
		c0-2.069-0.733-3.837-2.2-5.306s-3.233-2.203-5.3-2.203s-3.834,0.734-5.3,2.203c-1.467,1.468-2.2,3.237-2.2,5.306v13.14
		c0,1.251-0.625,1.877-1.875,1.877s-1.875-0.625-1.875-1.876v-33.773c0-1.25,0.625-1.876,1.875-1.876s1.875,0.625,1.875,1.875v12.25
		c2.133-1.917,4.633-2.875,7.5-2.875c3.1,0,5.75,1.101,7.95,3.303s3.3,4.854,3.3,7.958V179.885z"/>
	<path fill="#695434" d="M231.725,168.625c0,3.62-1.283,6.715-3.85,9.284c-2.566,2.569-5.658,3.854-9.275,3.854
		c-3.616,0-6.708-1.284-9.274-3.854c-2.567-2.569-3.851-5.664-3.851-9.284s1.283-6.715,3.851-9.284
		c2.566-2.569,5.658-3.854,9.274-3.854c3.617,0,6.709,1.285,9.275,3.854C230.441,161.91,231.725,165.005,231.725,168.625z
		 M227.975,168.625c0-2.587-0.916-4.798-2.75-6.634c-1.833-1.836-4.041-2.754-6.625-2.754c-2.583,0-4.791,0.918-6.625,2.754
		c-1.833,1.836-2.75,4.047-2.75,6.634c0,2.586,0.917,4.798,2.75,6.634c1.834,1.836,4.042,2.753,6.625,2.753
		c2.584,0,4.792-0.917,6.625-2.753C227.059,173.423,227.975,171.211,227.975,168.625z"/>
	<path fill="#695434" d="M262.325,157.362c0,1.017-0.534,1.625-1.601,1.825c-0.266,0.066-1.199,0.083-2.799,0.05
		c1.433,1.634,2.149,3.509,2.149,5.625c0,3-1.342,5.425-4.024,7.275c4.183,2.184,6.274,5.384,6.274,9.6c0,3.3-1.399,6.042-4.2,8.225
		c-2.566,2.016-5.541,3.025-8.925,3.025c-3.399,0-6.375-1.009-8.925-3.025c-2.801-2.184-4.2-4.925-4.2-8.225
		c0-1.25,0.625-1.875,1.875-1.875s1.875,0.625,1.875,1.875c0,2.25,1.033,4.091,3.101,5.525c1.85,1.316,3.941,1.975,6.274,1.975
		c2.316,0,4.408-0.659,6.274-1.975c2.066-1.45,3.101-3.292,3.101-5.525c0-2.25-1.034-4.091-3.101-5.525
		c-1.85-1.316-3.941-1.975-6.274-1.975c-2.817,0-5.284-0.841-7.399-2.525c-2.301-1.816-3.459-4.1-3.476-6.85
		c0-2.75,1.158-5.033,3.476-6.85c2.133-1.683,4.6-2.525,7.399-2.525h11.25C261.7,155.487,262.325,156.112,262.325,157.362z
		 M256.325,164.862c0-1.683-0.792-3.083-2.375-4.2c-1.399-0.95-2.983-1.425-4.75-1.425c-1.75,0-3.333,0.475-4.75,1.425
		c-1.583,1.1-2.375,2.5-2.375,4.2c0,1.684,0.792,3.083,2.375,4.2c1.399,0.95,2.983,1.425,4.75,1.425c1.75,0,3.333-0.475,4.75-1.425
		C255.533,167.946,256.325,166.546,256.325,164.862z"/>
	<path fill="#695434" d="M50.551,208.612c0,0.5-0.192,0.946-0.575,1.337c-0.384,0.392-0.825,0.587-1.325,0.587
		c-0.35,0-0.759-0.15-1.225-0.45c-2.684-1.9-5.384-2.85-8.101-2.85c-2.866,0-5.417,0.835-7.649,2.503
		c-2.434,1.819-3.65,4.114-3.65,6.884c0,2.77,1.217,5.065,3.65,6.884c2.199,1.669,4.75,2.503,7.649,2.503
		c2.7,0,5.4-0.94,8.101-2.821c0.449-0.319,0.85-0.487,1.199-0.504c0.5,0,0.946,0.192,1.338,0.577
		c0.392,0.385,0.588,0.836,0.588,1.355c0,0.485-0.234,0.953-0.7,1.405c-1.167,1.154-2.8,2.083-4.9,2.785
		c-1.917,0.636-3.792,0.954-5.625,0.954c-3.934,0-7.366-1.192-10.3-3.579c-3.167-2.535-4.75-5.722-4.75-9.559
		s1.583-7.023,4.75-9.559c2.95-2.386,6.383-3.579,10.3-3.579c1.833,0,3.708,0.317,5.625,0.95c2.116,0.7,3.759,1.633,4.925,2.8
		C50.325,207.688,50.551,208.146,50.551,208.612z"/>
	<path fill="#695434" d="M77.551,224.094c0,0.351-0.134,0.736-0.4,1.154c-0.884,1.354-2.2,2.458-3.95,3.311
		c-1.667,0.803-3.35,1.204-5.05,1.204c-3.1,0-5.75-1.1-7.95-3.302s-3.3-4.853-3.3-7.956v-24.392c0-1.25,0.625-1.876,1.875-1.876
		s1.875,0.626,1.875,1.876v24.393c0,2.068,0.733,3.836,2.2,5.304c1.466,1.468,3.233,2.202,5.3,2.202c1.816,0,3.438-0.633,4.862-1.9
		s2.288-1.9,2.588-1.9c0.5,0,0.95,0.188,1.35,0.564C77.351,223.153,77.551,223.592,77.551,224.094z"/>
	<path fill="#695434" d="M108.125,216.625c0,3.62-1.283,6.715-3.85,9.284c-2.566,2.569-5.658,3.854-9.275,3.854
		c-3.616,0-6.708-1.284-9.274-3.854c-2.567-2.569-3.851-5.664-3.851-9.284s1.283-6.715,3.851-9.284
		c2.566-2.569,5.658-3.854,9.274-3.854c3.617,0,6.709,1.285,9.275,3.854C106.842,209.91,108.125,213.005,108.125,216.625z
		 M104.375,216.625c0-2.587-0.916-4.798-2.75-6.634c-1.833-1.836-4.041-2.754-6.625-2.754c-2.583,0-4.791,0.918-6.625,2.754
		c-1.833,1.836-2.75,4.047-2.75,6.634c0,2.586,0.917,4.798,2.75,6.634c1.834,1.836,4.042,2.753,6.625,2.753
		c2.584,0,4.792-0.917,6.625-2.753C103.459,221.423,104.375,219.211,104.375,216.625z"/>
	<path fill="#695434" d="M139.95,208.612c0,0.5-0.192,0.946-0.575,1.337c-0.383,0.392-0.824,0.587-1.324,0.587
		c-0.351,0-0.76-0.15-1.226-0.45c-2.684-1.9-5.384-2.85-8.101-2.85c-2.866,0-5.416,0.835-7.649,2.503
		c-2.434,1.819-3.649,4.114-3.649,6.884c0,2.77,1.216,5.065,3.649,6.884c2.2,1.669,4.75,2.503,7.649,2.503
		c2.701,0,5.4-0.94,8.101-2.821c0.45-0.319,0.851-0.487,1.2-0.504c0.5,0,0.945,0.192,1.338,0.577
		c0.391,0.385,0.587,0.836,0.587,1.355c0,0.485-0.233,0.953-0.7,1.405c-1.166,1.154-2.8,2.083-4.9,2.785
		c-1.916,0.636-3.791,0.954-5.625,0.954c-3.934,0-7.366-1.192-10.299-3.579c-3.168-2.535-4.75-5.722-4.75-9.559
		s1.582-7.023,4.75-9.559c2.949-2.386,6.383-3.579,10.299-3.579c1.834,0,3.709,0.317,5.625,0.95c2.117,0.7,3.759,1.633,4.926,2.8
		C139.725,207.688,139.95,208.146,139.95,208.612z"/>
	<path fill="#695434" d="M170.551,227.811c0,0.5-0.192,0.951-0.575,1.351c-0.384,0.4-0.817,0.6-1.3,0.6
		c-0.384,0-0.75-0.116-1.101-0.35l-16-11.1c-0.634-0.416-0.983-0.867-1.05-1.35v10.921c0,1.252-0.625,1.878-1.875,1.878
		s-1.875-0.625-1.875-1.876v-33.773c0-1.25,0.625-1.876,1.875-1.876s1.875,0.625,1.875,1.875v22.15
		c0.083-0.485,0.432-0.936,1.047-1.354l16.002-11.098c0.35-0.215,0.717-0.323,1.101-0.323c0.5,0,0.938,0.199,1.313,0.596
		c0.375,0.397,0.563,0.844,0.563,1.34c0,0.629-0.275,1.125-0.825,1.489l-14.023,9.7l14.024,9.699
		C170.275,226.678,170.551,227.178,170.551,227.811z"/>
</g>
<g>
	<path fill="#E8B972" d="M46.7,53.75c-14.083,0-25.5,11.417-25.5,25.5c0,14.084,11.417,25.5,25.5,25.5s25.5-11.416,25.5-25.5
		C72.2,65.167,60.783,53.75,46.7,53.75z M46.7,99.75c-11.304,0-20.5-9.196-20.5-20.5s9.196-20.5,20.5-20.5s20.5,9.196,20.5,20.5
		S58.004,99.75,46.7,99.75z"/>
	<path fill="#E8B972" d="M123.701,53.75c-14.084,0-25.501,11.417-25.501,25.5c0,14.084,11.417,25.5,25.501,25.5
		c14.082,0,25.5-11.416,25.5-25.5C149.201,65.167,137.783,53.75,123.701,53.75z M123.701,99.75c-11.305,0-20.501-9.196-20.501-20.5
		s9.196-20.5,20.501-20.5c11.303,0,20.5,9.196,20.5,20.5S135.004,99.75,123.701,99.75z"/>
	<path fill="#E8B972" d="M98.933,104.482l-1.268,1.268H73.736l-1.269-1.268c-0.976-0.977-2.56-0.977-3.535,0
		c-0.977,0.977-0.977,2.559,0,3.535l2,2c0.469,0.469,1.104,0.732,1.768,0.732h26c0.663,0,1.299-0.264,1.768-0.732l2-2
		c0.977-0.977,0.977-2.559,0-3.535S99.909,103.506,98.933,104.482z"/>
	<path fill="#E8B972" d="M75.7,36v5c0,1.381,1.119,2.5,2.5,2.5s2.5-1.119,2.5-2.5v-5c0-5.866-5.146-11.182-5.732-11.768
		l-3.535,3.535C72.539,28.875,75.7,32.764,75.7,36z"/>
	<path fill="#E8B972" d="M63.433,32.768C64.539,33.875,67.7,37.764,67.7,41c0,1.381,1.119,2.5,2.5,2.5s2.5-1.119,2.5-2.5
		c0-5.866-5.146-11.182-5.732-11.768l-1.414,1.414l-4-4l-0.707,0.707l4,4L63.433,32.768z"/>
	<path fill="#E8B972" d="M99.7,41c0,1.381,1.119,2.5,2.5,2.5s2.5-1.119,2.5-2.5c0-2.014,1.376-2.472,2.5-2.5v-2h6v-1h-6v-2
		C104.186,33.5,99.7,35.497,99.7,41z"/>
	
		<rect x="68.372" y="23.499" transform="matrix(0.7071 0.7071 -0.7071 0.7071 37.8239 -43.317)" fill="#E8B972" width="5.657" height="1"/>
	<path fill="#E8B972" d="M86.2,43.5c1.381,0,2.5-1.119,2.5-2.5V26h-2v-6h-1v6h-2v15C83.7,42.381,84.819,43.5,86.2,43.5z"/>
	<path fill="#E8B972" d="M94.2,43.5c1.381,0,2.5-1.119,2.5-2.5v-5c0-3.226,3.083-7.039,4.268-8.232l-1.414-1.414l4-4.001
		l-0.707-0.707l-4,4.001l-1.414-1.414C96.846,24.818,91.7,30.134,91.7,36v5C91.7,42.381,92.819,43.5,94.2,43.5z"/>
	<path fill="#E8B972" d="M94.538,94.554l-6.339-6.339V74.25c0-1.381-1.119-2.5-2.5-2.5s-2.5,1.119-2.5,2.5v15
		c0,0.164,0.018,0.328,0.049,0.489c0.016,0.075,0.043,0.145,0.064,0.217c0.025,0.084,0.044,0.168,0.078,0.25
		c0.035,0.086,0.084,0.165,0.129,0.246c0.034,0.062,0.061,0.125,0.1,0.184c0.093,0.138,0.197,0.268,0.315,0.384l7.068,7.069
		c0.488,0.488,1.128,0.732,1.768,0.732s1.279-0.244,1.768-0.732C95.515,97.113,95.515,95.53,94.538,94.554z"/>
</g>
</svg>
