<?xml version="1.0" encoding="UTF-8" standalone="no"?>
<!-- Generator: Gravit.io -->
<svg xmlns="http://www.w3.org/2000/svg" xmlns:xlink="http://www.w3.org/1999/xlink" style="isolation:isolate" viewBox="896 752.804 159.753 113.409" width="159.753" height="113.409"><path d=" M 987.109 782.171 C 988.832 782.171 990.229 780.773 990.229 779.047 C 990.229 779.047 990.229 772.799 990.229 772.799 C 990.229 768.767 994.076 764.002 995.555 762.511 Q 995.555 762.511 993.791 760.744 L 998.783 755.744 L 997.899 754.861 L 992.907 759.86 Q 991.142 758.093 991.142 758.093 C 990.411 758.825 983.988 765.468 983.988 772.799 C 983.988 772.799 983.988 779.047 983.988 779.047 C 983.988 780.773 985.385 782.171 987.109 782.171 M 977.124 782.171 C 978.848 782.171 980.244 780.773 980.244 779.047 Q 980.244 779.047 980.244 760.302 L 977.748 760.302 L 977.748 752.804 L 976.5 752.804 L 976.5 760.302 L 974.004 760.302 Q 974.004 779.047 974.004 779.047 C 974.004 780.773 975.4 782.171 977.124 782.171 M 961.34 759.859 L 956.348 754.86 L 955.466 755.744 L 960.458 760.742 L 961.34 759.859 Z  M 993.973 779.047 C 993.973 780.773 995.369 782.171 997.093 782.171 C 998.817 782.171 1000.213 780.773 1000.213 779.047 C 1000.213 776.53 1001.931 775.958 1003.333 775.923 Q 1003.333 775.923 1003.333 773.424 L 1010.822 773.424 L 1010.822 772.174 L 1003.333 772.174 Q 1003.333 769.675 1003.333 769.675 C 999.57 769.675 993.973 772.17 993.973 779.047 M 948.709 768.759 C 950.089 770.143 954.035 775.003 954.035 779.047 C 954.035 780.772 955.432 782.171 957.156 782.171 C 958.879 782.171 960.276 780.772 960.276 779.047 C 960.276 771.716 953.853 765.074 953.121 764.342 Q 953.121 764.342 951.356 766.109 L 946.364 761.11 L 945.481 761.994 L 950.473 766.992 Q 948.709 768.759 948.709 768.759 Z  M 964.019 772.799 Q 964.019 779.047 964.019 779.047 C 964.019 780.773 965.416 782.171 967.14 782.171 C 968.863 782.171 970.26 780.773 970.26 779.047 C 970.26 779.047 970.26 772.799 970.26 772.799 C 970.26 765.468 963.837 758.825 963.106 758.093 C 963.106 758.093 958.693 762.511 958.693 762.511 C 960.074 763.895 964.019 768.755 964.019 772.799 M 993.015 858.38 L 991.432 859.964 L 961.569 859.964 Q 959.985 858.38 959.985 858.38 C 958.768 857.159 956.791 857.159 955.573 858.38 C 954.355 859.601 954.354 861.578 955.573 862.797 C 955.573 862.797 958.069 865.297 958.069 865.297 C 958.654 865.883 959.447 866.213 960.276 866.213 C 960.276 866.213 992.725 866.213 992.725 866.213 C 993.553 866.213 994.345 865.883 994.931 865.297 C 994.931 865.297 997.427 862.797 997.427 862.797 C 998.646 861.578 998.646 859.601 997.427 858.38 C 996.207 857.159 994.234 857.159 993.015 858.38 M 927.826 794.981 C 910.249 794.981 896 809.248 896 826.847 C 896 844.446 910.249 858.714 927.826 858.714 C 945.402 858.714 959.651 844.448 959.651 826.847 C 959.651 809.247 945.402 794.981 927.826 794.981 M 927.827 852.467 C 913.719 852.467 902.242 840.975 902.242 826.849 C 902.242 812.722 913.719 801.23 927.827 801.23 C 941.935 801.23 953.412 812.722 953.412 826.849 C 953.412 840.975 941.935 852.467 927.827 852.467 M 927.826 794.981 Z  M 1023.928 794.981 C 1006.35 794.981 992.101 809.248 992.101 826.847 C 992.101 844.446 1006.35 858.714 1023.928 858.714 C 1041.505 858.714 1055.753 844.448 1055.753 826.847 C 1055.753 809.247 1041.503 794.981 1023.928 794.981 Z  M 1023.929 852.467 C 1009.82 852.467 998.342 840.975 998.342 826.849 C 998.342 812.722 1009.82 801.23 1023.929 801.23 C 1038.038 801.23 1049.514 812.722 1049.514 826.849 C 1049.514 840.975 1038.036 852.467 1023.929 852.467 Z " fill-rule="evenodd" fill="rgb(74, 74, 74)"/></svg>