<?xml version="1.0" encoding="utf-8"?>
<!-- Generator: Adobe Illustrator 22.0.1, SVG Export Plug-In . SVG Version: 6.00 Build 0)  -->
<svg version="1.1" id="Layer_1" xmlns="http://www.w3.org/2000/svg" xmlns:xlink="http://www.w3.org/1999/xlink" x="0px" y="0px"
	 viewBox="0 0 97.8 28.5" style="enable-background:new 0 0 97.8 28.5;" xml:space="preserve">
<style type="text/css">
	.st0{fill:#4A4A4A;}
</style>
<g>
	<path class="st0" d="M13.4,27.6L0,20.9v-7.5l13-13l13.9,3.5v17L13.4,27.6z M2.8,19.1l10.6,5.3L24,19.1v-13L13.9,3.6l-11,11V19.1z"
		/>
</g>
<g>
	<path class="st0" d="M44,9.4c0-2.5,1.8-4.2,3.7-4.2c1,0,1.6,0.4,2.3,1L50,4.7v-4h2.1v12.7h-1.7l-0.1-0.9h-0.1
		c-0.6,0.6-1.5,1.1-2.5,1.1C45.4,13.6,44,12,44,9.4z M50,10.9V7.6c-0.6-0.5-1.2-0.7-1.8-0.7c-1.1,0-2.1,1-2.1,2.5
		c0,1.6,0.7,2.6,2,2.6C48.8,11.9,49.4,11.6,50,10.9z M47.2,2.2h6.1v1l-1.4,0.1h-4.8V2.2z"/>
	<path class="st0" d="M54.1,2.6c0-0.8,0.6-1.5,1.4-1.5S57,1.7,57,2.6c0,0.9-0.6,1.5-1.4,1.5S54.1,3.4,54.1,2.6z M54.5,11.2l0.3-5.9
		h1.5l0.3,5.9l0.1,2.1h-2.3L54.5,11.2z"/>
	<path class="st0" d="M65,13.4V12h-0.1c-0.6,0.5-1.6,1.2-2.9,1.2c-2.3,0-3.9-1.5-3.9-3.8s1.6-3.8,3.9-3.8c1.3,0,2.4,0.6,2.9,1.2H65
		V5.4h1.6v3.4h-1.4c-0.8-0.8-1.7-1.2-3-1.2c-1.4,0-2.4,0.7-2.4,1.8s1,1.8,2.4,1.8c1.3,0,2.2-0.4,3-1.2h1.4v3.4H65z"/>
	<path class="st0" d="M67.8,2.6c0-0.8,0.6-1.5,1.4-1.5s1.4,0.6,1.4,1.5c0,0.9-0.6,1.5-1.4,1.5S67.8,3.4,67.8,2.6z M68.2,11.2
		l0.3-5.9H70l0.3,5.9l0.1,2.1h-2.3L68.2,11.2z"/>
	<path class="st0" d="M47.3,16.4c1,0,1.9,0.5,2.4,1.6h0.1c0.5-1.2,1.5-1.6,2.5-1.6c2,0,3.2,1.6,3.2,4.6c0,1.9-0.6,3.3-1.5,4.7
		l-1.9-0.7c0.9-1.5,1.3-2.5,1.3-4.1c0-1.9-0.6-2.8-1.4-2.8c-0.8,0-1.3,0.5-1.3,1.9c0,0.8,0.1,1.4,0.2,2.4h-2.2
		c0.1-1,0.2-1.6,0.2-2.4c0-1.4-0.6-1.9-1.4-1.9C46.5,18,46,19,46,20.5c0,1.6,0.5,2.9,1.5,4.3l-1.9,0.8c-0.9-1.3-1.5-3.1-1.5-4.7
		C44,17.9,45.4,16.4,47.3,16.4z"/>
	<path class="st0" d="M56.6,21.1c0-3,1.9-4.7,3.9-4.7c1,0,2,0.6,2.6,2h0.1l0.3-1.8h2.1c-0.5,2.2-1.1,5-1.1,6.5
		c0,0.6,0.4,0.9,0.9,0.9c0.2,0,0.4,0,0.6-0.1l0.3,1.5c-0.3,0.1-0.7,0.3-1.4,0.3c-1.1,0-1.9-0.5-2-1.6h-0.1c-0.6,1.1-1.5,1.6-2.6,1.6
		C58,25.6,56.6,24,56.6,21.1z M62.6,21.6l0.1-1.6c-0.4-1.5-1.1-1.9-1.9-1.9c-1,0-2.1,1-2.1,3c0,1.9,0.7,2.8,1.8,2.8
		C61.5,23.9,62.5,22.9,62.6,21.6z"/>
	<path class="st0" d="M67.5,19.1c0-0.7,0-1.7-0.2-2.6h2.1c0.1,0.5,0.2,1.3,0.2,2.1v2.2h0.1c1.4-2.2,3.1-4.2,5.1-4.5l0.2,1.9
		c-1.4,0.4-2.7,1.5-4.6,3.8c-0.6,0.7-0.8,1.6-0.8,2.8v0.5h-1.9V19.1z M70.7,21.3L72,20c0.9,1.8,2.4,4,3.7,5.4l-2.3,0.2
		C72.5,24.6,71.5,23,70.7,21.3z"/>
	<path class="st0" d="M76,22.9c0-1.2,0.7-1.9,1.8-2.1v-0.1c-0.9-0.3-1.4-1.1-1.4-1.9c0-1.7,1.7-2.5,3.6-2.5c1.1,0,2.1,0.4,3,0.9
		l-0.8,1.4c-0.6-0.4-1.3-0.7-2.1-0.7c-1,0-1.6,0.4-1.6,1.1c0,0.7,0.5,1.1,1.6,1.1c0.4,0,0.7,0,1.2-0.1v1.5c-0.5,0-1-0.1-1.5-0.1
		c-1.2,0-1.7,0.4-1.7,1.2c0,0.8,0.8,1.3,2.1,1.3c0.7,0,1.4-0.2,2.2-0.8l0.8,1.3c-1.1,0.8-2.1,1.1-3.2,1.1C77.7,25.6,76,24.7,76,22.9
		z"/>
	<path class="st0" d="M83.6,20.9c0-2.7,2-4.7,4.6-4.7s4.6,2,4.6,4.7c0,2.7-2,4.7-4.6,4.7S83.6,23.6,83.6,20.9z M91.5,20.9
		c0-2.1-1.4-3.5-3.3-3.5c-1.9,0-3.3,1.4-3.3,3.5s1.4,3.5,3.3,3.5C90.1,24.4,91.5,23,91.5,20.9z M86.3,18.6h2.1
		c1.1,0,1.9,0.5,1.9,1.5c0,0.5-0.3,1-0.8,1.3l1,1.8H89l-0.7-1.4h-0.7v1.4h-1.3V18.6z M88.1,20.8c0.5,0,0.7-0.3,0.7-0.6
		c0-0.3-0.2-0.6-0.7-0.6h-0.5v1.2H88.1z"/>
	<path class="st0" d="M93.5,27.2l0.2-1.4c0.1,0,0.3,0,0.4,0c0.6,0,0.7-0.4,0.7-1.5c0-1.9-0.4-3.3-0.4-5.4c0-1.7,0.4-3,2.4-3
		c0.3,0,0.6,0.1,0.7,0.1l-0.2,1.4c-0.1,0-0.3,0-0.4,0c-0.6,0-0.7,0.4-0.7,1.5c0,1.9,0.4,3.3,0.4,5.4c0,1.7-0.4,3-2.4,3
		C93.9,27.3,93.7,27.2,93.5,27.2z"/>
	<polyline class="st0" points="66.5,9.9 63.2,9.2 62.8,10.3 65.6,11.7 	"/>
</g>
<g>
	<path class="st0" d="M33.6,15.9l1.9-1.9l-1.9-1.9l0.5-0.5l1.9,1.9l1.9-1.9l0.5,0.5L36.5,14l1.9,1.9l-0.5,0.5L36,14.5l-1.9,1.9
		L33.6,15.9z"/>
</g>
</svg>
