<?xml version="1.0" encoding="utf-8"?>
<!-- Generator: Adobe Illustrator 16.0.0, SVG Export Plug-In . SVG Version: 6.00 Build 0)  -->
<svg version="1.2" baseProfile="tiny" id="Layer_1" xmlns="http://www.w3.org/2000/svg" xmlns:xlink="http://www.w3.org/1999/xlink"
	 x="0px" y="0px" width="452.1px" height="148px" viewBox="0 0 452.1 148" xml:space="preserve">
<g>
	<path fill="#E8B972" d="M45.5,59.305c-14.084,0-25.5,11.417-25.5,25.5c0,14.084,11.416,25.5,25.5,25.5
		c14.082,0,25.5-11.416,25.5-25.5C71,70.722,59.583,59.305,45.5,59.305z M45.5,105.305c-11.305,0-20.5-9.196-20.5-20.5
		s9.195-20.5,20.5-20.5c11.303,0,20.5,9.196,20.5,20.5S56.803,105.305,45.5,105.305z"/>
	<path fill="#E8B972" d="M122.5,59.305c-14.084,0-25.5,11.417-25.5,25.5c0,14.084,11.416,25.5,25.5,25.5
		c14.082,0,25.5-11.416,25.5-25.5C148,70.722,136.583,59.305,122.5,59.305z M122.5,105.305c-11.305,0-20.5-9.196-20.5-20.5
		s9.195-20.5,20.5-20.5c11.303,0,20.5,9.196,20.5,20.5S133.803,105.305,122.5,105.305z"/>
	<path fill="#E8B972" d="M97.733,110.037l-1.268,1.268h-23.93l-1.268-1.268c-0.977-0.977-2.561-0.977-3.535,0
		c-0.977,0.977-0.977,2.559,0,3.535l2,2c0.469,0.469,1.104,0.732,1.768,0.732h26c0.662,0,1.299-0.264,1.768-0.732l2-2
		c0.977-0.977,0.977-2.559,0-3.535S98.709,109.061,97.733,110.037z"/>
	<path fill="#E8B972" d="M74.5,41.555v5c0,1.381,1.119,2.5,2.5,2.5s2.5-1.119,2.5-2.5v-5c0-5.866-5.146-11.182-5.732-11.768
		l-3.535,3.535C71.338,34.43,74.5,38.318,74.5,41.555z"/>
	<path fill="#E8B972" d="M62.233,38.322c1.105,1.107,4.268,4.996,4.268,8.232c0,1.381,1.119,2.5,2.5,2.5s2.5-1.119,2.5-2.5
		c0-5.866-5.146-11.182-5.732-11.768l-1.414,1.414l-4-4l-0.707,0.707l4,4L62.233,38.322z"/>
	<path fill="#E8B972" d="M98.5,46.555c0,1.381,1.119,2.5,2.5,2.5s2.5-1.119,2.5-2.5c0-2.014,1.375-2.472,2.5-2.5v-2h6v-1h-6v-2
		C102.985,39.055,98.5,41.052,98.5,46.555z"/>
	
		<rect x="67.172" y="29.054" transform="matrix(0.7071 0.7071 -0.7071 0.7071 41.4003 -40.8417)" fill="#E8B972" width="5.657" height="1"/>
	<path fill="#E8B972" d="M85,49.055c1.381,0,2.5-1.119,2.5-2.5v-15h-2v-6h-1v6h-2v15C82.5,47.936,83.62,49.055,85,49.055z"/>
	<path fill="#E8B972" d="M93,49.055c1.381,0,2.5-1.119,2.5-2.5v-5c0-3.226,3.082-7.039,4.268-8.232l-1.414-1.414l4-4.001
		l-0.707-0.707l-4,4.001l-1.414-1.414c-0.588,0.586-5.732,5.901-5.732,11.768v5C90.5,47.936,91.62,49.055,93,49.055z"/>
	<path fill="#E8B972" d="M93.338,100.108l-6.34-6.339V79.805c0-1.381-1.119-2.5-2.5-2.5s-2.5,1.119-2.5,2.5v15
		c0,0.164,0.018,0.328,0.049,0.489c0.016,0.075,0.043,0.145,0.064,0.217c0.025,0.084,0.045,0.169,0.078,0.25
		c0.035,0.086,0.084,0.165,0.129,0.245c0.035,0.063,0.061,0.126,0.1,0.185c0.094,0.138,0.197,0.268,0.316,0.384l7.068,7.069
		c0.488,0.488,1.127,0.732,1.768,0.732c0.639,0,1.279-0.244,1.768-0.732C94.315,102.668,94.315,101.084,93.338,100.108z"/>
</g>
<g>
	<path fill="#695434" d="M204.174,66.873c0,1.251-0.625,1.877-1.875,1.877s-1.875-0.626-1.875-1.877V53.732
		c0-2.068-0.733-3.837-2.2-5.305c-1.467-1.469-3.233-2.203-5.3-2.203s-3.834,0.734-5.3,2.203c-1.467,1.468-2.2,3.236-2.2,5.305
		v13.141c0,1.251-0.625,1.877-1.875,1.877s-1.875-0.626-1.875-1.877V33.101c0-1.251,0.625-1.876,1.875-1.876
		s1.875,0.625,1.875,1.875v12.25c2.133-1.916,4.633-2.875,7.5-2.875c3.1,0,5.75,1.102,7.95,3.303c2.2,2.203,3.3,4.855,3.3,7.958
		V66.873z"/>
	<path fill="#695434" d="M236.049,61.205c0,0.317-0.1,0.66-0.3,1.027c-1.149,2.006-2.875,3.602-5.175,4.787
		c-2.184,1.153-4.475,1.73-6.875,1.73c-3.75,0-6.984-1.243-9.7-3.729c-2.817-2.569-4.226-5.705-4.226-9.409
		c0-3.721,1.408-6.856,4.226-9.409c2.716-2.485,5.95-3.729,9.7-3.729c1.366,0,2.791,0.242,4.275,0.725
		c1.666,0.551,3.324,1.426,4.975,2.625c2.05,1.5,3.074,2.926,3.074,4.275c0,0.667-0.324,1.175-0.975,1.525L216.1,61.8
		c2.049,2.134,4.582,3.2,7.6,3.2c3.217,0,5.824-1.122,7.824-3.365c0.234-0.301,0.584-0.762,1.051-1.381s0.975-0.93,1.525-0.93
		c0.5,0,0.949,0.188,1.35,0.564S236.049,60.703,236.049,61.205z M231.342,49.387c-2.033-2.107-4.582-3.162-7.646-3.162
		c-2.699,0-5.049,0.874-7.047,2.622c-2.084,1.831-3.125,4.078-3.125,6.741c0,1.066,0.182,2.081,0.543,3.047L231.342,49.387z"/>
	<path fill="#695434" d="M265.349,66.873c0,1.251-0.625,1.877-1.875,1.877c-0.917,0-1.491-0.403-1.726-1.209
		c-0.1-0.353-0.149-1.141-0.149-2.366c-2.267,2.384-4.976,3.575-8.125,3.575c-3.417,0-6.274-1.352-8.575-4.055
		c-2.199-2.585-3.3-5.613-3.3-9.083c0-3.453,1.101-6.481,3.3-9.084c2.301-2.702,5.158-4.054,8.575-4.054
		c3.149,0,5.858,1.184,8.125,3.55V33.1c0-1.25,0.625-1.875,1.875-1.875s1.875,0.625,1.875,1.876V66.873z M261.599,55.612
		c0.017-2.437-0.708-4.564-2.175-6.384c-1.584-2.002-3.566-3.004-5.95-3.004c-2.366,0-4.342,1.002-5.925,3.004
		c-1.467,1.836-2.2,3.964-2.2,6.384c0,2.437,0.733,4.564,2.2,6.384c1.583,2.002,3.559,3.004,5.925,3.004s4.351-1.002,5.95-3.004
		C260.891,60.177,261.616,58.049,261.599,55.612z"/>
	<path fill="#695434" d="M297.224,44.35c0,1.017-0.534,1.625-1.601,1.825c-0.266,0.066-1.199,0.083-2.799,0.05
		c1.433,1.634,2.149,3.509,2.149,5.625c0,3-1.342,5.425-4.024,7.275c4.183,2.184,6.274,5.383,6.274,9.6c0,3.3-1.399,6.041-4.2,8.225
		c-2.566,2.017-5.541,3.025-8.925,3.025c-3.399,0-6.375-1.009-8.925-3.025c-2.801-2.184-4.2-4.925-4.2-8.225
		c0-1.25,0.625-1.875,1.875-1.875s1.875,0.625,1.875,1.875c0,2.25,1.033,4.092,3.101,5.525c1.85,1.316,3.941,1.975,6.274,1.975
		c2.316,0,4.408-0.658,6.274-1.975c2.066-1.45,3.101-3.292,3.101-5.525c0-2.25-1.034-4.092-3.101-5.525
		c-1.85-1.316-3.941-1.975-6.274-1.975c-2.817,0-5.284-0.842-7.399-2.525c-2.301-1.816-3.459-4.1-3.476-6.85
		c0-2.75,1.158-5.033,3.476-6.85c2.133-1.684,4.6-2.525,7.399-2.525h11.25C296.599,42.475,297.224,43.1,297.224,44.35z
		 M291.224,51.85c0-1.684-0.792-3.083-2.375-4.2c-1.399-0.95-2.983-1.425-4.75-1.425c-1.75,0-3.333,0.475-4.75,1.425
		c-1.583,1.101-2.375,2.5-2.375,4.2c0,1.684,0.792,3.084,2.375,4.2c1.399,0.95,2.983,1.425,4.75,1.425
		c1.75,0,3.333-0.475,4.75-1.425C290.432,54.934,291.224,53.533,291.224,51.85z"/>
	<path fill="#695434" d="M327.849,61.205c0,0.317-0.101,0.66-0.3,1.027c-1.15,2.006-2.875,3.602-5.176,4.787
		c-2.184,1.153-4.475,1.73-6.875,1.73c-3.75,0-6.982-1.243-9.699-3.729c-2.816-2.569-4.225-5.705-4.225-9.409
		c0-3.721,1.408-6.856,4.225-9.409c2.717-2.485,5.949-3.729,9.699-3.729c1.367,0,2.792,0.242,4.275,0.725
		c1.666,0.551,3.325,1.426,4.975,2.625c2.051,1.5,3.076,2.926,3.076,4.275c0,0.667-0.326,1.175-0.976,1.525L307.899,61.8
		c2.051,2.134,4.584,3.2,7.6,3.2c3.217,0,5.826-1.122,7.826-3.365c0.232-0.301,0.582-0.762,1.049-1.381s0.976-0.93,1.525-0.93
		c0.5,0,0.95,0.188,1.35,0.564C327.649,60.265,327.849,60.703,327.849,61.205z M323.142,49.387
		c-2.032-2.107-4.581-3.162-7.647-3.162c-2.699,0-5.047,0.874-7.047,2.622c-2.082,1.831-3.123,4.078-3.123,6.741
		c0,1.066,0.18,2.081,0.541,3.047L323.142,49.387z"/>
	<path fill="#695434" d="M357.174,66.873c0,1.251-0.625,1.877-1.875,1.877s-1.875-0.626-1.875-1.877V53.732
		c0-2.068-0.733-3.837-2.2-5.305c-1.467-1.469-3.233-2.203-5.3-2.203s-3.834,0.734-5.3,2.203c-1.467,1.468-2.2,3.236-2.2,5.305
		v13.141c0,1.251-0.625,1.877-1.875,1.877s-1.875-0.626-1.875-1.877V33.101c0-1.251,0.625-1.876,1.875-1.876
		s1.875,0.625,1.875,1.875v12.25c2.133-1.916,4.633-2.875,7.5-2.875c3.1,0,5.75,1.102,7.95,3.303c2.2,2.203,3.3,4.855,3.3,7.958
		V66.873z"/>
	<path fill="#695434" d="M389.024,55.612c0,3.62-1.283,6.715-3.85,9.284c-2.566,2.568-5.658,3.854-9.275,3.854
		c-3.616,0-6.708-1.285-9.274-3.854c-2.567-2.569-3.851-5.664-3.851-9.284s1.283-6.715,3.851-9.284
		c2.566-2.568,5.658-3.854,9.274-3.854c3.617,0,6.709,1.285,9.275,3.854C387.741,48.897,389.024,51.992,389.024,55.612z
		 M385.274,55.612c0-2.587-0.916-4.798-2.75-6.634c-1.833-1.836-4.041-2.754-6.625-2.754c-2.583,0-4.791,0.918-6.625,2.754
		c-1.833,1.836-2.75,4.047-2.75,6.634s0.917,4.798,2.75,6.634c1.834,1.836,4.042,2.754,6.625,2.754c2.584,0,4.792-0.918,6.625-2.754
		C384.358,60.41,385.274,58.199,385.274,55.612z"/>
	<path fill="#695434" d="M419.625,44.35c0,1.017-0.534,1.625-1.601,1.825c-0.266,0.066-1.199,0.083-2.799,0.05
		c1.433,1.634,2.149,3.509,2.149,5.625c0,3-1.342,5.425-4.024,7.275c4.183,2.184,6.274,5.383,6.274,9.6c0,3.3-1.399,6.041-4.2,8.225
		c-2.566,2.017-5.541,3.025-8.925,3.025c-3.399,0-6.375-1.009-8.925-3.025c-2.801-2.184-4.2-4.925-4.2-8.225
		c0-1.25,0.625-1.875,1.875-1.875s1.875,0.625,1.875,1.875c0,2.25,1.033,4.092,3.101,5.525c1.85,1.316,3.941,1.975,6.274,1.975
		c2.316,0,4.408-0.658,6.274-1.975c2.066-1.45,3.101-3.292,3.101-5.525c0-2.25-1.034-4.092-3.101-5.525
		c-1.85-1.316-3.941-1.975-6.274-1.975c-2.817,0-5.284-0.842-7.399-2.525c-2.301-1.816-3.459-4.1-3.476-6.85
		c0-2.75,1.158-5.033,3.476-6.85c2.133-1.684,4.6-2.525,7.399-2.525h11.25C419,42.475,419.625,43.1,419.625,44.35z M413.625,51.85
		c0-1.684-0.792-3.083-2.375-4.2c-1.399-0.95-2.983-1.425-4.75-1.425c-1.75,0-3.333,0.475-4.75,1.425
		c-1.583,1.101-2.375,2.5-2.375,4.2c0,1.684,0.792,3.084,2.375,4.2c1.399,0.95,2.983,1.425,4.75,1.425
		c1.75,0,3.333-0.475,4.75-1.425C412.833,54.934,413.625,53.533,413.625,51.85z"/>
	<path fill="#695434" d="M207.85,95.6c0,0.5-0.192,0.946-0.575,1.338c-0.384,0.392-0.825,0.587-1.325,0.587
		c-0.35,0-0.759-0.149-1.225-0.45c-2.684-1.899-5.384-2.85-8.101-2.85c-2.866,0-5.417,0.835-7.649,2.504
		c-2.434,1.818-3.65,4.113-3.65,6.884s1.217,5.065,3.65,6.884c2.199,1.669,4.75,2.504,7.649,2.504c2.7,0,5.4-0.94,8.101-2.821
		c0.449-0.319,0.85-0.487,1.199-0.504c0.5,0,0.946,0.192,1.338,0.577s0.588,0.836,0.588,1.354c0,0.485-0.234,0.953-0.7,1.405
		c-1.167,1.154-2.8,2.082-4.9,2.784c-1.917,0.636-3.792,0.954-5.625,0.954c-3.934,0-7.366-1.193-10.3-3.579
		c-3.167-2.535-4.75-5.722-4.75-9.559s1.583-7.023,4.75-9.56c2.95-2.385,6.383-3.578,10.3-3.578c1.833,0,3.708,0.316,5.625,0.95
		c2.116,0.7,3.759,1.634,4.925,2.8C207.625,94.675,207.85,95.133,207.85,95.6z"/>
	<path fill="#695434" d="M234.85,111.081c0,0.351-0.134,0.735-0.4,1.153c-0.884,1.355-2.2,2.459-3.95,3.312
		c-1.667,0.803-3.35,1.204-5.05,1.204c-3.1,0-5.75-1.101-7.95-3.303c-2.2-2.201-3.3-4.853-3.3-7.955V81.101
		c0-1.251,0.625-1.876,1.875-1.876s1.875,0.626,1.875,1.877v24.393c0,2.068,0.733,3.836,2.2,5.304
		c1.466,1.468,3.233,2.202,5.3,2.202c1.816,0,3.438-0.634,4.862-1.9s2.288-1.9,2.588-1.9c0.5,0,0.95,0.188,1.35,0.564
		C234.65,110.141,234.85,110.579,234.85,111.081z"/>
	<path fill="#695434" d="M265.424,103.612c0,3.62-1.283,6.715-3.85,9.284c-2.566,2.568-5.658,3.854-9.275,3.854
		c-3.616,0-6.708-1.285-9.274-3.854c-2.567-2.569-3.851-5.664-3.851-9.284s1.283-6.715,3.851-9.284
		c2.566-2.568,5.658-3.854,9.274-3.854c3.617,0,6.709,1.285,9.275,3.854C264.141,96.897,265.424,99.992,265.424,103.612z
		 M261.674,103.612c0-2.587-0.916-4.798-2.75-6.634c-1.833-1.836-4.041-2.754-6.625-2.754c-2.583,0-4.791,0.918-6.625,2.754
		c-1.833,1.836-2.75,4.047-2.75,6.634s0.917,4.798,2.75,6.634c1.834,1.836,4.042,2.754,6.625,2.754c2.584,0,4.792-0.918,6.625-2.754
		C260.758,108.41,261.674,106.199,261.674,103.612z"/>
	<path fill="#695434" d="M297.25,95.6c0,0.5-0.192,0.946-0.575,1.338s-0.824,0.587-1.324,0.587c-0.351,0-0.76-0.149-1.226-0.45
		c-2.684-1.899-5.384-2.85-8.101-2.85c-2.866,0-5.416,0.835-7.649,2.504c-2.434,1.818-3.649,4.113-3.649,6.884
		s1.216,5.065,3.649,6.884c2.2,1.669,4.75,2.504,7.649,2.504c2.701,0,5.4-0.94,8.101-2.821c0.45-0.319,0.851-0.487,1.2-0.504
		c0.5,0,0.945,0.192,1.338,0.577c0.391,0.385,0.587,0.836,0.587,1.354c0,0.485-0.233,0.953-0.7,1.405
		c-1.166,1.154-2.8,2.082-4.9,2.784c-1.916,0.636-3.791,0.954-5.625,0.954c-3.934,0-7.366-1.193-10.299-3.579
		c-3.168-2.535-4.75-5.722-4.75-9.559s1.582-7.023,4.75-9.56c2.949-2.385,6.383-3.578,10.299-3.578c1.834,0,3.709,0.316,5.625,0.95
		c2.117,0.7,3.759,1.634,4.926,2.8C297.024,94.675,297.25,95.133,297.25,95.6z"/>
	<path fill="#695434" d="M327.85,114.799c0,0.5-0.192,0.95-0.575,1.351c-0.384,0.4-0.817,0.601-1.3,0.601
		c-0.384,0-0.75-0.117-1.101-0.351l-16-11.1c-0.634-0.416-0.983-0.866-1.05-1.351v10.922c0,1.252-0.625,1.879-1.875,1.879
		s-1.875-0.626-1.875-1.877V81.101c0-1.251,0.625-1.876,1.875-1.876s1.875,0.625,1.875,1.875v22.15
		c0.083-0.485,0.432-0.937,1.047-1.354l16.002-11.098c0.35-0.216,0.717-0.323,1.101-0.323c0.5,0,0.938,0.199,1.313,0.596
		c0.375,0.397,0.563,0.844,0.563,1.34c0,0.629-0.275,1.125-0.825,1.489l-14.023,9.7l14.024,9.698
		C327.575,113.665,327.85,114.165,327.85,114.799z"/>
</g>
</svg>
