<?xml version="1.0" encoding="UTF-8" standalone="no"?><!DOCTYPE svg PUBLIC "-//W3C//DTD SVG 1.1//EN" "http://www.w3.org/Graphics/SVG/1.1/DTD/svg11.dtd"><svg width="100%" height="100%" viewBox="0 0 326 900" version="1.1" xmlns="http://www.w3.org/2000/svg" xmlns:xlink="http://www.w3.org/1999/xlink" xml:space="preserve" xmlns:serif="http://www.serif.com/" style="fill-rule:evenodd;clip-rule:evenodd;stroke-linejoin:round;stroke-miterlimit:1.41421;"><rect id="Artboard2" x="0" y="0" width="325.5" height="900" style="fill:none;"/><path d="M257.827,210.461c0.846,0.009 2.038,0.099 2.038,0.099c0.746,0.174 1.507,0.294 2.239,0.521c2.107,0.653 2.614,0.749 4.582,2.332c3.981,3.24 6.466,7.961 6.636,13.156l-0.018,1.146l-9.413,107.589c-0.572,3.757 -2.062,7.171 -4.887,10.126l-0.767,0.736l-33.924,28.466l-5.698,65.124l-0.114,1.303l-8.721,99.683l28.572,34.051l0.699,0.907c6.289,9.658 -0.523,25.357 -13.224,25.25c-4.446,-0.038 -8.813,-2.066 -11.767,-5.344l-0.23,-0.254l-32.916,-39.228c-0.142,-0.183 -0.285,-0.364 -0.426,-0.547c-0.305,-0.401 -0.591,-0.816 -0.853,-1.245c-1.748,-2.856 -2.474,-6.269 -2.325,-9.606l9.313,-106.457c0.119,-0.874 0.107,-0.876 0.107,-0.876l0.007,-0.426l6.276,-71.726c0.569,-3.735 2.058,-7.167 4.887,-10.128l0.767,-0.735l33.924,-28.465l8.835,-100.987l0.18,-1.127c0.52,-2.22 0.486,-2.236 1.354,-4.346c1.76,-4.279 7.462,-8.908 14.532,-8.991c0.168,-0.001 0.168,-0.001 0.335,-0.001Zm-218.465,190.219l3.604,11.395c-2.522,-3.237 -3.786,-7.26 -3.604,-11.395Zm147.368,36.713l-0.011,0.625c0,0 0.036,-0.689 0.193,-1.396c-0.061,0.257 -0.121,0.514 -0.182,0.771Zm70.587,-210.512c0,0 0.037,0.926 0.009,0.069c0,0 0.011,-0.152 -0.009,-0.069Z" style="fill:url(#_Linear1);fill-rule:nonzero;"/><path d="M185.421,138.533c2.371,0.034 4.665,0.72 6.877,1.582l2.007,1.14c4.2,3.268 6.92,8.02 7.1,13.525l-0.018,1.143l-27.323,312.307l-0.381,1.833l0.298,-0.894l-14.897,170.28l28.465,33.924c2.516,3.431 3.478,6.204 3.663,9.721c0.035,0.655 0.034,1.306 0.02,1.958l-3.138,35.863c-0.785,4.962 -3.335,9.959 -8.272,12.556c-8.15,4.287 -19.935,0.505 -22.803,-9.186c-0.48,-1.625 -0.722,-3.308 -0.82,-4.997l0.017,-1.162l2.56,-29.261l-28.466,-33.924c-2.515,-3.431 -3.477,-6.204 -3.663,-9.721c-0.034,-0.655 -0.033,-1.306 -0.019,-1.958l15.688,-179.315l0.38,-1.833l-0.298,0.894l27.111,-309.874l0.188,-1.159c1.683,-7.056 7.644,-13.261 15.383,-13.441c0.171,-0.001 0.171,-0.001 0.341,-0.001Zm-146.003,262.379l3.605,11.396c-2.517,-3.23 -3.787,-7.261 -3.605,-11.396Z" style="fill:url(#_Linear2);fill-rule:nonzero;"/><path d="M53.411,278.785c1.73,0.044 3.769,0.535 3.769,0.535c6.924,2.136 11.901,9.109 11.598,16.599l-8.852,101.173l28.572,34.05l0.699,0.907c1.443,2.216 2.393,4.691 2.77,7.334c0,0 0.189,1.62 0.122,3.139l-6.302,72.031c-0.494,4.083 -2.453,7.838 -5.521,10.628l-39.245,32.93c-1.747,1.351 -3.66,2.456 -5.825,3.043c-2.097,0.568 -4.965,0.777 -7.681,0.128c-8.287,-1.978 -14.42,-11.256 -12.096,-19.683c0.847,-3.073 2.657,-5.833 5.028,-7.997l34.051,-28.572l5.12,-58.522l-28.559,-34.035c-2.522,-3.237 -3.786,-7.26 -3.604,-11.395l9.445,-107.954c1.066,-7.827 8.034,-14.217 16.073,-14.341c0.219,0 0.219,0 0.438,0.002Z" style="fill:url(#_Linear3);fill-rule:nonzero;"/><path d="M99.258,233.717c1.166,0.017 2.326,0.149 3.462,0.402c0,0 2.909,0.873 4.985,2.311c4.59,3.178 7.289,8.723 7.084,14.394l-8.853,101.191l28.577,34.057l0.531,0.692c2.139,3.062 3.242,6.518 3.054,10.685l-5.244,59.94l-9.413,107.589l-0.146,0.974c-0.587,2.751 -0.671,2.923 -1.005,3.75c-0.811,2.011 -2.175,3.726 -3.664,5.324l-0.839,0.814l-33.924,28.466l-5.697,65.123l-0.181,1.128c-0.592,2.53 -0.147,2.136 -1.974,5.485c-0.361,0.651 -0.384,0.678 -0.555,0.949c-5.711,9.078 -21.952,9.208 -27.531,-1.779c-1.125,-2.217 -1.526,-4.641 -1.649,-7.298l0.011,-1.273l6.276,-71.727l0.154,-1.011c0.036,-0.165 0.071,-0.331 0.105,-0.497c0.047,-0.234 0.093,-0.467 0.142,-0.7c0.638,-3.012 2.332,-5.664 4.485,-7.918l0.768,-0.736l33.924,-28.465c3.588,-41.018 7.628,-46.016 7.628,-87.19l5.859,-66.966l-28.578,-34.058l-0.531,-0.692c-2.139,-3.062 -3.241,-6.518 -3.054,-10.684l9.446,-107.969c1.09,-7.722 7.902,-14.102 15.91,-14.309c0.218,-0.003 0.218,-0.002 0.437,-0.002Zm189.362,162.588c0,0 4.834,-20.377 5.431,-13.548c0.441,5.036 -1.578,10.135 -5.431,13.548Z" style="fill:url(#_Linear4);fill-rule:nonzero;"/><path d="M286.179,368.153c1.194,0.032 2.627,0.251 2.869,0.302c6.728,1.417 12.181,7.839 12.545,14.902c0.251,4.854 -1.832,9.723 -5.472,12.948l-34.007,28.535l-2.047,23.405l28.536,34.009c6.373,8.034 2.569,22.275 -7.904,25.527c-5.812,1.805 -12.512,-0.34 -16.609,-4.958l-32.867,-39.17c-1.882,-2.372 -3.052,-5.254 -3.381,-8.252c0,0 -0.279,-2.273 -0.175,-3.983l3.159,-36.112c0.503,-4.064 2.469,-7.863 5.532,-10.627l39.223,-32.913c2.91,-2.265 6.483,-3.564 10.157,-3.615c0.221,0 0.22,0 0.441,0.002Zm-58.364,87.028c0.067,0.424 0.089,1.157 -0.024,-0.35c0.008,0.116 0.016,0.233 0.024,0.35Z" style="fill:url(#_Linear5);fill-rule:nonzero;"/><defs><linearGradient id="_Linear1" x1="0" y1="0" x2="1" y2="0" gradientUnits="userSpaceOnUse" gradientTransform="matrix(308.849,27.0208,-44.2261,505.506,4.22403,351.537)"><stop offset="0" style="stop-color:#fee5a5;stop-opacity:1"/><stop offset="1" style="stop-color:#fdfbca;stop-opacity:1"/></linearGradient><linearGradient id="_Linear2" x1="0" y1="0" x2="1" y2="0" gradientUnits="userSpaceOnUse" gradientTransform="matrix(179.216,15.6794,-78.4355,896.522,38.3886,412.682)"><stop offset="0" style="stop-color:#fd9ca7;stop-opacity:1"/><stop offset="1" style="stop-color:#ffd0d8;stop-opacity:1"/></linearGradient><linearGradient id="_Linear3" x1="0" y1="0" x2="1" y2="0" gradientUnits="userSpaceOnUse" gradientTransform="matrix(67.7413,5.92659,-24.7396,282.775,37.9023,418.826)"><stop offset="0" style="stop-color:#e1d6ff;stop-opacity:1"/><stop offset="1" style="stop-color:#bfa0fd;stop-opacity:1"/></linearGradient><linearGradient id="_Linear4" x1="0" y1="0" x2="1" y2="0" gradientUnits="userSpaceOnUse" gradientTransform="matrix(211.052,18.4647,-39.3547,449.826,70.6046,457.273)"><stop offset="0" style="stop-color:#d7f9fa;stop-opacity:1"/><stop offset="1" style="stop-color:#a3f0e8;stop-opacity:1"/></linearGradient><linearGradient id="_Linear5" x1="0" y1="0" x2="1" y2="0" gradientUnits="userSpaceOnUse" gradientTransform="matrix(110.802,9.69392,-15.6404,178.771,184.324,449.285)"><stop offset="0" style="stop-color:#ffe8f8;stop-opacity:1"/><stop offset="1" style="stop-color:#f8cbe2;stop-opacity:1"/></linearGradient></defs></svg>