<?xml version="1.0" encoding="utf-8"?>
<!-- Generator: Adobe Illustrator 16.0.0, SVG Export Plug-In . SVG Version: 6.00 Build 0)  -->
<svg version="1.2" baseProfile="tiny" id="Layer_1" xmlns="http://www.w3.org/2000/svg" xmlns:xlink="http://www.w3.org/1999/xlink"
	 x="0px" y="0px" width="448.6px" height="148px" viewBox="0 0 448.6 148" xml:space="preserve">
<g>
	<path fill="#85CFC7" d="M45.5,59.307c-14.083,0-25.5,11.417-25.5,25.5c0,14.084,11.417,25.5,25.5,25.5S71,98.891,71,84.807
		C71,70.724,59.583,59.307,45.5,59.307z M45.5,105.307c-11.304,0-20.5-9.196-20.5-20.5s9.196-20.5,20.5-20.5S66,73.503,66,84.807
		S56.804,105.307,45.5,105.307z"/>
	<path fill="#85CFC7" d="M122.501,59.307C108.417,59.307,97,70.724,97,84.807c0,14.084,11.417,25.5,25.501,25.5
		c14.082,0,25.5-11.416,25.5-25.5C148.001,70.724,136.583,59.307,122.501,59.307z M122.501,105.307
		c-11.305,0-20.501-9.196-20.501-20.5s9.196-20.5,20.501-20.5c11.303,0,20.5,9.196,20.5,20.5S133.804,105.307,122.501,105.307z"/>
	<path fill="#85CFC7" d="M97.732,110.039l-1.268,1.268H72.536l-1.269-1.268c-0.976-0.977-2.56-0.977-3.535,0
		c-0.977,0.977-0.977,2.559,0,3.535l2,2c0.469,0.469,1.104,0.732,1.768,0.732h26c0.663,0,1.299-0.264,1.768-0.732l2-2
		c0.977-0.977,0.977-2.559,0-3.535S98.709,109.063,97.732,110.039z"/>
	<path fill="#85CFC7" d="M74.5,41.557v5c0,1.381,1.119,2.5,2.5,2.5s2.5-1.119,2.5-2.5v-5c0-5.866-5.146-11.182-5.732-11.768
		l-3.535,3.535C71.339,34.432,74.5,38.32,74.5,41.557z"/>
	<path fill="#85CFC7" d="M62.232,38.324c1.106,1.107,4.268,4.996,4.268,8.232c0,1.381,1.119,2.5,2.5,2.5s2.5-1.119,2.5-2.5
		c0-5.866-5.146-11.182-5.732-11.768l-1.414,1.414l-4-4l-0.707,0.707l4,4L62.232,38.324z"/>
	<path fill="#85CFC7" d="M98.5,46.557c0,1.381,1.119,2.5,2.5,2.5s2.5-1.119,2.5-2.5c0-2.014,1.376-2.472,2.5-2.5v-2h6v-1h-6v-2
		C102.985,39.057,98.5,41.054,98.5,46.557z"/>
	
		<rect x="67.172" y="29.056" transform="matrix(0.7071 0.7071 -0.7071 0.7071 41.4015 -40.8408)" fill="#85CFC7" width="5.657" height="1"/>
	<path fill="#85CFC7" d="M85,49.057c1.381,0,2.5-1.119,2.5-2.5v-15h-2v-6h-1v6h-2v15C82.5,47.938,83.619,49.057,85,49.057z"/>
	<path fill="#85CFC7" d="M93,49.057c1.381,0,2.5-1.119,2.5-2.5v-5c0-3.226,3.083-7.039,4.268-8.232l-1.414-1.414l4-4.001
		l-0.707-0.707l-4,4.001l-1.414-1.414C95.646,30.375,90.5,35.69,90.5,41.557v5C90.5,47.938,91.619,49.057,93,49.057z"/>
</g>
<g>
	<path fill="#34504D" d="M200.675,66.873c0,1.252-0.625,1.877-1.875,1.877s-1.875-0.625-1.875-1.877V53.734
		c0-2.069-0.733-3.838-2.2-5.307c-1.467-1.468-3.233-2.202-5.3-2.202c-2.067,0-3.833,0.734-5.3,2.202
		c-1.467,1.469-2.2,3.237-2.2,5.307v13.139c0,1.252-0.625,1.877-1.875,1.877s-1.875-0.625-1.875-1.875V33.102
		c0-1.25,0.625-1.876,1.875-1.876s1.875,0.625,1.875,1.875v12.25c2.133-1.917,4.633-2.875,7.5-2.875c3.1,0,5.75,1.101,7.95,3.304
		c2.2,2.201,3.3,4.854,3.3,7.957V66.873z"/>
	<path fill="#34504D" d="M232.55,61.205c0,0.318-0.1,0.66-0.3,1.028c-1.15,2.005-2.875,3.601-5.175,4.788
		c-2.184,1.152-4.475,1.729-6.875,1.729c-3.75,0-6.983-1.242-9.7-3.729c-2.817-2.568-4.225-5.705-4.225-9.408
		c0-3.721,1.408-6.857,4.225-9.409c2.716-2.485,5.95-3.729,9.7-3.729c1.367,0,2.792,0.241,4.275,0.726
		c1.666,0.549,3.325,1.424,4.975,2.625c2.05,1.5,3.075,2.924,3.075,4.274c0,0.667-0.325,1.175-0.975,1.524l-18.95,10.176
		c2.05,2.133,4.583,3.199,7.6,3.199c3.217,0,5.825-1.121,7.825-3.364c0.233-0.302,0.583-0.761,1.05-1.381s0.975-0.929,1.525-0.929
		c0.5,0,0.95,0.188,1.35,0.563C232.351,60.266,232.55,60.705,232.55,61.205z M227.843,49.388c-2.033-2.108-4.582-3.162-7.647-3.162
		c-2.699,0-5.048,0.874-7.047,2.622c-2.083,1.831-3.124,4.078-3.124,6.742c0,1.064,0.181,2.08,0.542,3.046L227.843,49.388z"/>
	<path fill="#34504D" d="M261.85,66.875c0,1.25-0.625,1.875-1.875,1.875c-0.917,0-1.492-0.402-1.725-1.208
		c-0.1-0.353-0.15-1.142-0.15-2.366c-2.267,2.383-4.975,3.574-8.125,3.574c-3.417,0-6.275-1.351-8.575-4.053
		c-2.2-2.586-3.3-5.613-3.3-9.084c0-3.453,1.1-6.481,3.3-9.084c2.3-2.702,5.158-4.054,8.575-4.054c3.15,0,5.858,1.184,8.125,3.55
		V33.101c0-1.25,0.625-1.875,1.875-1.875s1.875,0.626,1.875,1.876V66.875z M258.1,55.613c0.017-2.437-0.708-4.564-2.175-6.384
		c-1.583-2.003-3.567-3.004-5.95-3.004c-2.367,0-4.342,1.001-5.925,3.004c-1.467,1.836-2.2,3.964-2.2,6.384
		c0,2.437,0.733,4.564,2.2,6.383C245.633,64,247.608,65,249.975,65s4.35-1,5.95-3.004C257.392,60.178,258.117,58.05,258.1,55.613z"
		/>
	<path fill="#34504D" d="M293.725,44.351c0,1.017-0.534,1.625-1.6,1.825c-0.267,0.066-1.2,0.084-2.8,0.05
		c1.433,1.634,2.15,3.509,2.15,5.625c0,3-1.342,5.425-4.025,7.274c4.183,2.184,6.275,5.385,6.275,9.601c0,3.3-1.4,6.042-4.2,8.226
		c-2.566,2.016-5.542,3.024-8.925,3.024c-3.4,0-6.375-1.009-8.925-3.024c-2.8-2.184-4.2-4.926-4.2-8.226
		c0-1.25,0.625-1.875,1.875-1.875s1.875,0.625,1.875,1.875c0,2.25,1.033,4.091,3.1,5.524c1.85,1.316,3.941,1.976,6.275,1.976
		c2.316,0,4.408-0.659,6.275-1.976c2.066-1.449,3.1-3.291,3.1-5.524c0-2.25-1.034-4.091-3.1-5.524
		c-1.85-1.316-3.942-1.976-6.275-1.976c-2.817,0-5.284-0.841-7.4-2.524c-2.3-1.816-3.458-4.101-3.475-6.851
		c0-2.75,1.158-5.033,3.475-6.851c2.133-1.683,4.6-2.524,7.4-2.524h11.25C293.1,42.476,293.725,43.101,293.725,44.351z
		 M287.725,51.851c0-1.683-0.792-3.083-2.375-4.2c-1.4-0.949-2.983-1.425-4.75-1.425c-1.75,0-3.333,0.476-4.75,1.425
		c-1.583,1.1-2.375,2.5-2.375,4.2c0,1.684,0.792,3.083,2.375,4.2c1.4,0.949,2.983,1.425,4.75,1.425c1.75,0,3.333-0.476,4.75-1.425
		C286.933,54.934,287.725,53.534,287.725,51.851z"/>
	<path fill="#34504D" d="M324.35,61.205c0,0.318-0.1,0.66-0.3,1.028c-1.15,2.005-2.875,3.601-5.175,4.788
		c-2.184,1.152-4.475,1.729-6.875,1.729c-3.75,0-6.983-1.242-9.7-3.729c-2.817-2.568-4.225-5.705-4.225-9.408
		c0-3.721,1.408-6.857,4.225-9.409c2.716-2.485,5.95-3.729,9.7-3.729c1.367,0,2.792,0.241,4.275,0.726
		c1.666,0.549,3.325,1.424,4.975,2.625c2.05,1.5,3.075,2.924,3.075,4.274c0,0.667-0.325,1.175-0.975,1.524L304.4,61.801
		C306.45,63.934,308.983,65,312,65c3.217,0,5.825-1.121,7.825-3.364c0.233-0.302,0.583-0.761,1.05-1.381s0.975-0.929,1.525-0.929
		c0.5,0,0.95,0.188,1.35,0.563C324.15,60.266,324.35,60.705,324.35,61.205z M319.643,49.388c-2.033-2.108-4.582-3.162-7.647-3.162
		c-2.699,0-5.048,0.874-7.047,2.622c-2.083,1.831-3.124,4.078-3.124,6.742c0,1.064,0.181,2.08,0.542,3.046L319.643,49.388z"/>
	<path fill="#34504D" d="M353.675,66.873c0,1.252-0.625,1.877-1.875,1.877s-1.875-0.625-1.875-1.877V53.734
		c0-2.069-0.733-3.838-2.2-5.307c-1.467-1.468-3.233-2.202-5.3-2.202c-2.067,0-3.833,0.734-5.3,2.202
		c-1.467,1.469-2.2,3.237-2.2,5.307v13.139c0,1.252-0.625,1.877-1.875,1.877s-1.875-0.625-1.875-1.875V33.102
		c0-1.25,0.625-1.876,1.875-1.876s1.875,0.625,1.875,1.875v12.25c2.133-1.917,4.633-2.875,7.5-2.875c3.1,0,5.75,1.101,7.95,3.304
		c2.2,2.201,3.3,4.854,3.3,7.957V66.873z"/>
	<path fill="#34504D" d="M385.525,55.613c0,3.62-1.284,6.715-3.85,9.283c-2.567,2.57-5.659,3.854-9.275,3.854
		c-3.617,0-6.708-1.283-9.275-3.854c-2.567-2.568-3.85-5.663-3.85-9.283s1.283-6.715,3.85-9.283c2.566-2.57,5.658-3.854,9.275-3.854
		c3.616,0,6.708,1.284,9.275,3.854C384.242,48.898,385.525,51.993,385.525,55.613z M381.775,55.613c0-2.587-0.917-4.798-2.75-6.634
		c-1.833-1.836-4.042-2.754-6.625-2.754c-2.583,0-4.792,0.918-6.625,2.754c-1.833,1.836-2.75,4.047-2.75,6.634
		c0,2.586,0.917,4.798,2.75,6.634C367.608,64.083,369.817,65,372.4,65c2.583,0,4.792-0.917,6.625-2.753
		C380.858,60.411,381.775,58.199,381.775,55.613z"/>
	<path fill="#34504D" d="M416.125,44.351c0,1.017-0.534,1.625-1.6,1.825c-0.267,0.066-1.2,0.084-2.8,0.05
		c1.433,1.634,2.15,3.509,2.15,5.625c0,3-1.342,5.425-4.025,7.274c4.183,2.184,6.275,5.385,6.275,9.601c0,3.3-1.4,6.042-4.2,8.226
		c-2.566,2.016-5.542,3.024-8.925,3.024c-3.4,0-6.375-1.009-8.925-3.024c-2.8-2.184-4.2-4.926-4.2-8.226
		c0-1.25,0.625-1.875,1.875-1.875s1.875,0.625,1.875,1.875c0,2.25,1.033,4.091,3.1,5.524c1.85,1.316,3.941,1.976,6.275,1.976
		c2.316,0,4.408-0.659,6.275-1.976c2.066-1.449,3.1-3.291,3.1-5.524c0-2.25-1.034-4.091-3.1-5.524
		c-1.85-1.316-3.942-1.976-6.275-1.976c-2.817,0-5.284-0.841-7.4-2.524c-2.3-1.816-3.458-4.101-3.475-6.851
		c0-2.75,1.158-5.033,3.475-6.851c2.133-1.683,4.6-2.524,7.4-2.524h11.25C415.5,42.476,416.125,43.101,416.125,44.351z
		 M410.125,51.851c0-1.683-0.792-3.083-2.375-4.2c-1.4-0.949-2.983-1.425-4.75-1.425c-1.75,0-3.333,0.476-4.75,1.425
		c-1.583,1.1-2.375,2.5-2.375,4.2c0,1.684,0.792,3.083,2.375,4.2c1.4,0.949,2.983,1.425,4.75,1.425c1.75,0,3.333-0.476,4.75-1.425
		C409.333,54.934,410.125,53.534,410.125,51.851z"/>
	<path fill="#34504D" d="M203.125,103.613c0,3.553-1.192,6.615-3.575,9.184c-2.434,2.636-5.408,3.953-8.925,3.953
		s-6.492-1.316-8.925-3.952c-2.384-2.567-3.575-5.628-3.575-9.181V81.102c0-1.25,0.625-1.876,1.875-1.876s1.875,0.625,1.875,1.875
		v13.125c2.417-2.5,5.333-3.75,8.75-3.75c3.517,0,6.491,1.317,8.925,3.954C201.934,96.998,203.125,100.061,203.125,103.613z
		 M199.375,103.613c0-2.52-0.817-4.697-2.45-6.533c-1.7-1.902-3.8-2.854-6.3-2.854c-2.483,0-4.575,0.952-6.275,2.854
		c-1.634,1.836-2.458,4.014-2.475,6.533c0,2.52,0.825,4.697,2.475,6.533c1.7,1.902,3.792,2.854,6.275,2.854s4.583-0.951,6.3-2.854
		C198.559,108.311,199.375,106.133,199.375,103.613z"/>
	<path fill="#34504D" d="M234.925,103.613c0,3.62-1.284,6.715-3.85,9.283c-2.567,2.57-5.659,3.854-9.275,3.854
		c-3.617,0-6.708-1.283-9.275-3.854c-2.567-2.568-3.85-5.663-3.85-9.283s1.283-6.715,3.85-9.283c2.566-2.57,5.658-3.854,9.275-3.854
		c3.616,0,6.708,1.284,9.275,3.854C233.642,96.898,234.925,99.993,234.925,103.613z M231.175,103.613
		c0-2.587-0.917-4.798-2.75-6.634c-1.833-1.836-4.042-2.754-6.625-2.754c-2.583,0-4.792,0.918-6.625,2.754
		c-1.833,1.836-2.75,4.047-2.75,6.634c0,2.586,0.917,4.798,2.75,6.634c1.833,1.836,4.042,2.753,6.625,2.753
		c2.583,0,4.792-0.917,6.625-2.753C230.258,108.411,231.175,106.199,231.175,103.613z"/>
	<path fill="#34504D" d="M264.351,111.082c0,0.352-0.133,0.736-0.4,1.154c-0.884,1.354-2.2,2.457-3.95,3.311
		c-1.667,0.803-3.35,1.203-5.05,1.203c-3.1,0-5.75-1.101-7.95-3.303c-2.2-2.203-3.3-4.855-3.3-7.959V94.226h-3.75
		c-1.25,0-1.875-0.625-1.875-1.875s0.625-1.875,1.875-1.875h3.75v-9.375c0-1.25,0.625-1.875,1.875-1.875s1.875,0.625,1.875,1.875
		v9.375h9.375c1.25,0,1.875,0.625,1.875,1.875s-0.625,1.875-1.875,1.875h-9.375v11.265c0,2.07,0.733,3.839,2.2,5.308
		c1.466,1.469,3.233,2.202,5.3,2.202c1.4,0,2.616-0.326,3.65-0.98c0.5-0.319,1.225-0.932,2.175-1.838
		c0.666-0.654,1.208-0.98,1.625-0.98c0.5,0,0.95,0.188,1.35,0.564C264.151,110.142,264.351,110.58,264.351,111.082z"/>
</g>
</svg>
