<?xml version="1.0" encoding="UTF-8" standalone="no"?><!DOCTYPE svg PUBLIC "-//W3C//DTD SVG 1.1//EN" "http://www.w3.org/Graphics/SVG/1.1/DTD/svg11.dtd"><svg width="100%" height="100%" viewBox="0 0 326 900" version="1.1" xmlns="http://www.w3.org/2000/svg" xmlns:xlink="http://www.w3.org/1999/xlink" xml:space="preserve" xmlns:serif="http://www.serif.com/" style="fill-rule:evenodd;clip-rule:evenodd;stroke-linejoin:round;stroke-miterlimit:1.41421;"><rect id="Artboard3" x="0" y="0" width="325.5" height="900" style="fill:none;"/><path d="M160.136,420.116c16.494,-1.443 31.057,10.777 32.5,27.272c1.443,16.494 -10.776,31.057 -27.271,32.5c-16.494,1.443 -31.057,-10.777 -32.5,-27.271c-1.443,-16.495 10.776,-31.058 27.271,-32.501Z" style="fill:url(#_Linear1);"/><path d="M163.056,158.026c28.479,0.076 56.953,4.274 84.224,12.48c0,0 2.392,0.755 3.959,1.63c1.06,0.591 2.019,1.349 2.897,2.102c0.869,0.753 1.047,0.945 1.503,1.457c7.533,8.45 1.943,25.76 -11.524,26.352c-4.564,0.201 -8.887,-1.786 -13.504,-3.028c-3.071,-0.826 -6.157,-1.594 -9.257,-2.304c-57.491,-13.171 -119.376,-6.253 -172.534,19.582c-1.38,0.671 -2.754,1.357 -4.123,2.051l-1.045,0.441c-2.143,0.729 -2.146,0.731 -4.37,1.151c-0.14,0.006 -0.28,0.013 -0.42,0.021c-5.01,0.303 -9.825,-1.382 -13.127,-5.109c-5.711,-6.446 -5.747,-17.653 1.831,-23.31c0.769,-0.574 1.818,-1.244 1.818,-1.244c3.719,-2.193 7.653,-3.885 11.616,-5.703c37.936,-17.397 79.976,-26.496 121.182,-26.57c0.291,0 0.582,0 0.874,0.001Z" style="fill:#ebebeb;"/><path d="M229.788,537.376c9.221,0.232 17.885,8.81 15.525,18.981c-1.508,6.496 -7.475,10.801 -13.091,14.037c-19.806,11.413 -42.453,17.889 -65.315,18.534c-18.567,0.524 -37.249,-2.654 -54.554,-9.384c-8.419,-3.274 -16.272,-10.897 -12.654,-21.188c2.406,-6.843 9.683,-11.885 16.851,-11.023c3.697,0.444 7.109,2.34 10.724,3.588c30.61,10.565 66.088,6.558 93.442,-10.98c0,0 4.583,-2.493 8.589,-2.567c0.241,-0.001 0.241,-0.001 0.483,0.002Zm-66.528,-277.348c22.159,0.123 44.416,4.057 65.077,11.653c7.681,2.824 13.911,9.988 12.568,18.323c-1.356,8.419 -9.829,14.94 -19.177,13.037c-5.44,-1.107 -10.578,-3.553 -16.038,-5.082c-39.568,-11.082 -83.728,-5.978 -119.516,13.841c-1.533,0.848 -3.049,1.726 -4.563,2.606l-0.944,0.551l-0.896,0.452c-7.147,3.053 -16.474,0.47 -20.427,-6.496c-4.258,-7.5 -0.89,-17.962 6.714,-22.467c28.727,-16.917 61.064,-26.139 95.234,-26.416c0.656,-0.003 1.312,-0.004 1.968,-0.002Z" style="fill:url(#_Linear2);"/><path d="M100.906,596.519c1.177,0.029 2.35,0.174 3.498,0.442l0.961,0.288c9.51,3.523 19.213,6.381 29.141,8.145c34.335,6.1 70.631,0.727 101.537,-15.421c7.339,-3.835 14.878,-9.168 23.039,-5.336c7.08,3.324 11.22,12.149 8.246,19.864c-2.493,6.467 -9.269,10.014 -15.368,13.252c-28.001,14.864 -59.551,22.639 -91.592,22.212c-22.076,-0.295 -44.118,-4.444 -64.76,-12.222c0,0 -3.942,-1.609 -6.323,-4.023c-6.622,-6.713 -6.048,-19.521 2.678,-24.817c2.671,-1.621 5.804,-2.432 8.943,-2.384Zm62.905,-232.808c12.381,0.074 24.732,2.698 36.044,7.778c1.541,0.692 8.658,4.885 9.857,11.975c1.57,9.282 -6.036,19.504 -16.252,18.869c-5.407,-0.336 -10.238,-3.412 -15.606,-4.8c-15.487,-4.004 -32.782,-0.96 -46.014,8.077l-0.992,0.644c-4.197,2.35 -9.303,3.173 -13.802,1.515c-9.757,-3.598 -14.548,-17.429 -5.979,-26.261c3.925,-4.046 9.246,-6.597 14.179,-8.989c11.767,-5.707 24.896,-8.728 37.856,-8.808c0.236,0 0.473,0 0.709,0Z" style="fill:url(#_Linear3);"/><path d="M271.806,630.833c9.709,0.169 18.411,10.352 15.397,20.316c-2.314,7.65 -10.698,11.487 -18.414,15.263c-53.211,26.041 -116.273,31.467 -172.902,15.129c-6.613,-1.909 -13.771,-3.391 -18.12,-7.951c-3.815,-4 -5.116,-10.126 -3.318,-15.502c2.462,-7.361 10.295,-12.557 18.439,-10.977l0.886,0.225c10.03,3.168 20.239,6.13 30.651,8.023c44.624,8.113 91.679,1.73 132.502,-18.785c4.696,-2.36 9.066,-5.592 14.327,-5.739c0.184,-0.003 0.368,-0.004 0.552,-0.002Zm-108.731,-319.812c18.239,0.096 36.236,3.69 53.014,10.622c6.511,2.741 11.452,9.559 10.626,16.852c-1.067,9.426 -11.973,16.546 -21.549,13.231c-2.383,-0.825 -4.682,-1.872 -7.068,-2.693c-30.676,-10.568 -66.388,-6.309 -93.764,11.322c-0.157,0.094 -0.156,0.095 -0.315,0.188c-4.121,2.372 -9.236,2.877 -13.619,1.155c-10.377,-4.076 -14.753,-19.5 -3.873,-27.812c4.667,-3.566 10.032,-6.253 15.378,-8.847c18.514,-8.986 39.086,-13.821 59.618,-14.015c0.518,-0.003 1.035,-0.004 1.552,-0.003Z" style="fill:url(#_Linear4);"/><path d="M288.128,679.933c9.949,0.185 18.706,10.83 14.974,21.463c-0.679,1.932 -1.909,3.606 -3.216,5.219l-1.74,1.667c-1.629,1.146 -1.456,1.198 -3.228,2.096c-0.388,0.197 -0.776,0.392 -1.165,0.587c-64.101,32.121 -139.089,39.456 -207.495,20.84c-2.889,-0.786 -5.762,-1.621 -8.624,-2.484l-1.126,-0.401c-4.703,-2.063 -8.781,-6.001 -9.936,-11.332c-1.81,-8.356 3.373,-18.129 13.025,-19.401c0.638,-0.078 1.512,-0.178 1.512,-0.178l2.251,0.027c5.101,0.788 10.259,2.659 15.5,3.977c59.203,14.888 123.911,8.053 178.418,-18.594c0.13,-0.065 0.26,-0.13 0.389,-0.197c3.172,-1.656 6.414,-3.225 10.051,-3.289c0.137,-0.001 0.273,-0.001 0.41,0Zm-155.224,-182.443c1.993,0.059 3.968,0.428 5.843,1.072c1.211,0.416 6.141,2.688 10.909,3.858c14.068,3.453 29.532,1.859 42.017,-5.988c5.497,-3.479 11.742,-6.573 17.962,-4.464c8.592,2.914 13.793,14.165 9.128,22.698c-3.059,5.597 -9.426,8.838 -15.577,11.949c-20.735,10.484 -45.821,12.322 -67.784,5.01c-6.79,-2.287 -14.114,-4.935 -17.155,-11.813c-4.027,-9.109 2.616,-21.771 13.528,-22.308c0.322,-0.016 0.359,-0.026 1.129,-0.014Zm30.376,-288.477c26.064,0.085 52.159,4.428 76.808,12.736c0,0 2.325,0.794 4.226,2.017c5.625,3.618 8.851,10.786 7.092,17.291c-2.09,7.731 -10.398,13.379 -18.284,11.942c-2.455,-0.448 -4.764,-1.448 -7.16,-2.207c-49.733,-15.67 -105.81,-11.835 -153.231,10.618c-3.649,1.727 -7.243,3.568 -10.789,5.511l-1.387,0.723c-3.63,1.635 -7.853,1.989 -11.644,0.668c-9.161,-3.194 -14.62,-15.47 -8.379,-24.178c3.752,-5.235 10.365,-7.701 16.165,-10.542c32.484,-15.91 68.529,-24.344 104.627,-24.576c0.652,-0.003 1.304,-0.004 1.956,-0.003Z" style="fill:url(#_Linear5);"/><defs><linearGradient id="_Linear1" x1="0" y1="0" x2="1" y2="0" gradientUnits="userSpaceOnUse" gradientTransform="matrix(59.7717,-5.22934,5.22934,59.7717,132.865,452.617)"><stop offset="0" style="stop-color:#ffe8f8;stop-opacity:1"/><stop offset="1" style="stop-color:#f8cbe2;stop-opacity:1"/></linearGradient><linearGradient id="_Linear2" x1="0" y1="0" x2="1" y2="0" gradientUnits="userSpaceOnUse" gradientTransform="matrix(188.227,0,0,328.957,57.4792,424.505)"><stop offset="0" style="stop-color:#e1d6ff;stop-opacity:1"/><stop offset="1" style="stop-color:#bfa0fd;stop-opacity:1"/></linearGradient><linearGradient id="_Linear3" x1="0" y1="0" x2="1" y2="0" gradientUnits="userSpaceOnUse" gradientTransform="matrix(268.349,0,0,337.062,50.7984,471.45)"><stop offset="0" style="stop-color:#fee5a5;stop-opacity:1"/><stop offset="1" style="stop-color:#fdfbca;stop-opacity:1"/></linearGradient><linearGradient id="_Linear4" x1="0" y1="0" x2="1" y2="0" gradientUnits="userSpaceOnUse" gradientTransform="matrix(218.904,0,0,573.803,73.6517,493.345)"><stop offset="0" style="stop-color:#fd9ca7;stop-opacity:1"/><stop offset="1" style="stop-color:#ffd0d8;stop-opacity:1"/></linearGradient><linearGradient id="_Linear5" x1="0" y1="0" x2="1" y2="0" gradientUnits="userSpaceOnUse" gradientTransform="matrix(266.122,0,0,532.862,37.858,475.444)"><stop offset="0" style="stop-color:#d7f9fa;stop-opacity:1"/><stop offset="1" style="stop-color:#a3f0e8;stop-opacity:1"/></linearGradient></defs></svg>