<?xml version="1.0" encoding="UTF-8" standalone="no"?>
<!-- Generator: Gravit.io -->
<svg xmlns="http://www.w3.org/2000/svg" xmlns:xlink="http://www.w3.org/1999/xlink" style="isolation:isolate" viewBox="896 794.981 63.917 28.5" width="63.917" height="28.5"><path d=" M 934.816 820.347 L 934.183 820.981 L 922.234 820.981 Q 921.6 820.347 921.6 820.347 C 921.114 819.858 920.323 819.858 919.835 820.347 C 919.348 820.835 919.347 821.626 919.835 822.114 C 919.835 822.114 920.834 823.114 920.834 823.114 C 921.068 823.349 921.385 823.481 921.717 823.481 C 921.717 823.481 934.7 823.481 934.7 823.481 C 935.031 823.481 935.348 823.349 935.582 823.114 C 935.582 823.114 936.581 822.114 936.581 822.114 C 937.069 821.626 937.069 820.835 936.581 820.347 C 936.093 819.858 935.304 819.858 934.816 820.347 M 908.733 794.981 C 901.701 794.981 896 800.689 896 807.73 C 896 814.772 901.701 820.48 908.733 820.48 C 915.766 820.48 921.467 814.772 921.467 807.73 C 921.467 800.688 915.766 794.981 908.733 794.981 M 908.734 817.981 C 903.089 817.981 898.497 813.383 898.497 807.731 C 898.497 802.079 903.089 797.481 908.734 797.481 C 914.379 797.481 918.971 802.079 918.971 807.731 C 918.971 813.383 914.379 817.981 908.734 817.981 M 908.733 794.981 Z  M 947.184 794.981 C 940.151 794.981 934.45 800.689 934.45 807.73 C 934.45 814.772 940.151 820.48 947.184 820.48 C 954.217 820.48 959.917 814.772 959.917 807.73 C 959.917 800.688 954.216 794.981 947.184 794.981 Z  M 947.184 817.981 C 941.539 817.981 936.947 813.383 936.947 807.731 C 936.947 802.079 941.539 797.481 947.184 797.481 C 952.83 797.481 957.421 802.079 957.421 807.731 C 957.421 813.383 952.829 817.981 947.184 817.981 Z " fill-rule="evenodd" fill="rgb(74,74,74)"/></svg>