<?xml version="1.0" encoding="UTF-8" standalone="no"?><!DOCTYPE svg PUBLIC "-//W3C//DTD SVG 1.1//EN" "http://www.w3.org/Graphics/SVG/1.1/DTD/svg11.dtd"><svg width="100%" height="100%" viewBox="0 0 326 900" version="1.1" xmlns="http://www.w3.org/2000/svg" xmlns:xlink="http://www.w3.org/1999/xlink" xml:space="preserve" xmlns:serif="http://www.serif.com/" style="fill-rule:evenodd;clip-rule:evenodd;stroke-linejoin:round;stroke-miterlimit:1.41421;"><rect id="Artboard1" x="0" y="0" width="325.5" height="900" style="fill:none;"/><g><path d="M206.691,747.521c-0.866,-9.896 -9.604,-17.228 -19.501,-16.362c-9.896,0.866 -17.228,9.603 -16.362,19.5l10.262,117.302c0.866,9.897 9.604,17.228 19.501,16.363c9.896,-0.866 17.228,-9.604 16.362,-19.501l-10.262,-117.302Z" style="fill:#ebebeb;"/><path d="M263.067,772.327c-0.866,-9.896 -9.604,-17.228 -19.5,-16.362c-9.897,0.865 -17.229,9.603 -16.363,19.5c0.866,9.897 9.604,17.228 19.5,16.363c9.897,-0.866 17.229,-9.604 16.363,-19.501Z" style="fill:#ebebeb;"/><path d="M286.335,418.704c-0.865,-9.897 -9.603,-17.229 -19.5,-16.363c-9.897,0.866 -17.229,9.604 -16.363,19.5l15.492,177.074c0.866,9.897 9.604,17.228 19.501,16.363c9.896,-0.866 17.228,-9.604 16.362,-19.501l-15.492,-177.073Z" style="fill:#ebebeb;"/><path d="M271.826,872.445c-0.866,-9.897 -9.603,-17.229 -19.5,-16.363c-9.897,0.866 -17.229,9.604 -16.363,19.5c0.866,9.897 9.604,17.229 19.501,16.363c9.896,-0.866 17.228,-9.604 16.362,-19.5Zm-70.299,-183.948c-0.866,-9.897 -9.604,-17.229 -19.501,-16.363c-9.896,0.866 -17.228,9.604 -16.362,19.5c0.865,9.897 9.603,17.229 19.5,16.363c9.897,-0.866 17.229,-9.603 16.363,-19.5Zm-63.11,-101.762c-0.865,-9.897 -9.603,-17.229 -19.5,-16.363c-9.897,0.866 -17.228,9.604 -16.363,19.501l5.099,58.277c0.866,9.897 9.604,17.228 19.5,16.363c9.897,-0.866 17.229,-9.604 16.363,-19.501l-5.099,-58.277Zm98.373,-114.76c-0.866,-9.897 -9.604,-17.229 -19.501,-16.363c-9.896,0.866 -17.228,9.603 -16.362,19.5c0.866,9.897 9.603,17.229 19.5,16.363c9.897,-0.866 17.229,-9.604 16.363,-19.5Zm-174.849,-139.793c-0.866,-9.897 -9.604,-17.229 -19.501,-16.363c-9.896,0.866 -17.228,9.604 -16.362,19.5l5.164,59.025c0.865,9.896 9.603,17.228 19.5,16.363c9.897,-0.866 17.228,-9.604 16.363,-19.501l-5.164,-59.024Zm213.021,-43.482c-0.866,-9.896 -9.604,-17.228 -19.501,-16.362c-9.896,0.865 -17.228,9.603 -16.362,19.5l5.163,59.024c0.866,9.897 9.604,17.229 19.501,16.363c9.896,-0.866 17.228,-9.604 16.363,-19.5l-5.164,-59.025Z" style="fill:url(#_Linear1);"/><path d="M161.1,845.995c-0.866,-9.897 -9.604,-17.229 -19.501,-16.363c-9.896,0.866 -17.228,9.604 -16.362,19.5c0.865,9.897 9.603,17.229 19.5,16.363c9.897,-0.866 17.229,-9.604 16.363,-19.5Zm31.112,-263.966c-0.866,-9.897 -9.604,-17.229 -19.5,-16.363c-9.897,0.866 -17.229,9.603 -16.363,19.5c0.866,9.897 9.604,17.229 19.5,16.363c9.897,-0.866 17.229,-9.604 16.363,-19.5Zm-119.943,-131.798c-0.866,-9.897 -9.604,-17.229 -19.501,-16.363c-9.896,0.866 -17.228,9.604 -16.362,19.5c0.865,9.897 9.603,17.229 19.5,16.363c9.896,-0.866 17.228,-9.604 16.363,-19.5Zm99.287,-104.301c-0.866,-9.896 -9.604,-17.228 -19.5,-16.362c-9.897,0.866 -17.229,9.603 -16.363,19.5c0.866,9.897 9.604,17.229 19.5,16.363c9.897,-0.866 17.229,-9.604 16.363,-19.501Zm-72.489,-208.977c-0.866,-9.897 -9.604,-17.229 -19.501,-16.363c-9.896,0.866 -17.228,9.604 -16.362,19.501l10.393,118.796c0.866,9.897 9.604,17.228 19.5,16.363c9.897,-0.866 17.229,-9.604 16.363,-19.501l-10.393,-118.796Zm169.75,81.515c-0.866,-9.896 -9.604,-17.228 -19.5,-16.362c-9.897,0.866 -17.229,9.603 -16.363,19.5c0.866,9.897 9.604,17.229 19.5,16.363c9.897,-0.866 17.229,-9.604 16.363,-19.501Z" style="fill:url(#_Linear2);"/><path d="M308.037,666.756c-0.866,-9.897 -9.604,-17.228 -19.5,-16.363c-9.897,0.866 -17.229,9.604 -16.363,19.501c0.866,9.896 9.604,17.228 19.5,16.362c9.897,-0.865 17.229,-9.603 16.363,-19.5Zm-64.057,-112.595c-0.866,-9.897 -9.604,-17.229 -19.5,-16.363c-9.897,0.866 -17.229,9.604 -16.363,19.5c0.866,9.897 9.604,17.229 19.5,16.363c9.897,-0.866 17.229,-9.604 16.363,-19.5Zm-135.275,-101.848c9.849,-0.798 18.522,6.515 19.384,16.373c0.863,9.858 -6.408,18.566 -16.246,19.49l-0.116,0.01c-9.897,0.866 -18.635,-6.466 -19.501,-16.363c-0.865,-9.896 6.466,-18.634 16.363,-19.5l0.116,-0.01Zm52.523,-224.432c-0.866,-9.896 -9.604,-17.228 -19.5,-16.362c-9.897,0.865 -17.229,9.603 -16.363,19.5l5.164,59.024c0.866,9.897 9.604,17.229 19.5,16.363c9.897,-0.866 17.229,-9.603 16.363,-19.5l-5.164,-59.025Z" style="fill:url(#_Linear3);"/><path d="M78.446,520.836c-0.866,-9.897 -9.604,-17.228 -19.501,-16.363c-9.896,0.866 -17.228,9.604 -16.362,19.501l15.492,177.073c0.865,9.897 9.603,17.229 19.5,16.363c9.897,-0.866 17.228,-9.604 16.363,-19.5l-15.492,-177.074Zm132.524,-343.984c-0.866,-9.897 -9.604,-17.229 -19.501,-16.363c-9.896,0.866 -17.228,9.604 -16.362,19.5l20.656,236.099c0.866,9.896 9.603,17.228 19.5,16.362c9.897,-0.866 17.229,-9.603 16.363,-19.5l-20.656,-236.098Z" style="fill:url(#_Linear4);"/><path d="M249.209,613.932c-0.865,-9.896 -9.603,-17.228 -19.5,-16.362c-9.897,0.865 -17.228,9.603 -16.363,19.5l5.099,58.277c0.866,9.897 9.604,17.229 19.5,16.363c9.897,-0.866 17.229,-9.604 16.363,-19.5l-5.099,-58.278Zm-72.489,-208.977c-0.866,-9.897 -9.604,-17.229 -19.5,-16.363c-9.897,0.866 -17.229,9.604 -16.363,19.501l10.328,118.049c0.866,9.896 9.604,17.228 19.5,16.362c9.897,-0.866 17.229,-9.603 16.363,-19.5l-10.328,-118.049Zm76.605,-363.56c-0.866,-9.897 -9.604,-17.229 -19.5,-16.363c-9.897,0.866 -17.229,9.604 -16.363,19.5c0.866,9.897 9.604,17.229 19.5,16.363c9.897,-0.866 17.229,-9.603 16.363,-19.5Zm-180.833,-3.001c9.849,-0.798 18.522,6.515 19.384,16.373c0.863,9.858 -6.409,18.566 -16.247,19.49l-0.115,0.01c-9.897,0.866 -18.635,-6.466 -19.501,-16.362c-0.866,-9.897 6.466,-18.635 16.363,-19.501l0.116,-0.01Z" style="fill:url(#_Linear5);"/></g><defs><linearGradient id="_Linear1" x1="0" y1="0" x2="1" y2="0" gradientUnits="userSpaceOnUse" gradientTransform="matrix(254.574,-44.8882,105.983,601.061,70.0495,614.835)"><stop offset="0" style="stop-color:#e1d6ff;stop-opacity:1"/><stop offset="1" style="stop-color:#bfa0fd;stop-opacity:1"/></linearGradient><linearGradient id="_Linear2" x1="0" y1="0" x2="1" y2="0" gradientUnits="userSpaceOnUse" gradientTransform="matrix(265.71,-46.8519,129.375,733.725,45.4059,504.812)"><stop offset="0" style="stop-color:#d7f9fa;stop-opacity:1"/><stop offset="1" style="stop-color:#a3f0e8;stop-opacity:1"/></linearGradient><linearGradient id="_Linear3" x1="0" y1="0" x2="1" y2="0" gradientUnits="userSpaceOnUse" gradientTransform="matrix(257.535,-45.4104,104.595,593.188,49.9217,423.139)"><stop offset="0" style="stop-color:#fee5a5;stop-opacity:1"/><stop offset="1" style="stop-color:#fdfbca;stop-opacity:1"/></linearGradient><linearGradient id="_Linear4" x1="0" y1="0" x2="1" y2="0" gradientUnits="userSpaceOnUse" gradientTransform="matrix(243.341,-42.9075,138.742,786.847,13.6607,449.563)"><stop offset="0" style="stop-color:#fd9ca7;stop-opacity:1"/><stop offset="1" style="stop-color:#ffd0d8;stop-opacity:1"/></linearGradient><linearGradient id="_Linear5" x1="0" y1="0" x2="1" y2="0" gradientUnits="userSpaceOnUse" gradientTransform="matrix(318.497,-56.1596,148.927,844.61,3.38051,485.934)"><stop offset="0" style="stop-color:#ffe8f8;stop-opacity:1"/><stop offset="1" style="stop-color:#f8cbe2;stop-opacity:1"/></linearGradient></defs></svg>