<?xml version="1.0" encoding="UTF-8" standalone="no"?><!DOCTYPE svg PUBLIC "-//W3C//DTD SVG 1.1//EN" "http://www.w3.org/Graphics/SVG/1.1/DTD/svg11.dtd"><svg width="100%" height="100%" viewBox="0 0 326 900" version="1.1" xmlns="http://www.w3.org/2000/svg" xmlns:xlink="http://www.w3.org/1999/xlink" xml:space="preserve" xmlns:serif="http://www.serif.com/" style="fill-rule:evenodd;clip-rule:evenodd;stroke-linejoin:round;stroke-miterlimit:1.41421;"><rect id="Artboard1" x="0" y="0" width="325.5" height="900" style="fill:none;"/><path d="M156.887,749.232c0.866,-9.897 -6.466,-18.635 -16.363,-19.501c-9.896,-0.866 -18.634,6.466 -19.5,16.363l-10.263,117.302c-0.865,9.897 6.466,18.634 16.363,19.5c9.897,0.866 18.635,-6.466 19.5,-16.362l10.263,-117.302Z" style="fill:#ebebeb;"/><path d="M208.1,783.45c0.865,-9.896 -6.467,-18.634 -16.363,-19.5c-9.897,-0.866 -18.635,6.466 -19.501,16.363c-0.865,9.896 6.467,18.634 16.363,19.5c9.897,0.866 18.635,-6.466 19.501,-16.363Z" style="fill:#ebebeb;"/><path d="M292.42,439.24c0.866,-9.897 -6.466,-18.635 -16.362,-19.501c-9.897,-0.866 -18.635,6.466 -19.501,16.363l-15.492,177.074c-0.865,9.896 6.466,18.634 16.363,19.5c9.897,0.866 18.635,-6.466 19.5,-16.363l15.492,-177.073Z" style="fill:#ebebeb;"/><path d="M199.34,883.568c0.866,-9.897 -6.466,-18.635 -16.362,-19.5c-9.897,-0.866 -18.635,6.466 -19.501,16.362c-0.865,9.897 6.466,18.635 16.363,19.501c9.897,0.865 18.635,-6.466 19.5,-16.363Zm-37.289,-193.361c0.866,-9.897 -6.466,-18.634 -16.363,-19.5c-9.896,-0.866 -18.634,6.466 -19.5,16.362c-0.866,9.897 6.466,18.635 16.363,19.501c9.896,0.866 18.634,-6.466 19.5,-16.363Zm-44.48,-111.175c0.866,-9.896 -6.466,-18.634 -16.362,-19.5c-9.897,-0.866 -18.635,6.466 -19.501,16.363l-5.098,58.277c-0.866,9.897 6.466,18.635 16.362,19.5c9.897,0.866 18.635,-6.466 19.501,-16.362l5.098,-58.278Zm116.806,-95.934c0.866,-9.897 -6.466,-18.635 -16.363,-19.501c-9.896,-0.866 -18.634,6.466 -19.5,16.363c-0.866,9.897 6.466,18.634 16.363,19.5c9.896,0.866 18.634,-6.466 19.5,-16.362Zm-147.918,-168.032c0.866,-9.896 -6.466,-18.634 -16.363,-19.5c-9.896,-0.866 -18.634,6.466 -19.5,16.363l-5.164,59.024c-0.866,9.897 6.466,18.635 16.363,19.501c9.896,0.865 18.634,-6.467 19.5,-16.363l5.164,-59.025Zm217.335,-5.83c0.866,-9.897 -6.466,-18.634 -16.363,-19.5c-9.896,-0.866 -18.634,6.466 -19.5,16.362l-5.164,59.025c-0.866,9.897 6.466,18.634 16.363,19.5c9.897,0.866 18.634,-6.466 19.5,-16.362l5.164,-59.025Z" style="fill:url(#_Linear1);"/><path d="M94.889,838.292c0.866,-9.897 -6.466,-18.634 -16.363,-19.5c-9.896,-0.866 -18.634,6.466 -19.5,16.362c-0.866,9.897 6.466,18.635 16.363,19.501c9.896,0.866 18.634,-6.466 19.5,-16.363Zm76.477,-254.553c0.866,-9.897 -6.466,-18.635 -16.363,-19.501c-9.897,-0.865 -18.634,6.466 -19.5,16.363c-0.866,9.897 6.466,18.635 16.362,19.5c9.897,0.866 18.635,-6.466 19.501,-16.362Zm-95.235,-150.624c0.866,-9.896 -6.466,-18.634 -16.363,-19.5c-9.896,-0.866 -18.634,6.466 -19.5,16.363c-0.866,9.896 6.466,18.634 16.363,19.5c9.896,0.866 18.634,-6.466 19.5,-16.363Zm115.891,-85.474c0.865,-9.897 -6.466,-18.635 -16.363,-19.501c-9.897,-0.866 -18.635,6.466 -19.5,16.363c-0.866,9.897 6.466,18.634 16.362,19.5c9.897,0.866 18.635,-6.466 19.501,-16.362Zm-35.1,-218.391c0.866,-9.896 -6.466,-18.634 -16.363,-19.5c-9.896,-0.866 -18.634,6.466 -19.5,16.363l-10.393,118.796c-0.866,9.897 6.466,18.635 16.362,19.5c9.897,0.866 18.635,-6.466 19.501,-16.362l10.393,-118.797Zm153.017,109.754c0.865,-9.896 -6.466,-18.634 -16.363,-19.5c-9.897,-0.866 -18.635,6.466 -19.5,16.363c-0.866,9.896 6.466,18.634 16.362,19.5c9.897,0.866 18.635,-6.466 19.501,-16.363Z" style="fill:url(#_Linear2);"/><path d="M270.719,687.292c0.865,-9.897 -6.466,-18.634 -16.363,-19.5c-9.897,-0.866 -18.635,6.466 -19.5,16.362c-0.866,9.897 6.466,18.635 16.362,19.501c9.897,0.866 18.635,-6.466 19.501,-16.363Zm-43.532,-122.008c0.865,-9.897 -6.466,-18.635 -16.363,-19.501c-9.897,-0.866 -18.635,6.466 -19.5,16.363c-0.866,9.897 6.466,18.635 16.362,19.5c9.897,0.866 18.635,-6.466 19.501,-16.362Zm-115.535,-123.791c9.838,0.924 17.11,9.632 16.247,19.49c-0.862,9.858 -9.535,17.172 -19.384,16.373l-0.116,-0.01c-9.897,-0.866 -17.229,-9.604 -16.363,-19.5c0.866,-9.897 9.604,-17.229 19.5,-16.363l0.116,0.01Zm90.698,-211.901c0.865,-9.897 -6.466,-18.635 -16.363,-19.501c-9.897,-0.866 -18.635,6.466 -19.5,16.363l-5.164,59.024c-0.866,9.897 6.466,18.635 16.362,19.501c9.897,0.866 18.635,-6.466 19.501,-16.363l5.164,-59.024Z" style="fill:url(#_Linear3);"/><path d="M69.954,503.721c0.866,-9.897 -6.466,-18.635 -16.363,-19.501c-9.897,-0.866 -18.634,6.466 -19.5,16.363l-15.492,177.074c-0.866,9.896 6.466,18.634 16.363,19.5c9.896,0.866 18.634,-6.466 19.5,-16.363l15.492,-177.073Zm190.243,-315.746c0.866,-9.897 -6.466,-18.635 -16.363,-19.5c-9.897,-0.866 -18.634,6.466 -19.5,16.362l-20.656,236.098c-0.866,9.897 6.466,18.635 16.363,19.501c9.896,0.866 18.634,-6.466 19.5,-16.363l20.656,-236.098Z" style="fill:url(#_Linear4);"/><path d="M221.957,625.055c0.866,-9.896 -6.466,-18.634 -16.362,-19.5c-9.897,-0.866 -18.635,6.466 -19.501,16.363l-5.098,58.277c-0.866,9.897 6.466,18.635 16.362,19.5c9.897,0.866 18.635,-6.466 19.501,-16.362l5.098,-58.278Zm-35.099,-218.39c0.866,-9.897 -6.466,-18.634 -16.363,-19.5c-9.897,-0.866 -18.634,6.466 -19.5,16.363l-10.328,118.049c-0.866,9.896 6.466,18.634 16.362,19.5c9.897,0.866 18.635,-6.466 19.501,-16.363l10.328,-118.049Zm138.573,-344.734c0.865,-9.897 -6.466,-18.635 -16.363,-19.501c-9.897,-0.865 -18.635,6.466 -19.5,16.363c-0.866,9.897 6.466,18.635 16.362,19.5c9.897,0.866 18.635,-6.466 19.501,-16.362Zm-177.565,-34.356c9.837,0.923 17.109,9.631 16.246,19.489c-0.862,9.858 -9.535,17.172 -19.384,16.373l-0.116,-0.01c-9.897,-0.866 -17.228,-9.604 -16.363,-19.5c0.866,-9.897 9.604,-17.229 19.501,-16.363l0.116,0.011Z" style="fill:url(#_Linear5);"/><defs><linearGradient id="_Linear1" x1="0" y1="0" x2="1" y2="0" gradientUnits="userSpaceOnUse" gradientTransform="matrix(258.501,0,0,610.334,45.3626,594.833)"><stop offset="0" style="stop-color:#e1d6ff;stop-opacity:1"/><stop offset="1" style="stop-color:#bfa0fd;stop-opacity:1"/></linearGradient><linearGradient id="_Linear2" x1="0" y1="0" x2="1" y2="0" gradientUnits="userSpaceOnUse" gradientTransform="matrix(269.809,0,0,745.043,40.1986,482.202)"><stop offset="0" style="stop-color:#d7f9fa;stop-opacity:1"/><stop offset="1" style="stop-color:#a3f0e8;stop-opacity:1"/></linearGradient><linearGradient id="_Linear3" x1="0" y1="0" x2="1" y2="0" gradientUnits="userSpaceOnUse" gradientTransform="matrix(261.508,0,0,602.339,58.8281,402.555)"><stop offset="0" style="stop-color:#fee5a5;stop-opacity:1"/><stop offset="1" style="stop-color:#fdfbca;stop-opacity:1"/></linearGradient><linearGradient id="_Linear4" x1="0" y1="0" x2="1" y2="0" gradientUnits="userSpaceOnUse" gradientTransform="matrix(247.095,0,0,798.985,18.5295,422.281)"><stop offset="0" style="stop-color:#fd9ca7;stop-opacity:1"/><stop offset="1" style="stop-color:#ffd0d8;stop-opacity:1"/></linearGradient><linearGradient id="_Linear5" x1="0" y1="0" x2="1" y2="0" gradientUnits="userSpaceOnUse" gradientTransform="matrix(323.41,0,0,857.639,2.08973,456.314)"><stop offset="0" style="stop-color:#ffe8f8;stop-opacity:1"/><stop offset="1" style="stop-color:#f8cbe2;stop-opacity:1"/></linearGradient></defs></svg>