<?xml version="1.0" encoding="utf-8"?>
<!-- Generator: Adobe Illustrator 22.0.1, SVG Export Plug-In . SVG Version: 6.00 Build 0)  -->
<svg version="1.1" id="Layer_1" xmlns="http://www.w3.org/2000/svg" xmlns:xlink="http://www.w3.org/1999/xlink" x="0px" y="0px"
	 viewBox="0 0 239.8 767.1" style="enable-background:new 0 0 239.8 767.1;" xml:space="preserve">
<style type="text/css">
	.st0{fill:#84CEC6;}
</style>
<g>
	<path class="st0" d="M104.8,49.4c1.7-0.1,3-1.6,2.9-3.4l-0.5-6.2c-0.3-4,3.1-9.1,4.5-10.7c0,0-0.6-0.5-1.9-1.6l4.6-5.4l-1-0.8
		l-4.6,5.4c-1.3-1.1-1.9-1.6-1.9-1.6c-0.7,0.8-6.6,7.9-6,15.2l0.5,6.2C101.6,48.3,103.1,49.5,104.8,49.4 M94.8,50.2
		c1.7-0.1,3-1.6,2.9-3.4c0,0-0.5-6.2-1.5-18.7l-2.5,0.2l-0.6-7.5L91.9,21l0.6,7.5L90,28.6c1,12.5,1.5,18.7,1.5,18.7
		C91.6,49,93.1,50.3,94.8,50.2 M77.3,29.2L72,24.6l-0.8,1l5.4,4.6L77.3,29.2z M111.4,45.8c0.1,1.7,1.6,3,3.4,2.9
		c1.7-0.1,3-1.6,2.9-3.4c-0.2-2.5,1.5-3.2,2.9-3.4c0,0-0.1-0.8-0.2-2.5l7.5-0.6l-0.1-1.2l-7.5,0.6c-0.1-1.7-0.2-2.5-0.2-2.5
		C116.2,36,110.8,38.9,111.4,45.8 M65.4,39c1.5,1.3,5.8,5.8,6.1,9.8c0.1,1.7,1.6,3,3.4,2.9c1.7-0.1,3-1.6,2.9-3.4
		c-0.6-7.3-7.5-13.4-8.3-14.1c0,0-0.5,0.6-1.6,1.9l-5.4-4.6l-0.8,1l5.4,4.6C66,38.4,65.4,39,65.4,39z M81,41.9
		c0.3,4.2,0.5,6.2,0.5,6.2c0.1,1.7,1.6,3,3.4,2.9c1.7-0.1,3-1.6,2.9-3.4l-0.5-6.2C86.7,34.1,79.7,28,79,27.3L74.9,32
		C76.4,33.3,80.7,37.8,81,41.9 M116.6,124.9l-1.5,1.7L85.4,129c-1.1-1-1.7-1.5-1.7-1.5c-1.3-1.1-3.3-1-4.4,0.3
		c-1.1,1.3-1,3.3,0.3,4.4l2.7,2.3c0.6,0.5,1.4,0.8,2.3,0.7l32.3-2.5c0.8-0.1,1.6-0.5,2.1-1.1l2.3-2.7c1.1-1.3,1-3.3-0.3-4.4
		C119.7,123.4,117.8,123.6,116.6,124.9 M46.7,66.8c-17.5,1.4-30.6,16.7-29.2,34.3c1.4,17.5,16.7,30.7,34.2,29.3
		c17.5-1.4,30.6-16.7,29.2-34.3C79.5,78.6,64.2,65.4,46.7,66.8 M51.2,124.1c-14.1,1.1-26.4-9.4-27.5-23.5
		c-1.1-14.1,9.4-26.4,23.5-27.5c14.1-1.1,26.4,9.4,27.5,23.5C75.8,110.7,65.3,123,51.2,124.1z M142.5,59.3
		C125,60.7,111.9,76,113.3,93.6s16.7,30.7,34.2,29.3c17.5-1.4,30.6-16.7,29.2-34.3C175.3,71,160,57.9,142.5,59.3z M147,116.6
		c-14.1,1.1-26.4-9.4-27.5-23.5c-1.1-14.1,9.4-26.4,23.5-27.5C157,64.4,169.4,75,170.5,89C171.6,103.1,161.1,115.5,147,116.6z"/>
	<path class="st0" d="M116.8,202.3c1.7-0.1,3-1.6,2.9-3.4l-0.5-6.2c-0.3-4,3.1-9.1,4.5-10.7c0,0-0.6-0.5-1.9-1.6l4.6-5.4l-1-0.8
		l-4.6,5.4c-1.3-1.1-1.9-1.6-1.9-1.6c-0.7,0.8-6.6,7.9-6,15.2l0.5,6.2C113.6,201.2,115.1,202.5,116.8,202.3 M106.9,203.1
		c1.7-0.1,3-1.6,2.9-3.4c0,0-0.5-6.2-1.5-18.7l-2.5,0.2l-0.6-7.5l-1.2,0.1l0.6,7.5l-2.5,0.2c1,12.5,1.5,18.7,1.5,18.7
		C103.6,202,105.1,203.3,106.9,203.1 M89.4,182.1l-5.4-4.6l-0.8,1l5.4,4.6L89.4,182.1z M123.4,198.7c0.1,1.7,1.6,3,3.4,2.9
		c1.7-0.1,3-1.6,2.9-3.4c-0.2-2.5,1.5-3.2,2.9-3.4c0,0-0.1-0.8-0.2-2.5l7.5-0.6l-0.1-1.2l-7.5,0.6c-0.1-1.7-0.2-2.5-0.2-2.5
		C128.3,188.9,122.9,191.8,123.4,198.7 M77.5,192c1.5,1.3,5.8,5.8,6.1,9.8c0.1,1.7,1.6,3,3.4,2.9c1.7-0.1,3-1.6,2.9-3.4
		c-0.6-7.3-7.5-13.4-8.3-14.1c0,0-0.5,0.6-1.6,1.9l-5.4-4.6l-0.8,1l5.4,4.6C78,191.4,77.5,192,77.5,192z M93.1,194.8
		c0.3,4.2,0.5,6.2,0.5,6.2c0.1,1.7,1.6,3,3.4,2.9c1.7-0.1,3-1.6,2.9-3.4l-0.5-6.2c-0.6-7.3-7.5-13.4-8.3-14.1l-4.1,4.8
		C88.4,186.2,92.7,190.8,93.1,194.8 M128.7,277.9l-1.5,1.7l-29.8,2.3c-1.1-1-1.7-1.5-1.7-1.5c-1.3-1.1-3.3-1-4.4,0.3
		c-1.1,1.3-1,3.3,0.3,4.4l2.7,2.3c0.6,0.5,1.4,0.8,2.3,0.7l32.3-2.5c0.8-0.1,1.6-0.5,2.1-1.1l2.3-2.7c1.1-1.3,1-3.3-0.3-4.4
		C131.8,276.4,129.8,276.5,128.7,277.9 M58.7,219.8c-17.5,1.4-30.6,16.7-29.2,34.3c1.4,17.5,16.7,30.7,34.2,29.3
		c17.5-1.4,30.6-16.7,29.2-34.3C91.6,231.5,76.2,218.4,58.7,219.8 M63.2,277.1c-14.1,1.1-26.4-9.4-27.5-23.5
		c-1.1-14.1,9.4-26.4,23.5-27.5c14.1-1.1,26.4,9.4,27.5,23.5C87.8,263.6,77.3,276,63.2,277.1z M154.5,212.2
		c-17.5,1.4-30.6,16.7-29.2,34.3s16.7,30.7,34.2,29.3c17.5-1.4,30.6-16.7,29.2-34.3C187.4,224,172,210.8,154.5,212.2z M159,269.5
		c-14.1,1.1-26.4-9.4-27.5-23.5c-1.1-14.1,9.4-26.4,23.5-27.5c14.1-1.1,26.4,9.4,27.5,23.5C183.6,256.1,173.1,268.4,159,269.5z"/>
	<path class="st0" d="M128.9,355.3c1.7-0.1,3-1.6,2.9-3.4l-0.5-6.2c-0.3-4,3.1-9.1,4.5-10.7c0,0-0.6-0.5-1.9-1.6l4.6-5.4l-1-0.8
		l-4.6,5.4c-1.3-1.1-1.9-1.6-1.9-1.6c-0.7,0.8-6.6,7.9-6,15.2l0.5,6.2C125.6,354.1,127.1,355.4,128.9,355.3 M118.9,356.1
		c1.7-0.1,3-1.6,2.9-3.4c0,0-0.5-6.2-1.5-18.7l-2.5,0.2l-0.6-7.5l-1.2,0.1l0.6,7.5l-2.5,0.2c1,12.5,1.5,18.7,1.5,18.7
		C115.7,354.9,117.2,356.2,118.9,356.1 M101.4,335.1l-5.4-4.6l-0.8,1l5.4,4.6L101.4,335.1z M135.5,351.6c0.1,1.7,1.6,3,3.4,2.9
		s3-1.6,2.9-3.4c-0.2-2.5,1.5-3.2,2.9-3.4c0,0-0.1-0.8-0.2-2.5l7.5-0.6l-0.1-1.2l-7.5,0.6c-0.1-1.7-0.2-2.5-0.2-2.5
		C140.3,341.8,134.9,344.8,135.5,351.6 M89.5,344.9c1.5,1.3,5.8,5.8,6.1,9.8c0.1,1.7,1.6,3,3.4,2.9c1.7-0.1,3-1.6,2.9-3.4
		c-0.6-7.3-7.5-13.4-8.3-14.1c0,0-0.5,0.6-1.6,1.9l-5.4-4.6l-0.8,1l5.4,4.6C90.1,344.3,89.5,344.9,89.5,344.9z M105.1,347.8
		c0.3,4.2,0.5,6.2,0.5,6.2c0.1,1.7,1.6,3,3.4,2.9c1.7-0.1,3-1.6,2.9-3.4l-0.5-6.2c-0.6-7.3-7.5-13.4-8.3-14.1l-4.1,4.8
		C100.5,339.2,104.8,343.7,105.1,347.8 M140.7,430.8l-1.5,1.7l-29.8,2.3c-1.1-1-1.7-1.5-1.7-1.5c-1.3-1.1-3.3-1-4.4,0.3
		c-1.1,1.3-1,3.3,0.3,4.4l2.7,2.3c0.6,0.5,1.4,0.8,2.3,0.7l32.3-2.5c0.8-0.1,1.6-0.5,2.1-1.1l2.3-2.7c1.1-1.3,1-3.3-0.3-4.4
		C143.8,429.3,141.8,429.5,140.7,430.8 M70.8,372.7c-17.5,1.4-30.6,16.7-29.2,34.3c1.4,17.5,16.7,30.7,34.2,29.3
		c17.5-1.4,30.6-16.7,29.2-34.3C103.6,384.4,88.3,371.3,70.8,372.7 M75.3,430c-14.1,1.1-26.4-9.4-27.5-23.5
		c-1.1-14.1,9.4-26.4,23.5-27.5c14.1-1.1,26.4,9.4,27.5,23.5C99.9,416.5,89.3,428.9,75.3,430z M166.6,365.2
		c-17.5,1.4-30.6,16.7-29.2,34.3c1.4,17.5,16.7,30.7,34.2,29.3c17.5-1.4,30.6-16.7,29.2-34.3C199.4,376.9,184.1,363.8,166.6,365.2z
		 M171.1,422.5c-14.1,1.1-26.4-9.4-27.5-23.5c-1.1-14.1,9.4-26.4,23.5-27.5c14.1-1.1,26.4,9.4,27.5,23.5
		C195.7,409,185.1,421.4,171.1,422.5z"/>
	<path class="st0" d="M140.9,507.8c1.7-0.1,3-1.6,2.9-3.4l-0.5-6.2c-0.3-4,3.1-9.1,4.5-10.7c0,0-0.6-0.5-1.9-1.6l4.6-5.4l-1-0.8
		l-4.6,5.4c-1.3-1.1-1.9-1.6-1.9-1.6c-0.7,0.8-6.6,7.9-6,15.2l0.5,6.2C137.6,506.7,139.1,507.9,140.9,507.8 M130.9,508.6
		c1.7-0.1,3-1.6,2.9-3.4c0,0-0.5-6.2-1.5-18.7l-2.5,0.2l-0.6-7.5l-1.2,0.1l0.6,7.5l-2.5,0.2c1,12.5,1.5,18.7,1.5,18.7
		C127.7,507.4,129.2,508.7,130.9,508.6 M113.4,487.6l-5.4-4.6l-0.8,1l5.4,4.6L113.4,487.6z M147.5,504.2c0.1,1.7,1.6,3,3.4,2.9
		c1.7-0.1,3-1.6,2.9-3.4c-0.2-2.5,1.5-3.2,2.9-3.4c0,0-0.1-0.8-0.2-2.5l7.5-0.6l-0.1-1.2l-7.5,0.6c-0.1-1.7-0.2-2.5-0.2-2.5
		C152.3,494.4,146.9,497.3,147.5,504.2 M101.5,497.5c1.5,1.3,5.8,5.8,6.1,9.8c0.1,1.7,1.6,3,3.4,2.9c1.7-0.1,3-1.6,2.9-3.4
		c-0.6-7.3-7.5-13.4-8.3-14.1c0,0-0.5,0.6-1.6,1.9l-5.4-4.6l-0.8,1l5.4,4.6C102.1,496.8,101.5,497.5,101.5,497.5z M117.1,500.3
		c0.3,4.2,0.5,6.2,0.5,6.2c0.1,1.7,1.6,3,3.4,2.9c1.7-0.1,3-1.6,2.9-3.4l-0.5-6.2c-0.6-7.3-7.5-13.4-8.3-14.1l-4.1,4.8
		C112.5,491.7,116.8,496.3,117.1,500.3 M152.7,583.3l-1.5,1.7l-29.8,2.3c-1.1-1-1.7-1.5-1.7-1.5c-1.3-1.1-3.3-1-4.4,0.3
		s-1,3.3,0.3,4.4l2.7,2.3c0.6,0.5,1.4,0.8,2.3,0.7l32.3-2.5c0.8-0.1,1.6-0.5,2.1-1.1l2.3-2.7c1.1-1.3,1-3.3-0.3-4.4
		C155.8,581.9,153.8,582,152.7,583.3 M82.8,525.2c-17.5,1.4-30.6,16.7-29.2,34.3s16.7,30.7,34.2,29.3c17.5-1.4,30.6-16.7,29.2-34.3
		C115.6,537,100.3,523.9,82.8,525.2 M87.3,582.5c-14.1,1.1-26.4-9.4-27.5-23.5c-1.1-14.1,9.4-26.4,23.5-27.5
		c14.1-1.1,26.4,9.4,27.5,23.5C111.9,569.1,101.3,581.4,87.3,582.5z M178.6,517.7c-17.5,1.4-30.6,16.7-29.2,34.3
		c1.4,17.5,16.7,30.7,34.2,29.3c17.5-1.4,30.6-16.7,29.2-34.3C211.4,529.4,196.1,516.3,178.6,517.7z M183.1,575
		c-14.1,1.1-26.4-9.4-27.5-23.5c-1.1-14.1,9.4-26.4,23.5-27.5c14.1-1.1,26.4,9.4,27.5,23.5C207.7,561.5,197.1,573.9,183.1,575z"/>
	<path class="st0" d="M152.9,660.8c1.7-0.1,3-1.6,2.9-3.4l-0.5-6.2c-0.3-4,3.1-9.1,4.5-10.7c0,0-0.6-0.5-1.9-1.6l4.6-5.4l-1-0.8
		l-4.6,5.4c-1.3-1.1-1.9-1.6-1.9-1.6c-0.7,0.8-6.6,7.9-6,15.2l0.5,6.2C149.7,659.6,151.2,660.9,152.9,660.8 M142.9,661.5
		c1.7-0.1,3-1.6,2.9-3.4c0,0-0.5-6.2-1.5-18.7l-2.5,0.2l-0.6-7.5l-1.2,0.1l0.6,7.5l-2.5,0.2c1,12.5,1.5,18.7,1.5,18.7
		C139.7,660.4,141.2,661.7,142.9,661.5 M125.5,640.5l-5.4-4.6l-0.8,1l5.4,4.6L125.5,640.5z M159.5,657.1c0.1,1.7,1.6,3,3.4,2.9
		s3-1.6,2.9-3.4c-0.2-2.5,1.5-3.2,2.9-3.4c0,0-0.1-0.8-0.2-2.5l7.5-0.6l-0.1-1.2l-7.5,0.6c-0.1-1.7-0.2-2.5-0.2-2.5
		C164.3,647.3,159,650.2,159.5,657.1 M113.6,650.4c1.5,1.3,5.8,5.8,6.1,9.8c0.1,1.7,1.6,3,3.4,2.9c1.7-0.1,3-1.6,2.9-3.4
		c-0.6-7.3-7.5-13.4-8.3-14.1c0,0-0.5,0.6-1.6,1.9l-5.4-4.6l-0.8,1l5.4,4.6C114.1,649.8,113.6,650.4,113.6,650.4z M129.1,653.2
		c0.3,4.2,0.5,6.2,0.5,6.2c0.1,1.7,1.6,3,3.4,2.9c1.7-0.1,3-1.6,2.9-3.4l-0.5-6.2c-0.6-7.3-7.5-13.4-8.3-14.1l-4.1,4.8
		C124.5,644.7,128.8,649.2,129.1,653.2 M164.8,736.3l-1.5,1.7l-29.8,2.3c-1.1-1-1.7-1.5-1.7-1.5c-1.3-1.1-3.3-1-4.4,0.3
		c-1.1,1.3-1,3.3,0.3,4.4l2.7,2.3c0.6,0.5,1.4,0.8,2.3,0.7l32.3-2.5c0.8-0.1,1.6-0.5,2.1-1.1l2.3-2.7c1.1-1.3,1-3.3-0.3-4.4
		C167.8,734.8,165.9,735,164.8,736.3 M94.8,678.2c-17.5,1.4-30.6,16.7-29.2,34.3c1.4,17.5,16.7,30.7,34.2,29.3
		c17.5-1.4,30.6-16.7,29.2-34.3C127.6,689.9,112.3,676.8,94.8,678.2 M99.3,735.5c-14.1,1.1-26.4-9.4-27.5-23.5
		c-1.1-14.1,9.4-26.4,23.5-27.5c14.1-1.1,26.4,9.4,27.5,23.5C123.9,722,113.4,734.4,99.3,735.5z M190.6,670.6
		c-17.5,1.4-30.6,16.7-29.2,34.3s16.7,30.7,34.2,29.3c17.5-1.4,30.6-16.7,29.2-34.3C223.5,682.4,208.1,669.3,190.6,670.6z
		 M195.1,727.9c-14.1,1.1-26.4-9.4-27.5-23.5c-1.1-14.1,9.4-26.4,23.5-27.5c14.1-1.1,26.4,9.4,27.5,23.5
		C219.7,714.5,209.2,726.8,195.1,727.9z"/>
</g>
</svg>
