<svg id="Layer_1" data-name="Layer 1" xmlns="http://www.w3.org/2000/svg" viewBox="0 0 600 400"><defs><style>.cls-1{fill:#757575;}.cls-2{fill:none;stroke:#757575;stroke-linecap:round;stroke-linejoin:round;stroke-width:6px;}</style></defs><title>screen-reset</title><path class="cls-1" d="M173.63,331.82h-10.5V264.18H189.7c13.93,0,22.6,8.06,22.6,20.67,0,9.14-4.88,16.55-13.13,19.31l15.19,27.66H202.22l-13.78-26H173.63Zm0-34.5h15.09c8.11,0,12.8-4.45,12.8-12.19,0-7.54-5-12.14-13.08-12.14H173.63Z"/><path class="cls-1" d="M265.36,331.82H222.42V264.18h42.94v9.05H232.92V293h30.71v8.72H232.92v21h32.44Z"/><path class="cls-1" d="M283.5,313c.75,6.7,7.27,11.11,16.17,11.11,8.53,0,14.67-4.41,14.67-10.46,0-5.25-3.7-8.39-12.46-10.54L293.11,301c-12.42-3-18.19-8.82-18.19-18.24,0-11.67,10.17-19.69,24.61-19.69s24.1,8,24.42,19.69H313.73c-.6-6.75-6.18-10.83-14.34-10.83S285.66,276,285.66,282c0,4.78,3.56,7.59,12.28,9.75l7.45,1.83c13.88,3.28,19.64,8.86,19.64,18.75C325,325,315,333,298.92,333c-15,0-25.12-7.74-25.78-20Z"/><path class="cls-1" d="M377.39,331.82H334.45V264.18h42.94v9.05H345V293h30.71v8.72H345v21h32.44Z"/><path class="cls-1" d="M405.33,331.82V273.23h-21.1v-9.05h52.65v9.05H415.83v58.59Z"/><rect class="cls-2" x="220" y="67.05" width="160" height="160" rx="4" ry="4"/><circle class="cls-1" cx="300" cy="147.05" r="48"/><circle class="cls-1" cx="241" cy="88.05" r="6"/><circle class="cls-1" cx="359" cy="88.05" r="6"/><circle class="cls-1" cx="241" cy="206.05" r="6"/><circle class="cls-1" cx="359" cy="206.05" r="6"/></svg>