<svg id="Layer_1" data-name="Layer 1" xmlns="http://www.w3.org/2000/svg" viewBox="0 0 600 400"><defs><style>.cls-1{fill:#757575;}.cls-2{fill:#fff;}</style></defs><title>screen-connectfail</title><path class="cls-1" d="M156.33,247.57h-9.6a21.62,21.62,0,0,1,21.6-21.6v9.6A12,12,0,0,0,156.33,247.57Z"/><path class="cls-1" d="M141.93,247.57h-9.6a36,36,0,0,1,36-36v9.6A26.43,26.43,0,0,0,141.93,247.57Z"/><path class="cls-1" d="M127.53,247.57h-9.6a50.46,50.46,0,0,1,50.4-50.4v9.6A40.84,40.84,0,0,0,127.53,247.57Z"/><path class="cls-1" d="M210.4,148.74c-.75-3.48-4.36-5.53-8-5.53-5.8,0-10.23,5.25-10.23,14s4.43,14,10.23,14c3.61,0,7.15-2,8-5.52h4.43c-1.16,6-6.42,9.47-12.4,9.47-8.39,0-14.32-6.82-14.32-17.93s5.93-17.93,14.32-17.93c6,0,11.24,3.48,12.4,9.48Z"/><path class="cls-1" d="M219.23,161.69c0-8.18,4.78-13.57,11.87-13.57S243,153.51,243,161.69s-4.77,13.5-11.86,13.5S219.23,169.8,219.23,161.69Zm19.71,0c0-5.25-2.46-9.95-7.84-9.95s-7.84,4.7-7.84,9.95,2.45,9.89,7.84,9.89S238.94,166.94,238.94,161.69Z"/><path class="cls-1" d="M252.31,174.64h-4V148.46h4v4.44h.28a8.16,8.16,0,0,1,7.77-4.78c4.91,0,8.45,3.21,8.45,9.89v16.63h-4V158.28c0-3.82-2.39-6.27-5.73-6.27a6.8,6.8,0,0,0-6.75,7.16Z"/><path class="cls-1" d="M279.36,174.64h-4V148.46h4v4.44h.27a8.18,8.18,0,0,1,7.78-4.78c4.91,0,8.45,3.21,8.45,9.89v16.63h-4V158.28c0-3.82-2.39-6.27-5.73-6.27a6.8,6.8,0,0,0-6.75,7.16Z"/><path class="cls-1" d="M301,161.76c0-8,4.7-13.64,11.79-13.64,5.46,0,11.25,3.34,11.25,13.09v1.71h-19c.41,5.66,3.4,8.66,8.13,8.66,3.21,0,5.53-1.37,6.55-4.09l3.88,1.09c-1.22,3.95-5.11,6.61-10.43,6.61C305.65,175.19,301,169.8,301,161.76Zm4.16-2.32H320c0-4.43-2.79-7.7-7.16-7.7C308.78,151.74,305.82,154.53,305.17,159.44Z"/><path class="cls-1" d="M346.24,156.3a6.14,6.14,0,0,0-6.27-4.56c-4.7,0-7.84,3.88-7.84,9.81s3.07,10,7.84,10a6.09,6.09,0,0,0,6.27-4.57h4c-.68,4.63-4.5,8.18-10.29,8.18-7.3,0-11.86-5.59-11.86-13.64,0-7.84,4.7-13.43,11.79-13.43,5.52,0,9.68,3.28,10.36,8.18Z"/><path class="cls-1" d="M366.46,152.21h-5.59v14.94c0,3.81,2.59,3.88,4.09,3.88a12,12,0,0,0,1.57-.14v3.69a7.16,7.16,0,0,1-2.59.27c-3.14,0-7.1-2-7.1-6.61v-16h-3.95v-3.75h3.95v-5.59h4v5.59h5.59Z"/><path class="cls-1" d="M370.28,142a2.87,2.87,0,0,1,5.73,0,2.87,2.87,0,0,1-5.73,0Zm4.91,32.65h-4V148.46h4Z"/><path class="cls-1" d="M380.46,161.69c0-8.18,4.77-13.57,11.86-13.57s11.87,5.39,11.87,13.57-4.78,13.5-11.87,13.5S380.46,169.8,380.46,161.69Zm19.7,0c0-5.25-2.45-9.95-7.84-9.95s-7.84,4.7-7.84,9.95,2.46,9.89,7.84,9.89S400.16,166.94,400.16,161.69Z"/><path class="cls-1" d="M413.54,174.64h-4V148.46h4v4.44h.27a8.18,8.18,0,0,1,7.78-4.78c4.9,0,8.45,3.21,8.45,9.89v16.63h-4V158.28c0-3.82-2.39-6.27-5.73-6.27a6.8,6.8,0,0,0-6.75,7.16Z"/><path class="cls-1" d="M229,236.58H201.12v30.23h-11V197h43.53v9.44H201.12v20.69H229Z"/><path class="cls-1" d="M233,266.81,256.71,197H268.3l23.76,69.81H280.4l-5.32-16.74H249.93l-5.35,16.74Zm19.94-26h19.26L263,211.9h-.88Z"/><path class="cls-1" d="M310.91,266.81h-11V197h11Z"/><path class="cls-1" d="M365.93,266.81H324.65V197h11v60.37h30.27Z"/><path class="cls-1" d="M418.8,266.81H374.75V197h43.7v9.44H385.76v20.69h28.71v9.45H385.76v20.79h33Z"/><path class="cls-1" d="M428.31,266.81V197h21.48c18.64,0,32.28,13.6,32.28,34.56,0,22.3-13.7,35.25-32.9,35.25Zm11.05-60.16v50.52h9.2c13.6,0,22.53-8.6,22.53-25.61,0-15.64-8.93-24.91-21.95-24.91Z"/><path class="cls-1" d="M170.3,256.2a1,1,0,0,1-.7-.3l-8.47-8.46-8.46,8.46a1,1,0,0,1-1.42,0l-5.65-5.65a1,1,0,0,1,0-1.42l8.46-8.46-8.46-8.47a1,1,0,0,1,0-1.41l5.65-5.66a1,1,0,0,1,1.42,0l8.46,8.47,8.47-8.47a1,1,0,0,1,1.41,0l5.66,5.66a1,1,0,0,1,.29.71,1,1,0,0,1-.29.7l-8.47,8.47,8.47,8.46a1,1,0,0,1,0,1.42L171,255.9A1,1,0,0,1,170.3,256.2Z"/><path class="cls-2" d="M170.3,225.54,176,231.2l-9.17,9.17,9.17,9.17-5.66,5.66L161.13,246,152,255.2l-5.66-5.66,9.18-9.17-9.18-9.17,5.66-5.66,9.17,9.17,9.17-9.17m-18.34-2a2,2,0,0,0-1.41.59l-5.66,5.65a2,2,0,0,0,0,2.83l7.76,7.76-7.76,7.76a2,2,0,0,0,0,2.82l5.66,5.66a2,2,0,0,0,2.82,0l7.76-7.76,7.76,7.76a2,2,0,0,0,2.83,0l5.65-5.66a2,2,0,0,0,0-2.82l-7.75-7.76,7.75-7.76a2,2,0,0,0,0-2.83l-5.65-5.65a2,2,0,0,0-2.83,0l-7.76,7.75-7.76-7.75a2,2,0,0,0-1.41-.59Z"/></svg>