<svg id="Layer_1" data-name="Layer 1" xmlns="http://www.w3.org/2000/svg" viewBox="0 0 600 400"><defs><style>.cls-1{fill:#757575;}.cls-2{fill:none;stroke:#000222;stroke-linecap:round;stroke-linejoin:round;stroke-width:5px;opacity:0.24;}</style></defs><title>screen-dance</title><path class="cls-1" d="M223,159a51,51,0,1,0,51,51A51,51,0,0,0,223,159Zm0,92a41,41,0,1,1,41-41A41,41,0,0,1,223,251Z"/><path class="cls-1" d="M377,159a51,51,0,1,0,51,51A51,51,0,0,0,377,159Zm0,92a41,41,0,1,1,41-41A41,41,0,0,1,377,251Z"/><path class="cls-1" d="M327.46,260.46,324.93,263H277.07l-2.54-2.54a5,5,0,0,0-7.07,7.08l4,4A5,5,0,0,0,275,273h52a5,5,0,0,0,3.53-1.46l4-4a5,5,0,1,0-7.07-7.08Z"/><path class="cls-1" d="M281,123.5v10a5,5,0,0,0,10,0v-10c0-11.73-10.29-22.36-11.47-23.54L272.46,107C274.68,109.25,281,117,281,123.5Z"/><path class="cls-1" d="M256.46,117c2.21,2.22,8.54,10,8.54,16.47a5,5,0,0,0,10,0c0-11.73-10.29-22.37-11.47-23.54l-2.82,2.83-8-8-1.42,1.42,8,8Z"/><path class="cls-1" d="M329,133.5a5,5,0,0,0,10,0c0-4,2.75-4.94,5-5v-4h12v-2H344v-4C338,118.5,329,122.49,329,133.5Z"/><rect class="cls-1" x="271" y="93.84" width="2" height="11.31" transform="translate(9.31 221.47) rotate(-45)"/><path class="cls-1" d="M302,138.5a5,5,0,0,0,5-5v-30h-4v-12h-2v12h-4v30A5,5,0,0,0,302,138.5Z"/><path class="cls-1" d="M318,138.5a5,5,0,0,0,5-5v-10c0-6.45,6.16-14.08,8.53-16.46l-2.82-2.83,8-8-1.42-1.42-8,8L324.46,100c-1.17,1.17-11.46,11.8-11.46,23.53v10A5,5,0,0,0,318,138.5Z"/><path class="cls-2" d="M450.43,146.57A59.85,59.85,0,0,1,468,189"/><path class="cls-2" d="M464.57,132.43A79.75,79.75,0,0,1,488,189"/><path class="cls-2" d="M149.57,273.43A59.81,59.81,0,0,1,132,231"/><path class="cls-2" d="M135.43,287.57A79.75,79.75,0,0,1,112,231"/></svg>