<svg id="Layer_1" data-name="Layer 1" xmlns="http://www.w3.org/2000/svg" viewBox="0 0 600 400"><defs><style>.cls-1{fill:#757575;}</style></defs><title>screen-connecting</title><path class="cls-1" d="M174.81,148.76c-.75-3.47-4.36-5.52-8-5.52-5.79,0-10.22,5.25-10.22,14s4.43,14,10.22,14c3.61,0,7.15-2,8-5.52h4.43c-1.16,6-6.42,9.47-12.4,9.47-8.38,0-14.3-6.81-14.3-17.91s5.92-17.92,14.3-17.92c6,0,11.24,3.48,12.4,9.47Z"/><path class="cls-1" d="M184.16,161.7c0-8.17,4.76-13.55,11.85-13.55s11.85,5.38,11.85,13.55-4.77,13.49-11.85,13.49S184.16,169.81,184.16,161.7Zm19.68,0c0-5.24-2.45-9.94-7.83-9.94s-7.84,4.7-7.84,9.94,2.46,9.88,7.84,9.88S203.84,167,203.84,161.7Z"/><path class="cls-1" d="M217.68,174.64h-4V148.49h4v4.43H218a8.16,8.16,0,0,1,7.77-4.77c4.91,0,8.45,3.2,8.45,9.87v16.62h-4V158.3c0-3.82-2.39-6.27-5.72-6.27a6.8,6.8,0,0,0-6.75,7.15Z"/><path class="cls-1" d="M245.18,174.64h-4V148.49h4v4.43h.28a8.14,8.14,0,0,1,7.76-4.77c4.91,0,8.45,3.2,8.45,9.87v16.62h-4V158.3c0-3.82-2.39-6.27-5.72-6.27a6.8,6.8,0,0,0-6.75,7.15Z"/><path class="cls-1" d="M267.3,161.77c0-8,4.7-13.62,11.79-13.62,5.45,0,11.24,3.34,11.24,13.08v1.7H271.38c.4,5.65,3.38,8.65,8.12,8.65,3.2,0,5.51-1.36,6.54-4.09l3.88,1.09c-1.23,3.95-5.11,6.61-10.42,6.61C271.94,175.19,267.3,169.81,267.3,161.77Zm4.16-2.32h14.78c0-4.42-2.79-7.69-7.15-7.69C275.07,151.76,272.11,154.55,271.46,159.45Z"/><path class="cls-1" d="M313,156.32a6.15,6.15,0,0,0-6.27-4.56c-4.7,0-7.83,3.88-7.83,9.81s3.06,10,7.83,10A6.09,6.09,0,0,0,313,167h4c-.68,4.63-4.49,8.17-10.28,8.17-7.29,0-11.85-5.59-11.85-13.62,0-7.84,4.7-13.42,11.78-13.42,5.52,0,9.67,3.27,10.35,8.17Z"/><path class="cls-1" d="M333.64,152.23h-5.59v14.92c0,3.82,2.59,3.88,4.09,3.88a11.87,11.87,0,0,0,1.57-.13v3.68a7.13,7.13,0,0,1-2.59.27c-3.14,0-7.09-2-7.09-6.61v-16h-3.95v-3.74H324V142.9h4v5.59h5.59Z"/><path class="cls-1" d="M338,142a2.86,2.86,0,0,1,5.72,0,2.86,2.86,0,0,1-5.72,0Zm4.91,32.62h-4V148.49h4Z"/><path class="cls-1" d="M354,174.64h-4V148.49h4v4.43h.27a8.14,8.14,0,0,1,7.76-4.77c4.91,0,8.45,3.2,8.45,9.87v16.62h-4V158.3c0-3.82-2.38-6.27-5.72-6.27a6.79,6.79,0,0,0-6.74,7.15Z"/><path class="cls-1" d="M399.47,148.49v26.7c0,5.86-5.11,9.26-11.44,9.26-5.45,0-8.45-2.38-10.08-4.7l3-2.38a8.41,8.41,0,0,0,7.09,3.47c4.36,0,7.35-2,7.42-6.54v-3.06h-.27c-.89,1.4-3.2,3.39-7.43,3.39-6.81,0-11.64-5.13-11.64-13.27s4.83-13.21,11.71-13.21c4.29,0,6.47,2,7.36,3.34h.27v-3ZM388,171.1c4.9,0,7.9-4,7.9-9.74s-2.93-9.67-7.9-9.67c-5.18,0-7.83,4.19-7.83,9.6S382.85,171.1,388,171.1Z"/><path class="cls-1" d="M430.64,152.23h-5.59v14.92c0,3.82,2.59,3.88,4.09,3.88a11.87,11.87,0,0,0,1.57-.13v3.68a7.13,7.13,0,0,1-2.59.27c-3.13,0-7.08-2-7.08-6.61v-16h-4v-3.74h4V142.9h4v5.59h5.59Z"/><path class="cls-1" d="M434,161.7c0-8.17,4.77-13.55,11.85-13.55s11.85,5.38,11.85,13.55-4.77,13.49-11.85,13.49S434,169.81,434,161.7Zm19.68,0c0-5.24-2.45-9.94-7.83-9.94s-7.83,4.7-7.83,9.94,2.45,9.88,7.83,9.88S453.71,167,453.71,161.7Z"/><path class="cls-1" d="M209.89,266.72H199.12l-32.52-50.6H166v50.6h-11V196.89h10.8l32.56,50.77H199V196.89h10.94Z"/><path class="cls-1" d="M220.54,241.08c0-16,9.52-27.41,24.24-27.41,12.14,0,23,7.53,23,25.67v4.5H231.08c.85,9.51,5.79,14.83,14.32,14.83,6.37,0,10.09-3.07,11.79-7.7l9.89,2.69c-2.18,7.53-9.61,14.12-21.65,14.12C230,267.78,220.54,257,220.54,241.08Zm10.81-5.29h26c0-7.5-4.77-13.09-12.61-13.09C237.69,222.7,232.72,227.51,231.35,235.79Z"/><path class="cls-1" d="M300.17,223H290.05V251.2c0,6.35,4.43,6.72,7,6.72,1.47,0,2.25-.1,3.44-.17v9a24.64,24.64,0,0,1-6.44.61c-6.89,0-14.73-4.87-14.73-14V223h-7.19v-8.69h7.19V203.17h10.71v11.18h10.12Z"/><path class="cls-1" d="M362.45,266.72h-9.58l-10.4-36.31h-.82l-10.36,36.31h-9.58l-14.87-52.37h10.74l9.17,37h.62l10.09-37h9.3l10,36.85h.58l9.24-36.85h10.74Z"/><path class="cls-1" d="M380.89,240.7c0-16.94,10.2-27,23.7-27s23.7,10.09,23.7,27c0,16.71-10,27.08-23.7,27.08S380.89,257.41,380.89,240.7Zm37,0c0-10.43-4.43-18-13.26-18s-13.26,7.57-13.26,18,4.4,18,13.26,18S417.85,251.1,417.85,240.7Z"/><path class="cls-1" d="M464.88,224.37a26.79,26.79,0,0,0-3.85-.24,12.64,12.64,0,0,0-12.61,12.48v30.11H437.71V214.35h10.71v8.18h.51c1.5-5.18,7-9,12.55-9a16.9,16.9,0,0,1,3.4.28Z"/><path class="cls-1" d="M488.32,243.47,483,249.4v17.32H472.26V196.89H483v38.87h.89l18.68-21.41h12.82l-19.95,22.33,21.65,30H505Z"/><circle class="cls-1" cx="133.34" cy="247.57" r="7.2"/><path class="cls-1" d="M121.34,247.57h-9.6a21.62,21.62,0,0,1,21.6-21.6v9.6A12,12,0,0,0,121.34,247.57Z"/><path class="cls-1" d="M106.94,247.57h-9.6a36,36,0,0,1,36-36v9.6A26.43,26.43,0,0,0,106.94,247.57Z"/><path class="cls-1" d="M92.54,247.57h-9.6a50.46,50.46,0,0,1,50.4-50.4v9.6A40.84,40.84,0,0,0,92.54,247.57Z"/></svg>