<svg id="Layer_1" data-name="Layer 1" xmlns="http://www.w3.org/2000/svg" viewBox="0 0 600 400"><defs><style>.cls-1{fill:#757575;}.cls-2{fill:none;stroke:#757575;stroke-miterlimit:10;stroke-width:6px;}</style></defs><title>screen-ipface</title><path class="cls-1" d="M177.43,216.32H162V127.86h-.62l-17.89,10.43-6.6-11.66,25.67-15h14.83Z"/><path class="cls-1" d="M263,124.53l-40.24,91.79H205.39l40.7-90.15H195.26V111.6H263Z"/><path class="cls-1" d="M273.63,138.85A10.41,10.41,0,1,1,284,149.33,10.33,10.33,0,0,1,273.63,138.85Zm0,52.51A10.41,10.41,0,1,1,284,201.85,10.33,10.33,0,0,1,273.63,191.36Z"/><path class="cls-1" d="M383.55,196.38H368.83v19.94H354.15V196.38h-47.5V185.69L352,111.6h16.88v70.61h14.72Zm-29.4-14.17V131.85L352,137l-26.84,45.25Z"/><path class="cls-1" d="M463.07,216.32H392.15v-12l35.79-36.46c11.61-12,16.46-19,16.46-26.79,0-9.87-6.54-17.59-17.38-17.59-12.12,0-16.72,10.18-16.72,21.22H394.24c0-17.74,10.89-34.51,33.14-34.51,20.3,0,32.93,12.06,32.93,29.86,0,13.09-9.62,25.31-21.63,37.94l-19.79,20.45a12.24,12.24,0,0,1-4.55,3.38l.56,1.17c2.05-.82,3.53-.82,6.09-.82h42.08Z"/><rect class="cls-2" x="108" y="83.96" width="384" height="160" rx="4" ry="4"/><circle class="cls-1" cx="194.9" cy="321.24" r="7.2"/><path class="cls-1" d="M182.9,321.24h-9.6a21.62,21.62,0,0,1,21.6-21.6v9.6A12,12,0,0,0,182.9,321.24Z"/><path class="cls-1" d="M168.5,321.24h-9.6a36,36,0,0,1,36-36v9.6A26.43,26.43,0,0,0,168.5,321.24Z"/><path class="cls-1" d="M231.65,320.47h-4V289.86h-.21l-6.75,4-1.77-3.14,8.73-5.11h4Z"/><path class="cls-1" d="M250.07,317.24c3.46,0,7.4-2.41,7.63-13a10.83,10.83,0,0,1-8.09,3.31c-7.06,0-10.18-5.39-10.18-11,0-6.41,4-11.45,11.08-11.45,7.84,0,11.35,6,11.35,17.14v1.16c0,10.79-4,17.56-11.74,17.56-5.76,0-8.9-3.28-10.14-9.21h4C244.8,314.17,246,317.24,250.07,317.24Zm0-13.43a7.09,7.09,0,0,0,7.33-7.25c-.07-5.21-3.46-7.75-7.19-7.75s-6.71,3.07-6.71,7.56C243.46,300.33,245.21,303.81,250,303.81Z"/><path class="cls-1" d="M289.59,320.47H266.14v-3.06l12.27-12.62c4.23-4.36,6.2-6.68,6.2-9.69a6.48,6.48,0,0,0-6.8-6.53c-4.72,0-6.22,3.88-6.22,7.91h-4.16c0-5.66,3-11.39,10.52-11.39,6.39,0,10.76,4.16,10.76,9.89,0,4-3.23,8.23-6.82,11.93l-8.23,8.44a5.25,5.25,0,0,1-1.59,1.24l.2.41a5.56,5.56,0,0,1,2.25-.28h15.07Z"/><path class="cls-1" d="M295,317.88A3.07,3.07,0,1,1,298,321,3,3,0,0,1,295,317.88Z"/><path class="cls-1" d="M315.63,320.47h-4V289.86h-.21l-6.75,4-1.77-3.14,8.73-5.11h4Z"/><path class="cls-1" d="M335.69,288.84c-3.46,0-7.39,2.4-7.63,13a10.85,10.85,0,0,1,8.09-3.31c7.06,0,10.18,5.39,10.18,11,0,6.41-4,11.45-11.08,11.45-7.84,0-11.35-6-11.35-17.14v-1.16c0-10.79,4-17.56,11.74-17.56,5.76,0,8.9,3.27,10.14,9.21h-4C341,291.91,339.8,288.84,335.69,288.84Zm-7.29,20.68c.07,5.21,3.46,7.75,7.19,7.75s6.72-3.07,6.72-7.57c0-3.95-1.76-7.43-6.58-7.43A7.09,7.09,0,0,0,328.4,309.52Z"/><path class="cls-1" d="M362.81,321c-6.17,0-11.08-4.09-11.08-10.36a9.86,9.86,0,0,1,5.62-8.74,8.72,8.72,0,0,1-4.8-7.69c0-5.93,4.43-9.07,10.26-9.07S373,288.23,373,294.16a8.76,8.76,0,0,1-4.89,7.7,9.86,9.86,0,0,1,5.71,8.73C373.82,316.86,369,321,362.81,321Zm-.1-17.38a6.92,6.92,0,1,0,.13,13.84,6.79,6.79,0,0,0,6.82-6.8A7.08,7.08,0,0,0,362.71,303.57Zm0-14.87c-3.15,0-6.22,2.05-6.22,5.53a6.15,6.15,0,0,0,6.31,5.93,6.08,6.08,0,0,0,6.24-5.83C369.05,291,366.05,288.7,362.72,288.7Z"/><path class="cls-1" d="M379.54,317.88a3.07,3.07,0,1,1,3.07,3.07A3,3,0,0,1,379.54,317.88Z"/><path class="cls-1" d="M415.49,313.93h-4.77v6.54H407v-6.54H390.54v-2.66l15.75-25.7h4.43v24.61h4.77ZM407,310.18V290.32l-.68,2.27-10.5,17.59Z"/><path class="cls-1" d="M420.44,317.88a3.07,3.07,0,1,1,3.07,3.07A3,3,0,0,1,420.44,317.88Z"/><path class="cls-1" d="M441.1,320.47h-4V289.86h-.21l-6.74,4-1.78-3.14,8.73-5.11h4Z"/></svg>