<?xml version="1.0" encoding="utf-8"?>
<!-- Generator: Adobe Illustrator 16.0.0, SVG Export Plug-In . SVG Version: 6.00 Build 0)  -->
<svg version="1.2" baseProfile="tiny" id="Layer_1" xmlns="http://www.w3.org/2000/svg" xmlns:xlink="http://www.w3.org/1999/xlink"
	 x="0px" y="0px" width="284.8px" height="252.01px" viewBox="0 0 284.8 252.01" xml:space="preserve">
<g>
	<path fill="#34504D" d="M46.875,179.885c0,1.251-0.625,1.877-1.875,1.877s-1.875-0.625-1.875-1.877v-13.14
		c0-2.069-0.733-3.837-2.2-5.306s-3.233-2.203-5.3-2.203c-2.067,0-3.833,0.734-5.3,2.203c-1.467,1.468-2.2,3.237-2.2,5.306v13.14
		c0,1.251-0.625,1.877-1.875,1.877s-1.875-0.625-1.875-1.876v-33.773c0-1.25,0.625-1.876,1.875-1.876s1.875,0.625,1.875,1.875v12.25
		c2.133-1.917,4.633-2.875,7.5-2.875c3.1,0,5.75,1.101,7.95,3.303c2.2,2.202,3.3,4.854,3.3,7.958V179.885z"/>
	<path fill="#34504D" d="M78.75,174.217c0,0.318-0.1,0.66-0.3,1.028c-1.15,2.005-2.875,3.601-5.175,4.788
		c-2.184,1.153-4.475,1.729-6.875,1.729c-3.75,0-6.983-1.243-9.7-3.729c-2.817-2.569-4.225-5.705-4.225-9.409
		c0-3.721,1.408-6.857,4.225-9.409c2.716-2.485,5.95-3.729,9.7-3.729c1.367,0,2.792,0.242,4.275,0.725
		c1.666,0.55,3.325,1.425,4.975,2.625c2.05,1.5,3.075,2.925,3.075,4.275c0,0.667-0.325,1.175-0.975,1.525l-18.95,10.175
		c2.05,2.133,4.583,3.2,7.6,3.2c3.217,0,5.825-1.122,7.825-3.365c0.233-0.301,0.583-0.761,1.05-1.381s0.975-0.929,1.525-0.929
		c0.5,0,0.95,0.188,1.35,0.564C78.551,173.277,78.75,173.716,78.75,174.217z M74.043,162.399c-2.033-2.108-4.582-3.162-7.647-3.162
		c-2.699,0-5.048,0.874-7.047,2.622c-2.083,1.831-3.124,4.078-3.124,6.742c0,1.065,0.181,2.081,0.542,3.046L74.043,162.399z"/>
	<path fill="#34504D" d="M108.05,179.886c0,1.25-0.625,1.876-1.875,1.876c-0.917,0-1.492-0.403-1.725-1.208
		c-0.1-0.353-0.15-1.141-0.15-2.366c-2.267,2.383-4.975,3.575-8.125,3.575c-3.417,0-6.275-1.351-8.575-4.054
		c-2.2-2.585-3.3-5.613-3.3-9.083c0-3.453,1.1-6.481,3.3-9.084c2.3-2.702,5.158-4.054,8.575-4.054c3.15,0,5.858,1.184,8.125,3.55
		v-12.925c0-1.25,0.625-1.875,1.875-1.875s1.875,0.625,1.875,1.876V179.886z M104.3,168.625c0.017-2.437-0.708-4.564-2.175-6.384
		c-1.583-2.002-3.567-3.004-5.95-3.004c-2.367,0-4.342,1.001-5.925,3.004c-1.467,1.836-2.2,3.964-2.2,6.384
		c0,2.437,0.733,4.564,2.2,6.383c1.583,2.003,3.558,3.004,5.925,3.004s4.35-1.001,5.95-3.004
		C103.592,173.189,104.317,171.062,104.3,168.625z"/>
	<path fill="#34504D" d="M139.925,157.362c0,1.017-0.534,1.625-1.6,1.825c-0.267,0.066-1.2,0.083-2.8,0.05
		c1.433,1.634,2.15,3.509,2.15,5.625c0,3-1.342,5.425-4.025,7.275c4.183,2.184,6.275,5.384,6.275,9.6c0,3.3-1.4,6.042-4.2,8.225
		c-2.566,2.016-5.542,3.025-8.925,3.025c-3.4,0-6.375-1.009-8.925-3.025c-2.8-2.184-4.2-4.925-4.2-8.225
		c0-1.25,0.625-1.875,1.875-1.875s1.875,0.625,1.875,1.875c0,2.25,1.033,4.091,3.1,5.525c1.85,1.316,3.941,1.975,6.275,1.975
		c2.316,0,4.408-0.659,6.275-1.975c2.066-1.45,3.1-3.292,3.1-5.525c0-2.25-1.034-4.091-3.1-5.525
		c-1.85-1.316-3.942-1.975-6.275-1.975c-2.817,0-5.284-0.841-7.4-2.525c-2.3-1.816-3.458-4.1-3.475-6.85
		c0-2.75,1.158-5.033,3.475-6.85c2.133-1.683,4.6-2.525,7.4-2.525h11.25C139.3,155.487,139.925,156.112,139.925,157.362z
		 M133.925,164.862c0-1.683-0.792-3.083-2.375-4.2c-1.4-0.95-2.983-1.425-4.75-1.425c-1.75,0-3.333,0.475-4.75,1.425
		c-1.583,1.1-2.375,2.5-2.375,4.2c0,1.684,0.792,3.083,2.375,4.2c1.4,0.95,2.983,1.425,4.75,1.425c1.75,0,3.333-0.475,4.75-1.425
		C133.133,167.946,133.925,166.546,133.925,164.862z"/>
	<path fill="#34504D" d="M170.55,174.217c0,0.318-0.1,0.66-0.3,1.028c-1.15,2.005-2.875,3.601-5.175,4.788
		c-2.184,1.153-4.475,1.729-6.875,1.729c-3.75,0-6.983-1.243-9.7-3.729c-2.817-2.569-4.225-5.705-4.225-9.409
		c0-3.721,1.408-6.857,4.225-9.409c2.716-2.485,5.95-3.729,9.7-3.729c1.367,0,2.792,0.242,4.275,0.725
		c1.666,0.55,3.325,1.425,4.975,2.625c2.05,1.5,3.075,2.925,3.075,4.275c0,0.667-0.325,1.175-0.975,1.525l-18.95,10.175
		c2.05,2.133,4.583,3.2,7.6,3.2c3.217,0,5.825-1.122,7.825-3.365c0.233-0.301,0.583-0.761,1.05-1.381s0.975-0.929,1.525-0.929
		c0.5,0,0.95,0.188,1.35,0.564C170.351,173.277,170.55,173.716,170.55,174.217z M165.843,162.399
		c-2.033-2.108-4.582-3.162-7.647-3.162c-2.699,0-5.048,0.874-7.047,2.622c-2.083,1.831-3.124,4.078-3.124,6.742
		c0,1.065,0.181,2.081,0.542,3.046L165.843,162.399z"/>
	<path fill="#34504D" d="M199.875,179.885c0,1.251-0.625,1.877-1.875,1.877s-1.875-0.625-1.875-1.877v-13.14
		c0-2.069-0.733-3.837-2.2-5.306s-3.233-2.203-5.3-2.203c-2.067,0-3.833,0.734-5.3,2.203c-1.467,1.468-2.2,3.237-2.2,5.306v13.14
		c0,1.251-0.625,1.877-1.875,1.877s-1.875-0.625-1.875-1.876v-33.773c0-1.25,0.625-1.876,1.875-1.876s1.875,0.625,1.875,1.875v12.25
		c2.133-1.917,4.633-2.875,7.5-2.875c3.1,0,5.75,1.101,7.95,3.303c2.2,2.202,3.3,4.854,3.3,7.958V179.885z"/>
	<path fill="#34504D" d="M231.726,168.625c0,3.62-1.284,6.715-3.85,9.284c-2.567,2.569-5.659,3.854-9.275,3.854
		c-3.617,0-6.708-1.284-9.275-3.854c-2.567-2.569-3.85-5.664-3.85-9.284s1.283-6.715,3.85-9.284
		c2.566-2.569,5.658-3.854,9.275-3.854c3.616,0,6.708,1.285,9.275,3.854C230.442,161.91,231.726,165.005,231.726,168.625z
		 M227.976,168.625c0-2.587-0.917-4.798-2.75-6.634c-1.833-1.836-4.042-2.754-6.625-2.754c-2.583,0-4.792,0.918-6.625,2.754
		c-1.833,1.836-2.75,4.047-2.75,6.634c0,2.586,0.917,4.798,2.75,6.634c1.833,1.836,4.042,2.753,6.625,2.753
		c2.583,0,4.792-0.917,6.625-2.753C227.059,173.423,227.976,171.211,227.976,168.625z"/>
	<path fill="#34504D" d="M262.326,157.362c0,1.017-0.534,1.625-1.6,1.825c-0.267,0.066-1.2,0.083-2.8,0.05
		c1.433,1.634,2.15,3.509,2.15,5.625c0,3-1.342,5.425-4.025,7.275c4.183,2.184,6.275,5.384,6.275,9.6c0,3.3-1.4,6.042-4.2,8.225
		c-2.566,2.016-5.542,3.025-8.925,3.025c-3.4,0-6.375-1.009-8.925-3.025c-2.8-2.184-4.2-4.925-4.2-8.225
		c0-1.25,0.625-1.875,1.875-1.875s1.875,0.625,1.875,1.875c0,2.25,1.033,4.091,3.1,5.525c1.85,1.316,3.941,1.975,6.275,1.975
		c2.316,0,4.408-0.659,6.275-1.975c2.066-1.45,3.1-3.292,3.1-5.525c0-2.25-1.034-4.091-3.1-5.525
		c-1.85-1.316-3.942-1.975-6.275-1.975c-2.817,0-5.284-0.841-7.4-2.525c-2.3-1.816-3.458-4.1-3.475-6.85
		c0-2.75,1.158-5.033,3.475-6.85c2.133-1.683,4.6-2.525,7.4-2.525h11.25C261.701,155.487,262.326,156.112,262.326,157.362z
		 M256.326,164.862c0-1.683-0.792-3.083-2.375-4.2c-1.4-0.95-2.983-1.425-4.75-1.425c-1.75,0-3.333,0.475-4.75,1.425
		c-1.583,1.1-2.375,2.5-2.375,4.2c0,1.684,0.792,3.083,2.375,4.2c1.4,0.95,2.983,1.425,4.75,1.425c1.75,0,3.333-0.475,4.75-1.425
		C255.534,167.946,256.326,166.546,256.326,164.862z"/>
	<path fill="#34504D" d="M49.326,216.625c0,3.553-1.192,6.615-3.575,9.184c-2.434,2.636-5.408,3.954-8.925,3.954
		s-6.492-1.317-8.925-3.953c-2.384-2.568-3.575-5.628-3.575-9.181v-22.516c0-1.25,0.625-1.876,1.875-1.876s1.875,0.625,1.875,1.875
		v13.125c2.417-2.5,5.333-3.75,8.75-3.75c3.517,0,6.491,1.318,8.925,3.954C48.134,210.01,49.326,213.072,49.326,216.625z
		 M45.576,216.625c0-2.52-0.817-4.698-2.45-6.534c-1.7-1.902-3.8-2.854-6.3-2.854c-2.483,0-4.575,0.952-6.275,2.854
		c-1.634,1.836-2.458,4.014-2.475,6.534c0,2.52,0.825,4.698,2.475,6.533c1.7,1.903,3.792,2.854,6.275,2.854s4.583-0.951,6.3-2.854
		C44.759,221.323,45.576,219.145,45.576,216.625z"/>
	<path fill="#34504D" d="M81.125,216.625c0,3.62-1.284,6.715-3.85,9.284c-2.567,2.569-5.659,3.854-9.275,3.854
		c-3.617,0-6.708-1.284-9.275-3.854c-2.567-2.569-3.85-5.664-3.85-9.284s1.283-6.715,3.85-9.284
		c2.566-2.569,5.658-3.854,9.275-3.854c3.616,0,6.708,1.285,9.275,3.854C79.842,209.91,81.125,213.005,81.125,216.625z
		 M77.375,216.625c0-2.587-0.917-4.798-2.75-6.634c-1.833-1.836-4.042-2.754-6.625-2.754c-2.583,0-4.792,0.918-6.625,2.754
		c-1.833,1.836-2.75,4.047-2.75,6.634c0,2.586,0.917,4.798,2.75,6.634c1.833,1.836,4.042,2.753,6.625,2.753
		c2.583,0,4.792-0.917,6.625-2.753C76.458,221.423,77.375,219.211,77.375,216.625z"/>
	<path fill="#34504D" d="M110.551,224.094c0,0.351-0.133,0.736-0.4,1.154c-0.884,1.354-2.2,2.458-3.95,3.311
		c-1.667,0.803-3.35,1.204-5.05,1.204c-3.1,0-5.75-1.101-7.95-3.303c-2.2-2.203-3.3-4.855-3.3-7.959v-11.263h-3.75
		c-1.25,0-1.875-0.625-1.875-1.875s0.625-1.875,1.875-1.875h3.75v-9.375c0-1.25,0.625-1.875,1.875-1.875s1.875,0.625,1.875,1.875
		v9.375h9.375c1.25,0,1.875,0.625,1.875,1.875s-0.625,1.875-1.875,1.875h-9.375v11.265c0,2.07,0.733,3.839,2.2,5.308
		c1.466,1.469,3.233,2.203,5.3,2.203c1.4,0,2.616-0.327,3.65-0.981c0.5-0.319,1.225-0.931,2.175-1.837
		c0.666-0.654,1.208-0.981,1.625-0.981c0.5,0,0.95,0.188,1.35,0.564C110.351,223.153,110.551,223.592,110.551,224.094z"/>
	<path fill="#85CFC7" d="M171.75,205.32c0,0.297-0.075,0.595-0.225,0.892l-11.075,22.175c-0.467,0.917-1.083,1.375-1.85,1.375
		s-1.384-0.458-1.85-1.375l-11.075-22.175c-0.15-0.297-0.225-0.595-0.225-0.892c0-0.495,0.2-0.925,0.599-1.288
		c0.399-0.363,0.849-0.545,1.348-0.545c0.749,0,1.289,0.343,1.622,1.028l9.582,19.127l9.581-19.127
		c0.35-0.686,0.891-1.028,1.623-1.028c0.499,0,0.948,0.182,1.347,0.545S171.75,204.825,171.75,205.32z"/>
	<path fill="#85CFC7" d="M200.476,209.123c0,2.602-0.867,5.004-2.6,7.206c-1.283,1.635-3.267,3.387-5.95,5.255
		c-2.167,1.468-4.333,2.944-6.5,4.429h13.175c1.25,0,1.875,0.625,1.875,1.875s-0.625,1.875-1.875,1.875h-18.75
		c-1.434,0-2.15-0.55-2.15-1.651c0-0.534,0.341-1.109,1.025-1.727c0.533-0.467,1.292-0.976,2.275-1.526
		c0.816-0.434,1.633-0.868,2.45-1.301c8.85-5.254,13.275-10.067,13.275-14.438c0-2.068-0.733-3.837-2.2-5.305
		c-1.467-1.468-3.234-2.202-5.3-2.202c-2.067,0-3.833,0.733-5.3,2.2c-1.467,1.467-2.2,3.233-2.2,5.3c0,1.25-0.625,1.875-1.875,1.875
		s-1.875-0.625-1.875-1.875c0-3.1,1.1-5.75,3.3-7.95c2.2-2.2,4.85-3.3,7.95-3.3s5.75,1.101,7.95,3.303
		C199.375,203.367,200.476,206.02,200.476,209.123z"/>
</g>
<g>
	<path fill="#85CFC7" d="M46.7,53.75c-14.083,0-25.5,11.417-25.5,25.5c0,14.084,11.417,25.5,25.5,25.5s25.5-11.416,25.5-25.5
		C72.2,65.167,60.783,53.75,46.7,53.75z M46.7,99.75c-11.304,0-20.5-9.196-20.5-20.5s9.196-20.5,20.5-20.5s20.5,9.196,20.5,20.5
		S58.004,99.75,46.7,99.75z"/>
	<path fill="#85CFC7" d="M123.701,53.75c-14.084,0-25.501,11.417-25.501,25.5c0,14.084,11.417,25.5,25.501,25.5
		c14.082,0,25.5-11.416,25.5-25.5C149.201,65.167,137.783,53.75,123.701,53.75z M123.701,99.75c-11.305,0-20.501-9.196-20.501-20.5
		s9.196-20.5,20.501-20.5c11.303,0,20.5,9.196,20.5,20.5S135.004,99.75,123.701,99.75z"/>
	<path fill="#85CFC7" d="M98.933,104.482l-1.268,1.268H73.736l-1.269-1.268c-0.976-0.977-2.56-0.977-3.535,0
		c-0.977,0.977-0.977,2.559,0,3.535l2,2c0.469,0.469,1.104,0.732,1.768,0.732h26c0.663,0,1.299-0.264,1.768-0.732l2-2
		c0.977-0.977,0.977-2.559,0-3.535S99.909,103.506,98.933,104.482z"/>
	<path fill="#85CFC7" d="M75.7,36v5c0,1.381,1.119,2.5,2.5,2.5s2.5-1.119,2.5-2.5v-5c0-5.866-5.146-11.182-5.732-11.768
		l-3.535,3.535C72.539,28.875,75.7,32.764,75.7,36z"/>
	<path fill="#85CFC7" d="M63.433,32.768C64.539,33.875,67.7,37.764,67.7,41c0,1.381,1.119,2.5,2.5,2.5s2.5-1.119,2.5-2.5
		c0-5.866-5.146-11.182-5.732-11.768l-1.414,1.414l-4-4l-0.707,0.707l4,4L63.433,32.768z"/>
	<path fill="#85CFC7" d="M99.7,41c0,1.381,1.119,2.5,2.5,2.5s2.5-1.119,2.5-2.5c0-2.014,1.376-2.472,2.5-2.5v-2h6v-1h-6v-2
		C104.186,33.5,99.7,35.497,99.7,41z"/>
	
		<rect x="68.372" y="23.499" transform="matrix(0.7071 0.7071 -0.7071 0.7071 37.8239 -43.317)" fill="#85CFC7" width="5.657" height="1"/>
	<path fill="#85CFC7" d="M86.2,43.5c1.381,0,2.5-1.119,2.5-2.5V26h-2v-6h-1v6h-2v15C83.7,42.381,84.819,43.5,86.2,43.5z"/>
	<path fill="#85CFC7" d="M94.2,43.5c1.381,0,2.5-1.119,2.5-2.5v-5c0-3.226,3.083-7.039,4.268-8.232l-1.414-1.414l4-4.001
		l-0.707-0.707l-4,4.001l-1.414-1.414C96.846,24.818,91.7,30.134,91.7,36v5C91.7,42.381,92.819,43.5,94.2,43.5z"/>
</g>
</svg>
